<svg width="309" height="319" viewBox="0 0 309 319" fill="none" xmlns="http://www.w3.org/2000/svg">
<path d="M102.643 209.251L154.503 318.331L155.215 232.498C150.088 233.094 138.17 230.666 125.889 226.06C114.445 221.769 106.219 211.874 102.643 209.251Z" fill="#1433D6"/>
<path d="M103 108.398L154.858 0.391602L154.5 86.2248C123.743 91.2317 126.604 116.982 127.677 120.2C128.75 123.419 129.823 135.937 172.024 153.461C205.785 167.48 208.98 196.973 206.358 209.968L154.5 317.617L155.215 232.499C164.156 235.36 188.833 216.405 180.965 196.735C173.097 177.065 164.156 179.568 129.823 160.614C102.356 145.45 100.497 119.485 103 108.398Z" fill="#1362FB"/>
<path d="M114.444 193.516L102.642 209.252L0 159.898L100.718 159.54C121.639 184.396 174.401 190.823 160.58 209.252C151.533 221.314 126.366 204.006 114.444 193.516Z" fill="#1362FB"/>
<path d="M0 159.897L103 108.397C88.0294 131.774 90.7831 147.735 100.718 159.54L0 159.897Z" fill="#1433D6"/>
<path d="M53.646 59.7588L101.927 108.934L79.0383 120.378L53.646 59.7588Z" fill="#1362FB"/>
<path d="M53.646 59.7588L101.927 108.934L102.982 108.469L113.781 85.946L53.646 59.7588Z" fill="#1433D6"/>
<path d="M255.169 258.706L206.455 209.58L194.899 232.494L255.169 258.706Z" fill="#1433D6"/>
<path d="M255.169 258.706L206.455 209.58L229.878 198.274L255.169 258.706Z" fill="#1362FB"/>
<path d="M54.46 258.706L102.976 209.763L114.73 232.494L54.46 258.706Z" fill="#1362FB"/>
<path d="M54.46 258.706L102.976 209.763L103.145 209.045L79.7508 198.274L54.46 258.706Z" fill="#1433D6"/>
<path d="M255.405 58.9873L207.124 108.163L230.013 119.607L255.405 58.9873Z" fill="#1433D6"/>
<path d="M255.405 58.9873L207.124 108.163L206.409 108.341L195.322 85.0949L255.405 58.9873Z" fill="#1362FB"/>
<path d="M206.357 209.966C224.362 184.433 216.298 170.585 207.947 158.824L309 159.539L206.357 209.966Z" fill="#1433D6"/>
<path d="M160.58 105.537C169.736 107.54 186.569 119.485 193.841 125.207L207.433 108.013L309 159.54L207.948 158.825C207.175 157.737 206.4 156.666 205.643 155.606C196.702 143.089 165.23 132.002 152.712 124.134C140.195 116.266 149.136 103.033 160.58 105.537Z" fill="#1362FB"/>
<path d="M206.523 108.364L154.304 0L154.5 86.2256C159.627 85.6295 172.619 85.6901 182.919 92.2707C193.219 98.8512 202.947 105.742 206.523 108.364Z" fill="#1433D6"/>
<path d="M129.823 160.613C102.356 145.449 100.496 119.484 103 108.397C56.5068 180.998 180.965 182.071 160.579 209.251C151.533 221.313 126.365 204.006 114.444 193.515L102.642 209.251C120.667 228.707 143.366 233.605 155.476 233.605C166.226 233.605 188.833 216.404 180.965 196.734C173.097 177.064 164.156 179.567 129.823 160.613Z" fill="white"/>
<path d="M172.024 153.46C205.785 167.48 208.979 196.973 206.357 209.967C226.027 182.071 214.583 168.123 205.642 155.606C196.701 143.089 165.228 132.002 152.711 124.134C140.194 116.266 149.135 103.033 160.579 105.537C169.735 107.54 186.568 119.485 193.839 125.207L206.714 108.755C199.442 103.868 183.54 93.2339 178.103 89.8006C172.667 86.3673 160.102 85.9858 154.499 86.2242C123.742 91.2312 126.603 116.981 127.676 120.2C128.749 123.419 129.822 135.936 172.024 153.46Z" fill="white"/>
</svg>
