<svg xmlns="http://www.w3.org/2000/svg" width="250" height="127" viewBox="0 0 250 127" fill="none">
<g filter="url(#filter0_d_1035_31488)">
<path d="M90.9709 126.5C97.9425 122.356 104.426 117.724 109.887 111.825C115.298 106.024 119.832 99.4909 123.098 91.9344C124.025 91.8856 124.951 91.7881 125.829 91.7394C132.02 91.6419 138.26 92.0319 144.403 91.3494C160.247 89.6431 171.168 73.5549 167.609 57.6618C164.879 45.5713 153.958 36.3084 141.868 36.0159C135.92 35.8696 130.021 35.9672 123.879 35.9672C117.541 21.2441 107.547 9.88486 93.5548 1.69453C94.3836 1.49952 94.7248 1.35327 95.0661 1.35327C111.593 1.35327 128.071 0.914501 144.549 1.49952C161.174 2.08455 175.117 9.39734 186.379 22.0241C188.329 24.2179 190.035 26.6555 191.887 28.9469C185.891 39.9648 182.673 51.3728 182.673 63.8045C182.673 76.2363 185.793 87.6442 191.936 98.8572C189.645 101.685 187.354 104.659 184.867 107.389C177.213 115.774 167.755 121.381 157.03 124.306C151.667 125.768 145.963 126.353 140.405 126.451C124.561 126.743 108.717 126.548 92.8723 126.548C92.2385 126.646 91.6047 126.548 90.9709 126.5Z" fill="#EB1C22"/>
<path d="M250 1.20312V35.9633C241.663 36.402 234.692 39.7172 229.378 46.1524C225.429 50.9301 223.528 56.5366 223.138 62.8743C222.357 75.2573 231.913 91.1017 249.951 91.9792V126.301C235.13 127.227 213.387 119.28 200.273 100.072C185.306 78.2312 186.135 50.0526 198.567 30.503C210.56 11.5873 227.818 2.08066 250 1.20312Z" fill="#012F6A"/>
<path d="M121.441 56.4415H87.3634C85.072 47.8611 79.9531 41.6696 72.2015 37.867C66.595 35.1369 60.6473 34.7956 54.6021 36.1119C43.1454 38.5983 34.0287 50.445 33.8337 63.023C33.6387 75.1622 42.1703 86.7652 53.9683 89.9828C61.0373 91.8842 68.0088 91.1529 74.3954 87.3015C80.6356 83.5476 84.9258 78.0874 87.1196 70.9696H121.246C120.222 92.3229 101.355 121.282 68.3501 125.328C33.1024 129.667 1.75495 102.561 0.0973807 66.2406C-1.65769 29.4817 26.7647 -0.257038 62.8411 0.620497C97.2113 1.49803 119.978 30.603 121.441 56.4415Z" fill="#012F6A"/>
</g>
<defs>
<filter id="filter0_d_1035_31488" x="-1.92981" y="0.601562" width="253.88" height="129.912" filterUnits="userSpaceOnUse" color-interpolation-filters="sRGB">
<feFlood flood-opacity="0" result="BackgroundImageFix"/>
<feColorMatrix in="SourceAlpha" type="matrix" values="0 0 0 0 0 0 0 0 0 0 0 0 0 0 0 0 0 0 127 0" result="hardAlpha"/>
<feOffset dy="1.95008"/>
<feGaussianBlur stdDeviation="0.975039"/>
<feComposite in2="hardAlpha" operator="out"/>
<feColorMatrix type="matrix" values="0 0 0 0 0 0 0 0 0 0 0 0 0 0 0 0 0 0 0.25 0"/>
<feBlend mode="normal" in2="BackgroundImageFix" result="effect1_dropShadow_1035_31488"/>
<feBlend mode="normal" in="SourceGraphic" in2="effect1_dropShadow_1035_31488" result="shape"/>
</filter>
</defs>
</svg>