<svg width="813" height="421" viewBox="0 0 813 421" fill="none" xmlns="http://www.w3.org/2000/svg">
<g filter="url(#filter0_di_983_23202)">
<path d="M404.965 180.655L327.701 102.62L334.189 41.75L437.054 146.222C456.809 166.286 457.163 198.38 437.854 218.874L320.724 343.198L295.211 302.672L405.028 187.847C405.945 186.887 406.457 185.611 406.457 184.283C406.457 182.924 405.921 181.621 404.965 180.655Z" fill="url(#paint0_linear_983_23202)"/>
<path d="M320.742 343.178C296.339 361.685 270.336 369.372 239.942 373.143C209.548 376.913 178.697 372.588 150.512 360.605C122.327 348.621 97.8067 329.405 79.4339 304.901C61.061 280.397 49.4872 251.474 45.8835 221.06C42.2798 190.646 46.7742 159.819 58.9119 131.7C71.0496 103.581 90.3998 79.1666 115.004 60.9284C139.609 42.6902 168.595 31.2751 199.028 27.8383C229.462 24.4015 260.263 29.0649 288.316 41.3566L268.89 85.6889C248.648 76.8191 226.421 73.4539 204.46 75.934C182.498 78.414 161.582 86.6513 143.827 99.8121C126.072 112.973 112.109 130.59 103.35 150.882C94.5914 171.173 91.3482 193.418 93.9486 215.365C96.5491 237.312 104.901 258.183 118.159 275.866C131.417 293.548 149.111 307.415 169.45 316.062C189.789 324.709 212.051 327.83 233.984 325.11C255.916 322.389 277.892 315.809 295.501 302.454L320.742 343.178Z" fill="url(#paint1_linear_983_23202)"/>
<path d="M442.786 367.63C412.687 373.291 366.212 364.067 337.334 353.868L368.867 315.062C389.706 322.423 412.12 324.147 433.84 320.062C455.56 315.977 475.815 306.227 492.556 291.798C509.297 277.37 521.93 258.775 529.176 237.896L553.538 295.813C545.199 307.843 535.339 318.823 524.155 328.462C500.955 348.457 472.886 361.968 442.786 367.63Z" fill="url(#paint2_linear_983_23202)"/>
<path d="M466.749 32.1999C495.738 42.0823 521.602 59.4469 541.723 82.5365C545.951 87.3876 549.894 92.4553 553.538 97.7133C567.241 117.481 576.735 139.939 581.337 163.689C582.818 171.335 584.224 178.697 584.224 186.77C584.224 186.77 583.763 200.621 584.301 207.281L535.787 207.278C536.36 200.464 536.258 193.605 535.712 186.77C535.341 182.127 534.71 177.496 533.819 172.897C532.68 167.018 531.126 161.249 529.176 155.63C523.929 140.512 515.82 126.483 505.234 114.336C490.714 97.6741 472.05 85.1436 451.131 78.0124C430.213 70.8812 407.781 69.4023 386.108 73.7255C364.434 78.0487 344.286 88.0204 327.704 102.632L295.705 66.317C318.684 46.0689 346.604 32.2502 376.64 26.2592C406.675 20.2682 437.76 22.3176 466.749 32.1999Z" fill="url(#paint3_linear_983_23202)"/>
<path d="M677.207 367.936C707.306 373.597 753.781 364.374 782.66 354.174L751.126 315.369C730.287 322.729 707.874 324.454 686.154 320.369C664.434 316.284 644.178 306.534 627.437 292.105C610.696 277.677 598.063 259.082 590.817 238.203C587.335 228.167 585.156 217.775 584.299 207.279C584.299 207.279 535.803 191.359 535.782 207.279C535.76 223.198 539.83 238.91 545.091 254.071C555.132 283.005 572.639 308.774 595.838 328.769C619.038 348.763 647.108 362.275 677.207 367.936Z" fill="url(#paint4_linear_983_23202)"/>
<g filter="url(#filter1_i_983_23202)">
<path d="M345.711 159.059C357.28 159.059 366.658 168.437 366.658 180.006V184.195H341.521V159.059H345.711Z" fill="url(#paint5_linear_983_23202)"/>
</g>
<g filter="url(#filter2_i_983_23202)">
<path d="M333.136 159.059V184.195H307.999V159.059H333.136Z" fill="url(#paint6_linear_983_23202)"/>
</g>
<g filter="url(#filter3_i_983_23202)">
<path d="M333.136 194.67V219.807H307.999V194.67H333.136Z" fill="url(#paint7_linear_983_23202)"/>
</g>
<g filter="url(#filter4_i_983_23202)">
<path d="M345.711 219.797C357.28 219.797 366.658 210.418 366.658 198.85V194.66H341.521V219.797H345.711Z" fill="url(#paint8_linear_983_23202)"/>
</g>
<path d="M677.037 23.9246C707.137 18.2634 753.611 27.4867 782.49 37.6865L750.957 76.4918C730.118 69.1316 707.704 67.4067 685.984 71.4919C664.264 75.577 644.009 85.3272 627.267 99.7557C610.526 114.184 597.894 132.779 590.648 153.658L566.285 95.7416C574.624 83.7115 584.485 72.731 595.669 63.0922C618.868 43.0974 646.938 29.5857 677.037 23.9246Z" fill="url(#paint9_linear_983_23202)"/>
</g>
<defs>
<filter id="filter0_di_983_23202" x="44.6758" y="22.1992" width="767.434" height="366.681" filterUnits="userSpaceOnUse" color-interpolation-filters="sRGB">
<feFlood flood-opacity="0" result="BackgroundImageFix"/>
<feColorMatrix in="SourceAlpha" type="matrix" values="0 0 0 0 0 0 0 0 0 0 0 0 0 0 0 0 0 0 127 0" result="hardAlpha"/>
<feOffset dx="12.6132" dy="7.20752"/>
<feGaussianBlur stdDeviation="3.60376"/>
<feComposite in2="hardAlpha" operator="out"/>
<feColorMatrix type="matrix" values="0 0 0 0 0 0 0 0 0 0 0 0 0 0 0 0 0 0 0.25 0"/>
<feBlend mode="normal" in2="BackgroundImageFix" result="effect1_dropShadow_983_23202"/>
<feBlend mode="normal" in="SourceGraphic" in2="effect1_dropShadow_983_23202" result="shape"/>
<feColorMatrix in="SourceAlpha" type="matrix" values="0 0 0 0 0 0 0 0 0 0 0 0 0 0 0 0 0 0 127 0" result="hardAlpha"/>
<feOffset dy="7.20752"/>
<feGaussianBlur stdDeviation="3.60376"/>
<feComposite in2="hardAlpha" operator="arithmetic" k2="-1" k3="1"/>
<feColorMatrix type="matrix" values="0 0 0 0 0 0 0 0 0 0 0 0 0 0 0 0 0 0 0.25 0"/>
<feBlend mode="normal" in2="shape" result="effect2_innerShadow_983_23202"/>
</filter>
<filter id="filter1_i_983_23202" x="341.521" y="159.059" width="25.1367" height="33.5156" filterUnits="userSpaceOnUse" color-interpolation-filters="sRGB">
<feFlood flood-opacity="0" result="BackgroundImageFix"/>
<feBlend mode="normal" in="SourceGraphic" in2="BackgroundImageFix" result="shape"/>
<feColorMatrix in="SourceAlpha" type="matrix" values="0 0 0 0 0 0 0 0 0 0 0 0 0 0 0 0 0 0 127 0" result="hardAlpha"/>
<feOffset dy="8.37892"/>
<feGaussianBlur stdDeviation="4.18946"/>
<feComposite in2="hardAlpha" operator="arithmetic" k2="-1" k3="1"/>
<feColorMatrix type="matrix" values="0 0 0 0 0 0 0 0 0 0 0 0 0 0 0 0 0 0 0.25 0"/>
<feBlend mode="normal" in2="shape" result="effect1_innerShadow_983_23202"/>
</filter>
<filter id="filter2_i_983_23202" x="307.999" y="159.059" width="25.1367" height="33.5156" filterUnits="userSpaceOnUse" color-interpolation-filters="sRGB">
<feFlood flood-opacity="0" result="BackgroundImageFix"/>
<feBlend mode="normal" in="SourceGraphic" in2="BackgroundImageFix" result="shape"/>
<feColorMatrix in="SourceAlpha" type="matrix" values="0 0 0 0 0 0 0 0 0 0 0 0 0 0 0 0 0 0 127 0" result="hardAlpha"/>
<feOffset dy="8.37892"/>
<feGaussianBlur stdDeviation="4.18946"/>
<feComposite in2="hardAlpha" operator="arithmetic" k2="-1" k3="1"/>
<feColorMatrix type="matrix" values="0 0 0 0 0 0 0 0 0 0 0 0 0 0 0 0 0 0 0.25 0"/>
<feBlend mode="normal" in2="shape" result="effect1_innerShadow_983_23202"/>
</filter>
<filter id="filter3_i_983_23202" x="307.999" y="194.67" width="25.1367" height="33.5156" filterUnits="userSpaceOnUse" color-interpolation-filters="sRGB">
<feFlood flood-opacity="0" result="BackgroundImageFix"/>
<feBlend mode="normal" in="SourceGraphic" in2="BackgroundImageFix" result="shape"/>
<feColorMatrix in="SourceAlpha" type="matrix" values="0 0 0 0 0 0 0 0 0 0 0 0 0 0 0 0 0 0 127 0" result="hardAlpha"/>
<feOffset dy="8.37892"/>
<feGaussianBlur stdDeviation="4.18946"/>
<feComposite in2="hardAlpha" operator="arithmetic" k2="-1" k3="1"/>
<feColorMatrix type="matrix" values="0 0 0 0 0 0 0 0 0 0 0 0 0 0 0 0 0 0 0.25 0"/>
<feBlend mode="normal" in2="shape" result="effect1_innerShadow_983_23202"/>
</filter>
<filter id="filter4_i_983_23202" x="341.521" y="194.66" width="25.1367" height="33.5156" filterUnits="userSpaceOnUse" color-interpolation-filters="sRGB">
<feFlood flood-opacity="0" result="BackgroundImageFix"/>
<feBlend mode="normal" in="SourceGraphic" in2="BackgroundImageFix" result="shape"/>
<feColorMatrix in="SourceAlpha" type="matrix" values="0 0 0 0 0 0 0 0 0 0 0 0 0 0 0 0 0 0 127 0" result="hardAlpha"/>
<feOffset dy="8.37892"/>
<feGaussianBlur stdDeviation="4.18946"/>
<feComposite in2="hardAlpha" operator="arithmetic" k2="-1" k3="1"/>
<feColorMatrix type="matrix" values="0 0 0 0 0 0 0 0 0 0 0 0 0 0 0 0 0 0 0.25 0"/>
<feBlend mode="normal" in2="shape" result="effect1_innerShadow_983_23202"/>
</filter>
<linearGradient id="paint0_linear_983_23202" x1="403.241" y1="-106.695" x2="435.334" y2="419.11" gradientUnits="userSpaceOnUse">
<stop stop-color="#003DFF"/>
<stop offset="1" stop-color="#47704C"/>
</linearGradient>
<linearGradient id="paint1_linear_983_23202" x1="55.3785" y1="-109.699" x2="215.501" y2="477.605" gradientUnits="userSpaceOnUse">
<stop stop-color="#003DFF"/>
<stop offset="1" stop-color="#47704C"/>
</linearGradient>
<linearGradient id="paint2_linear_983_23202" x1="471.602" y1="-147.562" x2="497.587" y2="457.364" gradientUnits="userSpaceOnUse">
<stop stop-color="#003DFF"/>
<stop offset="1" stop-color="#47704C"/>
</linearGradient>
<linearGradient id="paint3_linear_983_23202" x1="471.602" y1="-147.562" x2="497.587" y2="457.364" gradientUnits="userSpaceOnUse">
<stop stop-color="#003DFF"/>
<stop offset="1" stop-color="#47704C"/>
</linearGradient>
<linearGradient id="paint4_linear_983_23202" x1="648.39" y1="-147.255" x2="622.405" y2="457.671" gradientUnits="userSpaceOnUse">
<stop stop-color="#003DFF"/>
<stop offset="1" stop-color="#47704C"/>
</linearGradient>
<linearGradient id="paint5_linear_983_23202" x1="356.831" y1="146.691" x2="358.403" y2="190.605" gradientUnits="userSpaceOnUse">
<stop stop-color="#003DFF"/>
<stop offset="1" stop-color="#47704C"/>
</linearGradient>
<linearGradient id="paint6_linear_983_23202" x1="323.308" y1="146.691" x2="324.881" y2="190.605" gradientUnits="userSpaceOnUse">
<stop stop-color="#003DFF"/>
<stop offset="1" stop-color="#47704C"/>
</linearGradient>
<linearGradient id="paint7_linear_983_23202" x1="323.308" y1="182.302" x2="324.881" y2="226.217" gradientUnits="userSpaceOnUse">
<stop stop-color="#003DFF"/>
<stop offset="1" stop-color="#47704C"/>
</linearGradient>
<linearGradient id="paint8_linear_983_23202" x1="356.831" y1="232.165" x2="358.403" y2="188.25" gradientUnits="userSpaceOnUse">
<stop stop-color="#003DFF"/>
<stop offset="1" stop-color="#47704C"/>
</linearGradient>
<linearGradient id="paint9_linear_983_23202" x1="645.285" y1="69.6982" x2="1182.15" y2="113.302" gradientUnits="userSpaceOnUse">
<stop stop-color="#184FC4"/>
<stop offset="1" stop-color="#47704C"/>
</linearGradient>
</defs>
</svg>
