<svg width="3617" height="3041" viewBox="0 0 3617 3041" fill="none" xmlns="http://www.w3.org/2000/svg">
<path d="M2692.78 1650.67C2706.93 1650.67 2718.41 1662.15 2718.41 1676.31V2172.55L2636.36 2107.26C2645.71 2103.43 2652.3 2094.25 2652.3 2083.52V1676.31C2652.3 1662.15 2663.78 1650.67 2677.93 1650.67H2692.78ZM1510.42 858.84C1527.5 849.642 1548.21 862.011 1548.21 881.409V1579.34C1548.21 1593.5 1536.73 1604.97 1522.57 1604.97H1507.73C1493.57 1604.97 1482.09 1593.5 1482.09 1579.34V1128.03C1482.09 1109.44 1462.91 1097.03 1445.95 1104.65L1061.4 1277.45C1052.2 1281.58 1046.27 1290.74 1046.27 1300.83V2032.18L890.439 2165.08V1208.05C890.439 1198.62 895.616 1189.95 903.918 1185.48L1510.42 858.84ZM2167.56 3.84668C2184.64 -6.66903 2206.63 5.61791 2206.63 25.6748V857.983L2678.68 547.231C2695.73 536.011 2718.41 548.236 2718.41 568.643V1432.34C2718.41 1446.5 2706.93 1457.98 2692.78 1457.98H2677.93C2663.78 1457.98 2652.3 1446.5 2652.3 1432.34V869.893C2652.3 850.402 2631.41 838.042 2614.32 847.425L2229.77 1058.64C2221.58 1063.14 2216.48 1071.75 2216.48 1081.11V1773.15L2196.65 1757.37C2185.28 1748.32 2169.12 1748.47 2157.91 1757.73L2060.65 1838.08V967.903C2060.65 959.28 2064.98 951.234 2072.18 946.492L2126.98 910.422L2126.81 306.454C2126.8 287.448 2106.84 275.057 2089.8 283.485L1716.25 468.318C1707.51 472.641 1701.98 481.546 1701.98 491.294V1899.81L1548.87 1778.17V399.098C1548.87 390.198 1553.48 381.936 1561.06 377.27L2167.56 3.84668Z" fill="url(#paint0_linear_1353_314)"/>
<path d="M1413.55 1994.05H1349.37C1343.71 1994.05 1339.11 1998.64 1339.11 2004.3V2060.77C1339.11 2066.43 1343.7 2071.02 1349.37 2071.02H1413.55C1419.21 2071.02 1423.8 2066.43 1423.8 2060.77V2004.3C1423.8 1998.64 1419.21 1994.05 1413.55 1994.05Z" fill="#5649F0"/>
<path d="M1541.16 1994.05H1476.98C1471.32 1994.05 1466.73 1998.64 1466.73 2004.3V2060.77C1466.73 2066.43 1471.32 2071.02 1476.98 2071.02H1541.16C1546.82 2071.02 1551.41 2066.43 1551.41 2060.77V2004.3C1551.41 1998.64 1546.82 1994.05 1541.16 1994.05Z" fill="#5649F0"/>
<path d="M1413.55 2102.23H1349.37C1343.71 2102.23 1339.11 2106.83 1339.11 2112.49V2168.96C1339.11 2174.62 1343.7 2179.21 1349.37 2179.21H1413.55C1419.21 2179.21 1423.8 2174.62 1423.8 2168.96V2112.49C1423.8 2106.83 1419.21 2102.23 1413.55 2102.23Z" fill="#5649F0"/>
<path d="M1541.16 2102.23H1476.98C1471.32 2102.23 1466.73 2106.83 1466.73 2112.49V2168.96C1466.73 2174.62 1471.32 2179.21 1476.98 2179.21H1541.16C1546.82 2179.21 1551.41 2174.62 1551.41 2168.96V2112.49C1551.41 2106.83 1546.82 2102.23 1541.16 2102.23Z" fill="#5649F0"/>
<path d="M2157.51 2019.7H2119.19C2113.53 2019.7 2108.94 2024.29 2108.94 2029.96V2062.92C2108.94 2068.58 2113.53 2073.17 2119.19 2073.17H2157.51C2163.18 2073.17 2167.77 2068.58 2167.77 2062.92V2029.96C2167.77 2024.29 2163.18 2019.7 2157.51 2019.7Z" fill="#5649F0"/>
<path d="M2246.16 2019.7H2207.84C2202.18 2019.7 2197.59 2024.29 2197.59 2029.96V2062.92C2197.59 2068.58 2202.18 2073.17 2207.84 2073.17H2246.16C2251.82 2073.17 2256.42 2068.58 2256.42 2062.92V2029.96C2256.42 2024.29 2251.82 2019.7 2246.16 2019.7Z" fill="#5649F0"/>
<path d="M2157.51 2094.86H2119.19C2113.53 2094.86 2108.94 2099.45 2108.94 2105.11V2138.08C2108.94 2143.74 2113.53 2148.33 2119.19 2148.33H2157.51C2163.18 2148.33 2167.77 2143.74 2167.77 2138.08V2105.11C2167.77 2099.45 2163.18 2094.86 2157.51 2094.86Z" fill="#5649F0"/>
<path d="M2246.16 2094.86H2207.84C2202.18 2094.86 2197.59 2099.45 2197.59 2105.11V2138.08C2197.59 2143.74 2202.18 2148.33 2207.84 2148.33H2246.16C2251.82 2148.33 2256.42 2143.74 2256.42 2138.08V2105.11C2256.42 2099.45 2251.82 2094.86 2246.16 2094.86Z" fill="#5649F0"/>
<path d="M2767.57 2205.06C2761.51 2204.55 2755.75 2202.25 2751 2198.47L2196.65 1757.37C2185.28 1748.32 2169.11 1748.46 2157.91 1757.72L1865.93 1998.92C1854.73 2008.18 1838.58 2008.33 1827.2 1999.29L1462.7 1709.71C1451.18 1700.55 1434.8 1700.84 1423.6 1710.38L850.502 2199.13C845.609 2203.3 839.532 2205.83 833.124 2206.37L0 2276.58H759.683H930.005C931.342 2276.58 932.635 2276.1 933.656 2275.24L1426.39 1859.01C1437.77 1849.4 1454.41 1849.32 1465.88 1858.83L1961.09 2269.49C1966.61 2274.07 1973.55 2276.58 1980.72 2276.58H2078.4C2107.28 2276.58 2120.24 2240.36 2097.91 2222.04L1961.8 2110.33C1946.83 2098.05 1946.8 2075.16 1961.72 2062.83L2161.3 1898.02C2172.42 1888.84 2188.42 1888.61 2199.79 1897.47L2678 2270.08C2683.4 2274.29 2690.05 2276.58 2696.9 2276.58H2849.15H3616.34L2767.57 2205.06Z" fill="url(#paint1_linear_1353_314)"/>
<path d="M457.149 2722.96C408.039 2722.96 374.369 2711.06 356.14 2687.25C338.047 2663.31 329 2628.55 329 2582.98C329 2537.13 338.047 2502.44 356.14 2478.9C374.369 2455.23 407.971 2443.4 456.945 2443.4C506.328 2443.4 539.249 2454.62 555.71 2477.07C572.171 2499.51 580.401 2526.11 580.401 2556.86H510.001C510.001 2530.46 505.376 2512.85 496.125 2504C487.01 2495.03 473.814 2490.54 456.537 2490.54C438.988 2490.54 425.044 2495.71 414.705 2506.04C404.366 2516.25 399.197 2541.89 399.197 2582.98C399.197 2624.2 404.366 2649.97 414.705 2660.31C425.044 2670.65 438.988 2675.82 456.537 2675.82C473.678 2675.82 486.874 2671.26 496.125 2662.15C505.376 2652.9 510.001 2635.35 510.001 2609.5H580.401C580.401 2639.43 572.103 2665.82 555.506 2688.68C539.045 2711.53 506.26 2722.96 457.149 2722.96Z" fill="#FC5130"/>
<path d="M613.74 2721.33V2445.85H755.357C793.584 2445.85 820.248 2456.05 835.348 2476.46C850.585 2496.86 858.203 2532.5 858.203 2583.38C858.203 2634.4 850.585 2670.18 835.348 2690.72C820.112 2711.12 793.448 2721.33 755.357 2721.33H613.74ZM683.12 2674.19H736.584C754.405 2674.19 767.533 2669.29 775.967 2659.5C784.538 2649.7 788.823 2624.33 788.823 2583.38C788.823 2542.57 784.538 2517.34 775.967 2507.68C767.533 2497.88 754.405 2492.98 736.584 2492.98H683.12V2674.19Z" fill="#FC5130"/>
<path d="M1008.75 2722.96C959.638 2722.96 925.968 2711.06 907.738 2687.25C889.645 2663.31 880.599 2628.55 880.599 2582.98C880.599 2537.13 889.645 2502.44 907.738 2478.9C925.968 2455.23 959.57 2443.4 1008.54 2443.4C1057.93 2443.4 1090.85 2454.62 1107.31 2477.07C1123.77 2499.51 1132 2526.11 1132 2556.86H1061.6C1061.6 2530.46 1056.97 2512.85 1047.72 2504C1038.61 2495.03 1025.41 2490.54 1008.14 2490.54C990.587 2490.54 976.643 2495.71 966.304 2506.04C955.965 2516.25 950.795 2541.89 950.795 2582.98C950.795 2624.2 955.965 2649.97 966.304 2660.31C976.643 2670.65 990.587 2675.82 1008.14 2675.82C1025.28 2675.82 1038.47 2671.26 1047.72 2662.15C1056.97 2652.9 1061.6 2635.35 1061.6 2609.5H1132C1132 2639.43 1123.7 2665.82 1107.1 2688.68C1090.64 2711.53 1057.86 2722.96 1008.75 2722.96Z" fill="#FC5130"/>
<path d="M1337.8 2498.3V2609.91H1393.61C1401.26 2609.91 1408.45 2608.49 1415.19 2605.63C1421.93 2602.65 1427.83 2598.63 1432.88 2593.58C1437.94 2588.52 1441.89 2582.63 1444.75 2575.89C1447.73 2569.02 1449.22 2561.76 1449.22 2554.11C1449.22 2546.46 1447.73 2539.27 1444.75 2532.53C1441.89 2525.66 1437.94 2519.69 1432.88 2514.64C1427.83 2509.58 1421.93 2505.63 1415.19 2502.78C1408.45 2499.79 1401.26 2498.3 1393.61 2498.3H1337.8ZM1337.8 2721.33H1282V2442.5H1393.61C1403.85 2442.5 1413.7 2443.86 1423.16 2446.58C1432.63 2449.18 1441.44 2452.93 1449.61 2457.86C1457.9 2462.66 1465.42 2468.49 1472.16 2475.36C1479.03 2482.1 1484.86 2489.62 1489.66 2497.92C1494.59 2506.21 1498.35 2515.09 1500.94 2524.55C1503.66 2534.02 1505.02 2543.87 1505.02 2554.11C1505.02 2569.4 1502.11 2583.86 1496.27 2597.47C1490.44 2610.95 1482.47 2622.75 1472.36 2632.86C1462.25 2642.97 1450.38 2650.94 1436.77 2656.77C1423.29 2662.61 1408.9 2665.52 1393.61 2665.52H1337.8V2721.33Z" fill="#FC5130"/>
<path d="M1593.69 2498.3V2609.91H1649.49C1657.14 2609.91 1664.33 2608.49 1671.07 2605.63C1677.81 2602.65 1683.71 2598.63 1688.77 2593.58C1693.82 2588.52 1697.78 2582.63 1700.63 2575.89C1703.61 2569.02 1705.1 2561.76 1705.1 2554.11C1705.1 2546.46 1703.61 2539.27 1700.63 2532.53C1697.78 2525.66 1693.82 2519.69 1688.77 2514.64C1683.71 2509.58 1677.81 2505.63 1671.07 2502.78C1664.33 2499.79 1657.14 2498.3 1649.49 2498.3H1593.69ZM1593.69 2721.33H1537.88V2442.5H1649.49C1659.73 2442.5 1669.58 2443.86 1679.04 2446.58C1688.51 2449.18 1697.32 2452.93 1705.49 2457.86C1713.78 2462.66 1721.3 2468.49 1728.04 2475.36C1734.91 2482.1 1740.75 2489.62 1745.54 2497.92C1750.47 2506.21 1754.23 2515.09 1756.82 2524.55C1759.54 2534.02 1760.9 2543.87 1760.9 2554.11C1760.9 2563.7 1759.67 2573.03 1757.21 2582.11C1754.88 2591.18 1751.44 2599.8 1746.9 2607.97C1742.5 2616.13 1737.05 2623.65 1730.57 2630.52C1724.09 2637.39 1716.83 2643.36 1708.79 2648.41L1739.71 2721.33H1680.41L1656.1 2665.13L1593.69 2665.52V2721.33Z" fill="#FC5130"/>
<path d="M2070.84 2583.08C2070.84 2596.3 2069.09 2609.07 2065.59 2621.38C2062.22 2633.57 2057.42 2645.04 2051.2 2655.8C2044.98 2666.43 2037.46 2676.15 2028.65 2684.97C2019.83 2693.78 2010.11 2701.36 1999.48 2707.71C1988.85 2713.94 1977.38 2718.73 1965.06 2722.1C1952.75 2725.6 1939.98 2727.35 1926.76 2727.35C1913.54 2727.35 1900.77 2725.6 1888.46 2722.1C1876.27 2718.73 1864.8 2713.94 1854.04 2707.71C1843.41 2701.36 1833.69 2693.78 1824.87 2684.97C1816.06 2676.15 1808.48 2666.43 1802.12 2655.8C1795.9 2645.04 1791.04 2633.57 1787.54 2621.38C1784.17 2609.07 1782.49 2596.3 1782.49 2583.08C1782.49 2569.86 1784.17 2557.09 1787.54 2544.77C1791.04 2532.46 1795.9 2520.99 1802.12 2510.36C1808.48 2499.73 1816.06 2490.01 1824.87 2481.19C1833.69 2472.38 1843.41 2464.86 1854.04 2458.64C1864.8 2452.42 1876.27 2447.62 1888.46 2444.25C1900.77 2440.75 1913.54 2439 1926.76 2439C1939.98 2439 1952.75 2440.75 1965.06 2444.25C1977.38 2447.62 1988.85 2452.42 1999.48 2458.64C2010.11 2464.86 2019.83 2472.38 2028.65 2481.19C2037.46 2490.01 2044.98 2499.73 2051.2 2510.36C2057.42 2520.99 2062.22 2532.46 2065.59 2544.77C2069.09 2557.09 2070.84 2569.86 2070.84 2583.08ZM2015.42 2583.08C2015.42 2570.89 2013.09 2559.42 2008.42 2548.66C2003.76 2537.78 1997.41 2528.38 1989.37 2520.47C1981.46 2512.43 1972.06 2506.08 1961.18 2501.41C1950.42 2496.75 1938.95 2494.42 1926.76 2494.42C1914.45 2494.42 1902.91 2496.75 1892.15 2501.41C1881.39 2506.08 1871.99 2512.43 1863.96 2520.47C1855.92 2528.38 1849.57 2537.78 1844.9 2548.66C1840.23 2559.42 1837.9 2570.89 1837.9 2583.08C1837.9 2595.26 1840.23 2606.74 1844.9 2617.5C1849.57 2628.12 1855.92 2637.46 1863.96 2645.49C1871.99 2653.53 1881.39 2659.88 1892.15 2664.55C1902.91 2669.22 1914.45 2671.55 1926.76 2671.55C1938.95 2671.55 1950.42 2669.22 1961.18 2664.55C1972.06 2659.88 1981.46 2653.53 1989.37 2645.49C1997.41 2637.46 2003.76 2628.12 2008.42 2617.5C2013.09 2606.74 2015.42 2595.26 2015.42 2583.08Z" fill="#FC5130"/>
<path d="M2163.39 2498.3V2609.91H2219.2C2226.84 2609.91 2234.04 2608.49 2240.78 2605.63C2247.52 2602.65 2253.42 2598.63 2258.47 2593.58C2263.53 2588.52 2267.48 2582.63 2270.33 2575.89C2273.32 2569.02 2274.81 2561.76 2274.81 2554.11C2274.81 2546.46 2273.32 2539.27 2270.33 2532.53C2267.48 2525.66 2263.53 2519.69 2258.47 2514.64C2253.42 2509.58 2247.52 2505.63 2240.78 2502.78C2234.04 2499.79 2226.84 2498.3 2219.2 2498.3H2163.39ZM2163.39 2721.33H2107.59V2442.5H2219.2C2229.44 2442.5 2239.29 2443.86 2248.75 2446.58C2258.21 2449.18 2267.03 2452.93 2275.2 2457.86C2283.49 2462.66 2291.01 2468.49 2297.75 2475.36C2304.62 2482.1 2310.45 2489.62 2315.25 2497.92C2320.18 2506.21 2323.93 2515.09 2326.53 2524.55C2329.25 2534.02 2330.61 2543.87 2330.61 2554.11C2330.61 2569.4 2327.69 2583.86 2321.86 2597.47C2316.03 2610.95 2308.06 2622.75 2297.94 2632.86C2287.83 2642.97 2275.97 2650.94 2262.36 2656.77C2248.88 2662.61 2234.49 2665.52 2219.2 2665.52H2163.39V2721.33Z" fill="#FC5130"/>
<path d="M2554.6 2721.33H2363.47V2442.5H2554.6V2498.3H2419.28V2554.11H2510.86V2609.91H2419.28V2665.52H2554.6V2721.33Z" fill="#FC5130"/>
<path d="M2649.49 2498.3V2609.91H2705.29C2712.94 2609.91 2720.14 2608.49 2726.88 2605.63C2733.62 2602.65 2739.52 2598.63 2744.57 2593.58C2749.63 2588.52 2753.58 2582.63 2756.43 2575.89C2759.41 2569.02 2760.9 2561.76 2760.9 2554.11C2760.9 2546.46 2759.41 2539.27 2756.43 2532.53C2753.58 2525.66 2749.63 2519.69 2744.57 2514.64C2739.52 2509.58 2733.62 2505.63 2726.88 2502.78C2720.14 2499.79 2712.94 2498.3 2705.29 2498.3H2649.49ZM2649.49 2721.33H2593.69V2442.5H2705.29C2715.54 2442.5 2725.39 2443.86 2734.85 2446.58C2744.31 2449.18 2753.13 2452.93 2761.29 2457.86C2769.59 2462.66 2777.11 2468.49 2783.85 2475.36C2790.72 2482.1 2796.55 2489.62 2801.35 2497.92C2806.27 2506.21 2810.03 2515.09 2812.63 2524.55C2815.35 2534.02 2816.71 2543.87 2816.71 2554.11C2816.71 2563.7 2815.48 2573.03 2813.01 2582.11C2810.68 2591.18 2807.25 2599.8 2802.71 2607.97C2798.3 2616.13 2792.86 2623.65 2786.38 2630.52C2779.89 2637.39 2772.64 2643.36 2764.6 2648.41L2795.51 2721.33H2736.21L2711.91 2665.13L2649.49 2665.52V2721.33Z" fill="#FC5130"/>
<path d="M2965.45 2721.33H2909.85V2498.3H2826.04V2442.5H3049.06V2498.3H2965.45V2721.33Z" fill="#FC5130"/>
<path d="M3204.03 2721.33H3148.42V2634.02C3136.11 2630.91 3124.77 2625.92 3114.4 2619.05C3104.15 2612.18 3095.34 2604.01 3087.95 2594.55C3080.56 2584.96 3074.79 2574.39 3070.65 2562.86C3066.63 2551.19 3064.62 2538.94 3064.62 2526.11V2442.5H3120.42V2526.11C3120.42 2533.76 3121.85 2541.02 3124.7 2547.89C3127.68 2554.63 3131.7 2560.52 3136.76 2565.58C3141.81 2570.64 3147.71 2574.65 3154.45 2577.64C3161.32 2580.49 3168.58 2581.91 3176.23 2581.91C3183.87 2581.91 3191.07 2580.49 3197.81 2577.64C3204.68 2574.65 3210.64 2570.64 3215.7 2565.58C3220.75 2560.52 3224.71 2554.63 3227.56 2547.89C3230.54 2541.02 3232.03 2533.76 3232.03 2526.11V2442.5H3287.64V2526.11C3287.64 2538.94 3285.57 2551.19 3281.42 2562.86C3277.4 2574.39 3271.7 2584.96 3264.31 2594.55C3256.92 2604.01 3248.1 2612.18 3237.86 2619.05C3227.62 2625.92 3216.35 2630.91 3204.03 2634.02V2721.33Z" fill="#FC5130"/>
<path d="M860.877 2986.49V2831.24H906.532L944.137 2959.12H944.597L982.087 2831.24H1027.74V2986.49H1000.03V2850.67H999.452L960.927 2979.24H927.692L889.167 2850.67H888.707V2986.49H860.877Z" fill="#121212" fill-opacity="0.7"/>
<path d="M1099.05 2987.75C1091.62 2987.75 1084.91 2987.1 1078.93 2985.8C1073.03 2984.49 1067.93 2982.31 1063.63 2979.24C1059.42 2976.1 1056.16 2971.84 1053.86 2966.48C1051.64 2961.11 1050.52 2954.36 1050.52 2946.24C1050.52 2938.49 1051.6 2932.05 1053.74 2926.92C1055.97 2921.7 1059.15 2917.56 1063.29 2914.5C1067.43 2911.43 1072.49 2909.25 1078.47 2907.94C1084.45 2906.56 1091.2 2905.87 1098.71 2905.87H1142.75V2898.86C1142.75 2891.42 1141.49 2885.44 1138.96 2880.92C1136.43 2876.32 1132.79 2872.98 1128.03 2870.91C1123.36 2868.84 1117.76 2867.81 1111.24 2867.81C1105.72 2867.81 1100.74 2868.73 1096.29 2870.57C1091.92 2872.41 1088.24 2875.44 1085.25 2879.65C1082.26 2883.87 1080.23 2889.47 1079.16 2896.44L1051.9 2889.08C1053.21 2881.72 1055.62 2875.47 1059.15 2870.34C1062.75 2865.2 1067.16 2861.06 1072.37 2857.92C1077.66 2854.77 1083.57 2852.47 1090.08 2851.02C1096.68 2849.56 1103.69 2848.83 1111.13 2848.83C1123.93 2848.83 1134.74 2850.56 1143.56 2854.01C1152.45 2857.46 1159.2 2862.94 1163.8 2870.45C1168.4 2877.89 1170.7 2887.82 1170.7 2900.24V2986.49H1147.47L1145.17 2969.7C1144.1 2971.69 1142.29 2973.72 1139.76 2975.79C1137.23 2977.86 1134.01 2979.82 1130.1 2981.66C1126.19 2983.5 1121.63 2984.99 1116.42 2986.14C1111.28 2987.22 1105.49 2987.75 1099.05 2987.75ZM1105.15 2969.7C1111.67 2969.7 1117.45 2968.93 1122.51 2967.4C1127.57 2965.79 1131.79 2963.76 1135.16 2961.3C1138.61 2958.77 1141.03 2956.17 1142.41 2953.48V2921.28H1105.26C1101.51 2921.28 1097.98 2921.63 1094.68 2922.32C1091.46 2922.93 1088.67 2924.08 1086.29 2925.77C1083.91 2927.45 1082.03 2929.91 1080.65 2933.13C1079.35 2936.27 1078.7 2940.33 1078.7 2945.32C1078.7 2950.3 1079.35 2954.36 1080.65 2957.51C1082.03 2960.65 1083.91 2963.1 1086.29 2964.87C1088.74 2966.63 1091.58 2967.9 1094.8 2968.66C1098.02 2969.35 1101.47 2969.7 1105.15 2969.7Z" fill="#121212" fill-opacity="0.7"/>
<path d="M1194.8 2986.49V2850.21H1216.42L1222.51 2875.51V2986.49H1194.8ZM1281.28 2986.49V2910.36C1281.28 2894.72 1279.06 2883.79 1274.61 2877.58C1270.16 2871.37 1263.45 2868.27 1254.48 2868.27C1245.36 2868.27 1237.62 2871.72 1231.25 2878.62C1224.89 2885.52 1221.71 2894.3 1221.71 2904.95L1208.25 2897.25C1208.25 2885.82 1213.51 2874.94 1224.01 2864.59C1234.51 2854.16 1248.08 2848.95 1264.72 2848.95C1280.97 2848.95 1292.4 2854.43 1298.99 2865.39C1305.66 2876.36 1308.99 2891.27 1308.99 2910.13V2986.49H1281.28Z" fill="#121212" fill-opacity="0.7"/>
<path d="M1378.69 2987.75C1371.26 2987.75 1364.55 2987.1 1358.57 2985.8C1352.66 2984.49 1347.57 2982.31 1343.27 2979.24C1339.06 2976.1 1335.8 2971.84 1333.5 2966.48C1331.27 2961.11 1330.16 2954.36 1330.16 2946.24C1330.16 2938.49 1331.24 2932.05 1333.38 2926.92C1335.61 2921.7 1338.79 2917.56 1342.93 2914.5C1347.07 2911.43 1352.13 2909.25 1358.11 2907.94C1364.09 2906.56 1370.83 2905.87 1378.35 2905.87H1422.39V2898.86C1422.39 2891.42 1421.13 2885.44 1418.6 2880.92C1416.07 2876.32 1412.43 2872.98 1407.67 2870.91C1403 2868.84 1397.4 2867.81 1390.88 2867.81C1385.36 2867.81 1380.38 2868.73 1375.93 2870.57C1371.56 2872.41 1367.88 2875.44 1364.89 2879.65C1361.9 2883.87 1359.87 2889.47 1358.8 2896.44L1331.54 2889.08C1332.85 2881.72 1335.26 2875.47 1338.79 2870.34C1342.39 2865.2 1346.8 2861.06 1352.01 2857.92C1357.3 2854.77 1363.21 2852.47 1369.72 2851.02C1376.32 2849.56 1383.33 2848.83 1390.77 2848.83C1403.57 2848.83 1414.38 2850.56 1423.2 2854.01C1432.09 2857.46 1438.84 2862.94 1443.44 2870.45C1448.04 2877.89 1450.34 2887.82 1450.34 2900.24V2986.49H1427.11L1424.81 2969.7C1423.73 2971.69 1421.93 2973.72 1419.4 2975.79C1416.87 2977.86 1413.65 2979.82 1409.74 2981.66C1405.83 2983.5 1401.27 2984.99 1396.06 2986.14C1390.92 2987.22 1385.13 2987.75 1378.69 2987.75ZM1384.79 2969.7C1391.3 2969.7 1397.09 2968.93 1402.15 2967.4C1407.21 2965.79 1411.43 2963.76 1414.8 2961.3C1418.25 2958.77 1420.67 2956.17 1422.05 2953.48V2921.28H1384.9C1381.15 2921.28 1377.62 2921.63 1374.32 2922.32C1371.1 2922.93 1368.3 2924.08 1365.93 2925.77C1363.55 2927.45 1361.67 2929.91 1360.29 2933.13C1358.99 2936.27 1358.34 2940.33 1358.34 2945.32C1358.34 2950.3 1358.99 2954.36 1360.29 2957.51C1361.67 2960.65 1363.55 2963.1 1365.93 2964.87C1368.38 2966.63 1371.22 2967.9 1374.44 2968.66C1377.66 2969.35 1381.11 2969.7 1384.79 2969.7Z" fill="#121212" fill-opacity="0.7"/>
<path d="M1530.67 3040.08C1515.26 3040.08 1502.19 3036.63 1491.46 3029.73C1480.72 3022.9 1474.71 3011.14 1473.4 2994.42H1500.54C1501.16 3001.09 1502.73 3006.46 1505.26 3010.52C1507.86 3014.59 1511.43 3017.54 1515.95 3019.38C1520.55 3021.29 1525.77 3022.25 1531.59 3022.25C1541.25 3022.25 1549 3019.72 1554.82 3014.66C1560.73 3009.68 1563.68 2999.52 1563.68 2984.19V2877.81L1570.92 2850.21H1591.51V2981.54C1591.51 2996.49 1588.71 3008.22 1583.11 3016.73C1577.59 3025.32 1570.58 3031.34 1562.07 3034.79C1553.63 3038.31 1543.17 3040.08 1530.67 3040.08ZM1520.78 2987.29C1503.84 2987.29 1491.19 2981.47 1482.83 2969.81C1474.55 2958.08 1470.41 2940.83 1470.41 2918.06C1470.41 2895.29 1474.51 2878.08 1482.72 2866.43C1490.92 2854.77 1503.53 2848.95 1520.55 2848.95C1535.81 2848.95 1548.8 2852.82 1559.54 2860.56C1570.35 2868.23 1575.75 2876.28 1575.75 2884.71L1563.56 2897.59C1563.56 2889.85 1560.27 2883.03 1553.67 2877.12C1547.08 2871.22 1539.18 2868.27 1529.98 2868.27C1520.25 2868.27 1512.54 2871.76 1506.87 2878.73C1501.27 2885.63 1498.47 2898.78 1498.47 2918.18C1498.47 2937.57 1501.27 2950.76 1506.87 2957.74C1512.54 2964.71 1520.25 2968.2 1529.98 2968.2C1539.18 2968.2 1547.08 2965.21 1553.67 2959.23C1560.27 2953.25 1563.56 2946.35 1563.56 2938.53L1575.87 2952.33C1575.87 2960.92 1570.5 2968.89 1559.77 2976.25C1549.11 2983.61 1536.12 2987.29 1520.78 2987.29Z" fill="#121212" fill-opacity="0.7"/>
<path d="M1675.83 2987.64C1653.29 2987.64 1637.27 2981.47 1627.76 2969.12C1618.1 2956.78 1613.27 2939.76 1613.27 2918.06C1613.27 2895.37 1618.18 2878.16 1627.99 2866.43C1637.73 2854.7 1653.52 2848.83 1675.37 2848.83C1697.91 2848.83 1713.86 2854.7 1723.21 2866.43C1732.49 2878.31 1737.12 2895.45 1737.12 2917.83C1737.12 2920.98 1736.93 2923.85 1736.55 2926.46H1637.3V2909.44H1709.06C1708.37 2894.18 1705.54 2883.45 1700.55 2877.24C1694.57 2870.41 1686.22 2867 1675.48 2867C1664.98 2867 1656.47 2870.64 1649.95 2877.93C1643.44 2885.13 1640.18 2898.55 1640.18 2918.18C1640.18 2936.88 1643.36 2950.07 1649.72 2957.74C1656.01 2965.56 1664.71 2969.47 1675.83 2969.47V2987.64ZM1675.83 2969.47C1682.19 2969.47 1687.71 2968.47 1692.39 2966.48C1697.07 2964.41 1700.67 2960.96 1703.2 2956.13C1705.73 2951.22 1707.68 2945.7 1709.06 2939.57L1734.02 2946.47C1732.64 2955.67 1729.46 2963.37 1724.47 2969.58C1719.49 2975.87 1713.17 2980.43 1705.5 2983.27C1697.91 2986.18 1688.02 2987.64 1675.83 2987.64V2969.47Z" fill="#121212" fill-opacity="0.7"/>
<path d="M1759.24 2986.49V2850.21H1780.98L1787.07 2872.29V2986.49H1759.24ZM1836.87 2986.49V2906.33C1836.87 2893.22 1835.1 2883.64 1831.58 2877.58C1828.05 2871.45 1822.3 2868.38 1814.33 2868.38C1806.12 2868.38 1799.49 2871.76 1794.43 2878.5C1789.37 2885.17 1786.84 2894.68 1786.84 2907.02L1772.12 2900.24C1772.12 2887.05 1777.11 2875.24 1787.07 2864.82C1797.12 2854.31 1809.23 2849.06 1823.41 2849.06C1839.51 2849.06 1850.4 2854.39 1856.07 2865.05C1861.75 2875.63 1864.58 2888.7 1864.58 2904.26V2986.49H1836.87ZM1914.15 2986.49V2906.33C1914.15 2893.22 1912.42 2883.64 1908.97 2877.58C1905.6 2871.45 1899.89 2868.38 1891.84 2868.38C1883.71 2868.38 1877.12 2871.76 1872.06 2878.5C1867 2885.17 1864.47 2894.68 1864.47 2907.02L1849.63 2900.24C1849.63 2887.28 1854.65 2875.51 1864.7 2864.93C1874.74 2854.35 1886.85 2849.06 1901.04 2849.06C1917.14 2849.06 1927.95 2854.39 1933.47 2865.05C1939.06 2875.7 1941.86 2888.78 1941.86 2904.26V2986.49H1914.15Z" fill="#121212" fill-opacity="0.7"/>
<path d="M2025.1 2987.64C2002.56 2987.64 1986.53 2981.47 1977.03 2969.12C1967.37 2956.78 1962.54 2939.76 1962.54 2918.06C1962.54 2895.37 1967.44 2878.16 1977.26 2866.43C1986.99 2854.7 2002.79 2848.83 2024.64 2848.83C2047.18 2848.83 2063.12 2854.7 2072.48 2866.43C2081.75 2878.31 2086.39 2895.45 2086.39 2917.83C2086.39 2920.98 2086.2 2923.85 2085.82 2926.46H1986.57V2909.44H2058.33C2057.64 2894.18 2054.81 2883.45 2049.82 2877.24C2043.84 2870.41 2035.49 2867 2024.75 2867C2014.25 2867 2005.74 2870.64 1999.22 2877.93C1992.71 2885.13 1989.45 2898.55 1989.45 2918.18C1989.45 2936.88 1992.63 2950.07 1998.99 2957.74C2005.28 2965.56 2013.98 2969.47 2025.1 2969.47V2987.64ZM2025.1 2969.47C2031.46 2969.47 2036.98 2968.47 2041.66 2966.48C2046.33 2964.41 2049.94 2960.96 2052.47 2956.13C2055 2951.22 2056.95 2945.7 2058.33 2939.57L2083.29 2946.47C2081.91 2955.67 2078.73 2963.37 2073.74 2969.58C2068.76 2975.87 2062.43 2980.43 2054.77 2983.27C2047.18 2986.18 2037.29 2987.64 2025.1 2987.64V2969.47Z" fill="#121212" fill-opacity="0.7"/>
<path d="M2108.51 2986.49V2850.21H2130.13L2136.23 2875.51V2986.49H2108.51ZM2194.99 2986.49V2910.36C2194.99 2894.72 2192.77 2883.79 2188.32 2877.58C2183.87 2871.37 2177.17 2868.27 2168.2 2868.27C2159.07 2868.27 2151.33 2871.72 2144.97 2878.62C2138.6 2885.52 2135.42 2894.3 2135.42 2904.95L2121.97 2897.25C2121.97 2885.82 2127.22 2874.94 2137.72 2864.59C2148.22 2854.16 2161.79 2848.95 2178.43 2848.95C2194.68 2848.95 2206.11 2854.43 2212.7 2865.39C2219.37 2876.36 2222.71 2891.27 2222.71 2910.13V2986.49H2194.99Z" fill="#121212" fill-opacity="0.7"/>
<path d="M2306.03 2988.1C2295.37 2988.1 2286.4 2985.8 2279.12 2981.2C2271.91 2976.52 2268.31 2968.01 2268.31 2955.67V2869.53H2236.57V2850.21H2268.31V2819.28H2296.14V2850.21H2340.3V2869.53H2296.14V2949.34C2296.14 2957.39 2297.82 2962.72 2301.2 2965.33C2304.57 2967.93 2309.29 2969.24 2315.34 2969.24C2320.94 2969.24 2326.42 2968.32 2331.79 2966.48V2985.11C2323.58 2987.1 2315 2988.1 2306.03 2988.1Z" fill="#121212" fill-opacity="0.7"/>
<path d="M2416.3 2986.49V2831.24H2444.47V2967.28H2511.06V2986.49H2416.3Z" fill="#121212" fill-opacity="0.7"/>
<path d="M2593.08 2988.1C2582.42 2988.1 2573.45 2985.8 2566.17 2981.2C2558.96 2976.52 2555.36 2968.01 2555.36 2955.67V2869.53H2523.62V2850.21H2555.36V2819.28H2583.19V2850.21H2627.35V2869.53H2583.19V2949.34C2583.19 2957.39 2584.88 2962.72 2588.25 2965.33C2591.62 2967.93 2596.34 2969.24 2602.39 2969.24C2607.99 2969.24 2613.47 2968.32 2618.84 2966.48V2985.11C2610.64 2987.1 2602.05 2988.1 2593.08 2988.1Z" fill="#121212" fill-opacity="0.7"/>
<path d="M2735.62 2986.49L2733.78 2964.64V2805.94H2761.49V2986.49H2735.62ZM2690.77 2987.29C2673.75 2987.29 2661.14 2981.47 2652.93 2969.81C2644.73 2958.08 2640.63 2940.83 2640.63 2918.06C2640.63 2895.29 2644.73 2878.08 2652.93 2866.43C2661.14 2854.77 2673.75 2848.95 2690.77 2848.95C2706.02 2848.95 2719.02 2852.7 2729.75 2860.22C2740.56 2867.73 2745.97 2875.7 2745.97 2884.14L2733.78 2897.59C2733.78 2889.85 2730.48 2883.03 2723.89 2877.12C2717.29 2871.22 2709.4 2868.27 2700.2 2868.27C2690.46 2868.27 2682.76 2871.76 2677.08 2878.73C2671.49 2885.63 2668.69 2898.78 2668.69 2918.18C2668.69 2937.57 2671.49 2950.76 2677.08 2957.74C2682.76 2964.71 2690.46 2968.2 2700.2 2968.2C2709.4 2968.2 2717.29 2965.21 2723.89 2959.23C2730.48 2953.25 2733.78 2946.35 2733.78 2938.53L2745.97 2952.33C2745.97 2960.69 2740.56 2968.62 2729.75 2976.14C2719.02 2983.57 2706.02 2987.29 2690.77 2987.29Z" fill="#121212" fill-opacity="0.7"/>
<rect x="2809" y="2922.48" width="484" height="10" rx="5" fill="#121212" fill-opacity="0.2"/>
<rect x="329" y="2922.48" width="484" height="10" rx="5" fill="#121212" fill-opacity="0.2"/>
<defs>
<linearGradient id="paint0_linear_1353_314" x1="1804.43" y1="10" x2="1804.43" y2="2172.55" gradientUnits="userSpaceOnUse">
<stop stop-color="#5649F0"/>
<stop offset="1" stop-color="#FC5130"/>
</linearGradient>
<linearGradient id="paint1_linear_1353_314" x1="0" y1="1985.26" x2="3616.34" y2="1985.26" gradientUnits="userSpaceOnUse">
<stop stop-color="#5649F0"/>
<stop offset="1" stop-color="#121212"/>
</linearGradient>
</defs>
</svg>
