<svg width="234" height="285" viewBox="0 0 234 285" fill="none" xmlns="http://www.w3.org/2000/svg">
<path d="M30.3578 282V274.33H27.3418V272.9H35.0638V274.33H32.0478V282H30.3578ZM40.5871 275.058H42.2121V282H40.6651V281.116C40.1451 281.753 39.3261 282.091 38.4291 282.091C36.6481 282.091 35.4391 281.116 35.4391 279.023V275.058H37.0641V278.802C37.0641 280.063 37.6621 280.661 38.6891 280.661C39.8201 280.661 40.5871 279.959 40.5871 278.568V275.058ZM45.3667 276.072C45.8347 275.344 46.6797 274.98 47.8367 274.98V276.527C47.6937 276.501 47.5767 276.488 47.4597 276.488C46.2247 276.488 45.4447 277.216 45.4447 278.633V282H43.8197V275.058H45.3667V276.072ZM52.6342 274.98C54.2982 274.98 55.5332 275.929 55.5332 278.022V282H53.9082V278.23C53.9082 276.995 53.2972 276.397 52.2572 276.397C51.1002 276.397 50.3202 277.099 50.3202 278.49V282H48.6952V275.058H50.2422V275.955C50.7752 275.318 51.6202 274.98 52.6342 274.98ZM57.8936 273.914C57.2956 273.914 56.8536 273.485 56.8536 272.939C56.8536 272.393 57.2956 271.964 57.8936 271.964C58.4916 271.964 58.9336 272.367 58.9336 272.9C58.9336 273.472 58.5046 273.914 57.8936 273.914ZM57.0746 282V275.058H58.6996V282H57.0746ZM64.2514 274.98C65.9154 274.98 67.1504 275.929 67.1504 278.022V282H65.5254V278.23C65.5254 276.995 64.9144 276.397 63.8744 276.397C62.7174 276.397 61.9374 277.099 61.9374 278.49V282H60.3124V275.058H61.8594V275.955C62.3924 275.318 63.2374 274.98 64.2514 274.98ZM74.0983 275.058H75.6453V280.947C75.6453 283.469 74.3323 284.613 71.9013 284.613C70.6013 284.613 69.3143 284.275 68.5213 283.625L69.2493 282.403C69.8603 282.91 70.8483 283.235 71.8103 283.235C73.3443 283.235 74.0203 282.533 74.0203 281.129V280.765C73.4483 281.389 72.6293 281.688 71.6933 281.688C69.7043 281.688 68.1833 280.336 68.1833 278.321C68.1833 276.306 69.7043 274.98 71.6933 274.98C72.6683 274.98 73.5263 275.292 74.0983 275.981V275.058ZM71.9403 280.31C73.1623 280.31 74.0463 279.504 74.0463 278.321C74.0463 277.151 73.1623 276.358 71.9403 276.358C70.7053 276.358 69.8213 277.151 69.8213 278.321C69.8213 279.504 70.7053 280.31 71.9403 280.31ZM92.1775 272.9H93.7895L90.7735 282H88.9795L86.7305 275.266L84.4425 282H82.6355L79.6195 272.9H81.3745L83.6365 279.816L85.9895 272.9H87.5495L89.8505 279.855L92.1775 272.9ZM96.6217 274.98C98.6237 274.98 99.7807 275.929 99.7807 277.931V282H98.2467V281.155C97.8567 281.753 97.1027 282.091 96.0627 282.091C94.4767 282.091 93.4757 281.22 93.4757 280.011C93.4757 278.854 94.2557 277.944 96.3617 277.944H98.1557V277.84C98.1557 276.891 97.5837 276.332 96.4267 276.332C95.6467 276.332 94.8407 276.592 94.3207 277.021L93.6837 275.838C94.4247 275.266 95.5037 274.98 96.6217 274.98ZM96.4007 280.908C97.1937 280.908 97.8827 280.544 98.1557 279.829V279.023H96.4787C95.3737 279.023 95.0747 279.439 95.0747 279.946C95.0747 280.531 95.5687 280.908 96.4007 280.908ZM103.491 282.091C102.334 282.091 101.177 281.753 100.553 281.311L101.177 280.076C101.788 280.479 102.724 280.765 103.595 280.765C104.622 280.765 105.051 280.479 105.051 279.998C105.051 278.672 100.761 279.92 100.761 277.151C100.761 275.838 101.944 274.98 103.816 274.98C104.739 274.98 105.792 275.201 106.416 275.578L105.792 276.813C105.129 276.423 104.466 276.293 103.803 276.293C102.815 276.293 102.347 276.618 102.347 277.073C102.347 278.477 106.637 277.229 106.637 279.946C106.637 281.246 105.441 282.091 103.491 282.091ZM111.235 280.466L111.69 281.623C111.3 281.935 110.715 282.091 110.13 282.091C108.609 282.091 107.738 281.285 107.738 279.751V276.41H106.594V275.11H107.738V273.524H109.363V275.11H111.222V276.41H109.363V279.712C109.363 280.388 109.701 280.752 110.325 280.752C110.663 280.752 110.988 280.661 111.235 280.466ZM118.804 278.568C118.804 278.698 118.791 278.893 118.778 279.049H113.331C113.526 280.063 114.371 280.713 115.58 280.713C116.36 280.713 116.971 280.466 117.465 279.959L118.336 280.96C117.712 281.701 116.737 282.091 115.541 282.091C113.214 282.091 111.706 280.596 111.706 278.529C111.706 276.462 113.227 274.98 115.294 274.98C117.322 274.98 118.804 276.397 118.804 278.568ZM115.294 276.28C114.241 276.28 113.474 276.956 113.318 277.97H117.257C117.127 276.969 116.36 276.28 115.294 276.28ZM123.737 273.914C123.139 273.914 122.697 273.485 122.697 272.939C122.697 272.393 123.139 271.964 123.737 271.964C124.335 271.964 124.777 272.367 124.777 272.9C124.777 273.472 124.348 273.914 123.737 273.914ZM122.918 282V275.058H124.543V282H122.918ZM130.094 274.98C131.758 274.98 132.993 275.929 132.993 278.022V282H131.368V278.23C131.368 276.995 130.757 276.397 129.717 276.397C128.56 276.397 127.78 277.099 127.78 278.49V282H126.155V275.058H127.702V275.955C128.235 275.318 129.08 274.98 130.094 274.98ZM138.253 280.466L138.708 281.623C138.318 281.935 137.733 282.091 137.148 282.091C135.627 282.091 134.756 281.285 134.756 279.751V276.41H133.612V275.11H134.756V273.524H136.381V275.11H138.24V276.41H136.381V279.712C136.381 280.388 136.719 280.752 137.343 280.752C137.681 280.752 138.006 280.661 138.253 280.466ZM142.416 282.091C140.284 282.091 138.724 280.609 138.724 278.529C138.724 276.449 140.284 274.98 142.416 274.98C144.574 274.98 146.121 276.449 146.121 278.529C146.121 280.609 144.574 282.091 142.416 282.091ZM142.416 280.7C143.599 280.7 144.483 279.855 144.483 278.529C144.483 277.203 143.599 276.358 142.416 276.358C141.246 276.358 140.362 277.203 140.362 278.529C140.362 279.855 141.246 280.7 142.416 280.7ZM162.071 272.9H163.683L160.667 282H158.873L156.624 275.266L154.336 282H152.529L149.513 272.9H151.268L153.53 279.816L155.883 272.9H157.443L159.744 279.855L162.071 272.9ZM170.389 278.568C170.389 278.698 170.376 278.893 170.363 279.049H164.916C165.111 280.063 165.956 280.713 167.165 280.713C167.945 280.713 168.556 280.466 169.05 279.959L169.921 280.96C169.297 281.701 168.322 282.091 167.126 282.091C164.799 282.091 163.291 280.596 163.291 278.529C163.291 276.462 164.812 274.98 166.879 274.98C168.907 274.98 170.389 276.397 170.389 278.568ZM166.879 276.28C165.826 276.28 165.059 276.956 164.903 277.97H168.842C168.712 276.969 167.945 276.28 166.879 276.28ZM171.43 282V272.354H173.055V282H171.43ZM174.668 282V272.354H176.293V282H174.668ZM181.845 274.98C183.509 274.98 184.744 275.929 184.744 278.022V282H183.119V278.23C183.119 276.995 182.508 276.397 181.468 276.397C180.311 276.397 179.531 277.099 179.531 278.49V282H177.906V275.058H179.453V275.955C179.986 275.318 180.831 274.98 181.845 274.98ZM192.874 278.568C192.874 278.698 192.861 278.893 192.848 279.049H187.401C187.596 280.063 188.441 280.713 189.65 280.713C190.43 280.713 191.041 280.466 191.535 279.959L192.406 280.96C191.782 281.701 190.807 282.091 189.611 282.091C187.284 282.091 185.776 280.596 185.776 278.529C185.776 276.462 187.297 274.98 189.364 274.98C191.392 274.98 192.874 276.397 192.874 278.568ZM189.364 276.28C188.311 276.28 187.544 276.956 187.388 277.97H191.327C191.197 276.969 190.43 276.28 189.364 276.28ZM196.06 282.091C194.903 282.091 193.746 281.753 193.122 281.311L193.746 280.076C194.357 280.479 195.293 280.765 196.164 280.765C197.191 280.765 197.62 280.479 197.62 279.998C197.62 278.672 193.33 279.92 193.33 277.151C193.33 275.838 194.513 274.98 196.385 274.98C197.308 274.98 198.361 275.201 198.985 275.578L198.361 276.813C197.698 276.423 197.035 276.293 196.372 276.293C195.384 276.293 194.916 276.618 194.916 277.073C194.916 278.477 199.206 277.229 199.206 279.946C199.206 281.246 198.01 282.091 196.06 282.091ZM202.231 282.091C201.074 282.091 199.917 281.753 199.293 281.311L199.917 280.076C200.528 280.479 201.464 280.765 202.335 280.765C203.362 280.765 203.791 280.479 203.791 279.998C203.791 278.672 199.501 279.92 199.501 277.151C199.501 275.838 200.684 274.98 202.556 274.98C203.479 274.98 204.532 275.201 205.156 275.578L204.532 276.813C203.869 276.423 203.206 276.293 202.543 276.293C201.555 276.293 201.087 276.618 201.087 277.073C201.087 278.477 205.377 277.229 205.377 279.946C205.377 281.246 204.181 282.091 202.231 282.091Z" fill="url(#paint0_linear_864_1897)"/>
<path d="M15.3255 262.08C15.8721 262.08 16.3321 262 16.7055 261.84C17.0921 261.68 17.4188 261.5 17.6855 261.3C17.9521 261.1 18.1855 260.92 18.3855 260.76C18.5988 260.6 18.8121 260.52 19.0255 260.52C19.2921 260.52 19.4255 260.72 19.4255 261.12C19.4255 261.333 19.3988 261.593 19.3455 261.9C19.2921 262.193 19.2188 262.527 19.1255 262.9C19.0721 263.127 18.9388 263.373 18.7255 263.64C18.5255 263.907 18.2455 264.16 17.8855 264.4C17.5255 264.627 17.0788 264.82 16.5455 264.98C16.0255 265.127 15.4255 265.2 14.7455 265.2C14.0655 265.2 13.3855 265.1 12.7055 264.9C12.0255 264.7 11.4188 264.36 10.8855 263.88C10.3521 263.4 9.9188 262.753 9.58547 261.94C9.25213 261.127 9.08547 260.107 9.08547 258.88C9.08547 258.44 9.11213 257.933 9.16547 257.36C9.23213 256.773 9.35213 256.173 9.52547 255.56C9.6988 254.947 9.9388 254.347 10.2455 253.76C10.5655 253.16 10.9721 252.627 11.4655 252.16C11.9588 251.693 12.5588 251.32 13.2655 251.04C13.9855 250.747 14.8388 250.6 15.8255 250.6C16.6121 250.6 17.2921 250.693 17.8655 250.88C18.4521 251.067 18.9321 251.327 19.3055 251.66C19.6921 251.98 19.9721 252.36 20.1455 252.8C20.3321 253.24 20.4255 253.707 20.4255 254.2C20.4255 255.053 20.1721 255.68 19.6655 256.08C19.1721 256.467 18.4655 256.66 17.5455 256.66C17.2521 256.66 17.0655 256.64 16.9855 256.6C16.9188 256.547 16.8855 256.447 16.8855 256.3C16.8721 255.847 16.8588 255.453 16.8455 255.12C16.8321 254.787 16.7855 254.513 16.7055 254.3C16.6255 254.073 16.4988 253.913 16.3255 253.82C16.1655 253.713 15.9388 253.66 15.6455 253.66C15.2188 253.66 14.8521 253.753 14.5455 253.94C14.2521 254.113 13.9988 254.347 13.7855 254.64C13.5855 254.92 13.4188 255.24 13.2855 255.6C13.1655 255.96 13.0655 256.327 12.9855 256.7C12.9188 257.073 12.8721 257.433 12.8455 257.78C12.8321 258.127 12.8255 258.427 12.8255 258.68C12.8255 259.907 13.0255 260.78 13.4255 261.3C13.8388 261.82 14.4721 262.08 15.3255 262.08ZM21.8892 251.1C21.9025 250.993 21.9425 250.92 22.0092 250.88C22.0892 250.827 22.1625 250.8 22.2292 250.8C23.1359 250.8 23.9825 250.773 24.7692 250.72C25.5692 250.653 26.1959 250.62 26.6492 250.62C27.7825 250.62 28.7292 250.733 29.4892 250.96C30.2625 251.187 30.8825 251.54 31.3492 252.02C31.8292 252.5 32.1692 253.12 32.3692 253.88C32.5692 254.64 32.6692 255.553 32.6692 256.62C32.6692 257.7 32.5559 258.76 32.3292 259.8C32.1159 260.827 31.7359 261.74 31.1892 262.54C30.6425 263.34 29.9025 263.987 28.9692 264.48C28.0492 264.96 26.8825 265.2 25.4692 265.2C24.8159 265.2 24.2159 265.187 23.6692 265.16C23.1359 265.133 22.6759 265.053 22.2892 264.92C21.9025 264.787 21.6025 264.587 21.3892 264.32C21.1759 264.053 21.0692 263.687 21.0692 263.22C21.0692 263.047 21.0759 262.787 21.0892 262.44C21.1159 262.093 21.1425 261.68 21.1692 261.2C21.2092 260.72 21.2492 260.193 21.2892 259.62C21.3425 259.033 21.3959 258.42 21.4492 257.78C21.5559 256.46 21.6359 255.407 21.6892 254.62C21.7559 253.833 21.7959 253.22 21.8092 252.78C21.8359 252.327 21.8492 251.987 21.8492 251.76C21.8625 251.533 21.8759 251.313 21.8892 251.1ZM25.6092 262.04C26.3559 262.04 26.9492 261.88 27.3892 261.56C27.8425 261.24 28.1892 260.833 28.4292 260.34C28.6692 259.847 28.8292 259.307 28.9092 258.72C28.9892 258.133 29.0292 257.58 29.0292 257.06C29.0292 256.5 28.9892 256.013 28.9092 255.6C28.8425 255.173 28.7159 254.82 28.5292 254.54C28.3559 254.26 28.1092 254.053 27.7892 253.92C27.4692 253.773 27.0692 253.7 26.5892 253.7C26.4425 253.7 26.2559 253.707 26.0292 253.72C25.8025 253.733 25.5292 253.753 25.2092 253.78C25.1825 254.273 25.1492 254.86 25.1092 255.54C25.0692 256.207 25.0225 256.913 24.9692 257.66C24.9292 258.393 24.8825 259.14 24.8292 259.9C24.7759 260.647 24.7225 261.34 24.6692 261.98C24.8692 262.007 25.0492 262.027 25.2092 262.04C25.3692 262.04 25.5025 262.04 25.6092 262.04ZM39.7895 262.08C40.3362 262.08 40.7962 262 41.1695 261.84C41.5562 261.68 41.8829 261.5 42.1495 261.3C42.4162 261.1 42.6495 260.92 42.8495 260.76C43.0629 260.6 43.2762 260.52 43.4895 260.52C43.7562 260.52 43.8895 260.72 43.8895 261.12C43.8895 261.333 43.8629 261.593 43.8095 261.9C43.7562 262.193 43.6829 262.527 43.5895 262.9C43.5362 263.127 43.4029 263.373 43.1895 263.64C42.9895 263.907 42.7095 264.16 42.3495 264.4C41.9895 264.627 41.5429 264.82 41.0095 264.98C40.4895 265.127 39.8895 265.2 39.2095 265.2C38.5295 265.2 37.8495 265.1 37.1695 264.9C36.4895 264.7 35.8829 264.36 35.3495 263.88C34.8162 263.4 34.3829 262.753 34.0495 261.94C33.7162 261.127 33.5495 260.107 33.5495 258.88C33.5495 258.44 33.5762 257.933 33.6295 257.36C33.6962 256.773 33.8162 256.173 33.9895 255.56C34.1629 254.947 34.4029 254.347 34.7095 253.76C35.0295 253.16 35.4362 252.627 35.9295 252.16C36.4229 251.693 37.0229 251.32 37.7295 251.04C38.4495 250.747 39.3029 250.6 40.2895 250.6C41.0762 250.6 41.7562 250.693 42.3295 250.88C42.9162 251.067 43.3962 251.327 43.7695 251.66C44.1562 251.98 44.4362 252.36 44.6095 252.8C44.7962 253.24 44.8895 253.707 44.8895 254.2C44.8895 255.053 44.6362 255.68 44.1295 256.08C43.6362 256.467 42.9295 256.66 42.0095 256.66C41.7162 256.66 41.5295 256.64 41.4495 256.6C41.3829 256.547 41.3495 256.447 41.3495 256.3C41.3362 255.847 41.3229 255.453 41.3095 255.12C41.2962 254.787 41.2495 254.513 41.1695 254.3C41.0895 254.073 40.9629 253.913 40.7895 253.82C40.6295 253.713 40.4029 253.66 40.1095 253.66C39.6829 253.66 39.3162 253.753 39.0095 253.94C38.7162 254.113 38.4629 254.347 38.2495 254.64C38.0495 254.92 37.8829 255.24 37.7495 255.6C37.6295 255.96 37.5295 256.327 37.4495 256.7C37.3829 257.073 37.3362 257.433 37.3095 257.78C37.2962 258.127 37.2895 258.427 37.2895 258.68C37.2895 259.907 37.4895 260.78 37.8895 261.3C38.3029 261.82 38.9362 262.08 39.7895 262.08ZM61.0623 262.02C61.1957 261.313 61.3157 260.7 61.4223 260.18C61.529 259.647 61.6223 259.153 61.7023 258.7C61.7823 258.247 61.8557 257.8 61.9223 257.36C62.0023 256.907 62.0823 256.407 62.1623 255.86C62.2557 255.3 62.3557 254.667 62.4623 253.96C62.5823 253.24 62.7223 252.38 62.8823 251.38C62.9223 251.127 62.989 250.967 63.0823 250.9C63.1757 250.82 63.409 250.78 63.7823 250.78C63.929 250.78 64.149 250.793 64.4423 250.82C64.7357 250.833 65.029 250.893 65.3223 251C65.6157 251.093 65.869 251.247 66.0823 251.46C66.309 251.66 66.4223 251.947 66.4223 252.32C66.4223 252.533 66.3823 252.867 66.3023 253.32C66.2223 253.76 66.109 254.273 65.9623 254.86C65.829 255.433 65.669 256.06 65.4823 256.74C65.309 257.42 65.129 258.107 64.9423 258.8C64.7557 259.493 64.5623 260.167 64.3623 260.82C64.1757 261.473 63.9957 262.067 63.8223 262.6C63.6623 263.12 63.5157 263.56 63.3823 263.92C63.249 264.28 63.1557 264.513 63.1023 264.62C63.0223 264.767 62.909 264.867 62.7623 264.92C62.6157 264.973 62.469 265 62.3223 265H60.4223C60.0757 265 59.7823 264.933 59.5423 264.8C59.3157 264.667 59.1223 264.493 58.9623 264.28C58.8157 264.067 58.6957 263.827 58.6023 263.56C58.5223 263.293 58.469 263.02 58.4423 262.74L57.4423 253.76C57.3623 254.347 57.269 255.007 57.1623 255.74C57.069 256.473 56.9623 257.22 56.8423 257.98C56.7357 258.74 56.629 259.487 56.5223 260.22C56.4157 260.953 56.309 261.627 56.2023 262.24C56.0957 262.84 55.9957 263.353 55.9023 263.78C55.809 264.207 55.729 264.487 55.6623 264.62C55.5957 264.767 55.489 264.867 55.3423 264.92C55.1957 264.973 55.0423 265 54.8823 265H52.9823C52.649 265 52.369 264.94 52.1423 264.82C51.929 264.687 51.749 264.513 51.6023 264.3C51.4557 264.087 51.3357 263.847 51.2423 263.58C51.149 263.3 51.069 263.02 51.0023 262.74C50.4557 260.567 50.009 258.78 49.6623 257.38C49.329 255.98 49.0623 254.86 48.8623 254.02C48.6623 253.167 48.5223 252.547 48.4423 252.16C48.3757 251.76 48.3423 251.473 48.3423 251.3C48.3423 251.073 48.409 250.927 48.5423 250.86C48.689 250.793 48.989 250.76 49.4423 250.76C50.0023 250.76 50.469 250.8 50.8423 250.88C51.229 250.96 51.5423 251.087 51.7823 251.26C52.0223 251.42 52.2023 251.64 52.3223 251.92C52.4557 252.187 52.5423 252.513 52.5823 252.9C52.5823 252.953 52.589 253.033 52.6023 253.14C52.6157 253.233 52.629 253.393 52.6423 253.62C52.669 253.847 52.7023 254.16 52.7423 254.56C52.7957 254.947 52.8557 255.467 52.9223 256.12C53.0023 256.773 53.0957 257.587 53.2023 258.56C53.3223 259.52 53.4623 260.673 53.6223 262.02C53.769 261.207 53.8823 260.553 53.9623 260.06C54.0557 259.553 54.1357 259.113 54.2023 258.74C54.269 258.353 54.329 257.987 54.3823 257.64C54.4357 257.28 54.4957 256.84 54.5623 256.32C54.6423 255.787 54.729 255.12 54.8223 254.32C54.929 253.52 55.0623 252.48 55.2223 251.2C55.2357 251.107 55.289 251.033 55.3823 250.98C55.489 250.927 55.6157 250.887 55.7623 250.86C55.909 250.833 56.069 250.82 56.2423 250.82C56.429 250.807 56.6023 250.8 56.7623 250.8C57.2957 250.8 57.749 250.833 58.1223 250.9C58.4957 250.953 58.8023 251.053 59.0423 251.2C59.2957 251.347 59.4957 251.547 59.6423 251.8C59.789 252.04 59.909 252.34 60.0023 252.7C60.0423 252.873 60.089 253.113 60.1423 253.42C60.1957 253.713 60.2557 254.187 60.3223 254.84C60.4023 255.493 60.4957 256.393 60.6023 257.54C60.7223 258.673 60.8757 260.167 61.0623 262.02ZM65.9161 262.54C65.9161 261.34 66.4561 260.4 67.5361 259.72C68.6161 259.04 70.2094 258.673 72.3161 258.62C72.3294 258.473 72.3361 258.353 72.3361 258.26C72.3494 258.153 72.3561 258.027 72.3561 257.88C72.3561 257.453 72.2761 257.113 72.1161 256.86C71.9561 256.607 71.6228 256.48 71.1161 256.48C70.8361 256.48 70.6094 256.52 70.4361 256.6C70.2628 256.68 70.1228 256.793 70.0161 256.94C69.9094 257.073 69.8228 257.24 69.7561 257.44C69.6894 257.64 69.6294 257.86 69.5761 258.1C69.5494 258.22 69.4894 258.3 69.3961 258.34C69.3028 258.367 69.1561 258.38 68.9561 258.38C67.5961 258.38 66.9161 257.867 66.9161 256.84C66.9161 256.427 67.0094 256.033 67.1961 255.66C67.3961 255.287 67.6828 254.967 68.0561 254.7C68.4428 254.42 68.9228 254.2 69.4961 254.04C70.0694 253.88 70.7361 253.8 71.4961 253.8C72.9761 253.8 74.0494 254.107 74.7161 254.72C75.3828 255.333 75.7161 256.2 75.7161 257.32C75.7161 257.467 75.6961 257.733 75.6561 258.12C75.6294 258.493 75.5894 258.893 75.5361 259.32C75.4961 259.733 75.4561 260.127 75.4161 260.5C75.3894 260.873 75.3761 261.133 75.3761 261.28C75.3761 261.613 75.4361 261.853 75.5561 262C75.6761 262.133 75.8094 262.227 75.9561 262.28C76.1161 262.333 76.2561 262.373 76.3761 262.4C76.4961 262.427 76.5561 262.493 76.5561 262.6C76.5561 262.893 76.5161 263.193 76.4361 263.5C76.3561 263.807 76.2228 264.087 76.0361 264.34C75.8628 264.593 75.6161 264.8 75.2961 264.96C74.9894 265.12 74.6094 265.2 74.1561 265.2C73.5161 265.2 73.0361 265.047 72.7161 264.74C72.3961 264.433 72.1828 264.007 72.0761 263.46C71.7561 263.927 71.3361 264.333 70.8161 264.68C70.3094 265.027 69.6428 265.2 68.8161 265.2C68.4161 265.2 68.0361 265.153 67.6761 265.06C67.3294 264.967 67.0228 264.813 66.7561 264.6C66.5028 264.387 66.2961 264.113 66.1361 263.78C65.9894 263.433 65.9161 263.02 65.9161 262.54ZM72.1361 260.26C71.7894 260.26 71.4494 260.287 71.1161 260.34C70.7828 260.393 70.4828 260.48 70.2161 260.6C69.9628 260.707 69.7561 260.853 69.5961 261.04C69.4361 261.227 69.3561 261.453 69.3561 261.72C69.3561 262.027 69.4494 262.24 69.6361 262.36C69.8361 262.48 70.0494 262.54 70.2761 262.54C70.4894 262.54 70.7028 262.493 70.9161 262.4C71.1294 262.307 71.3161 262.167 71.4761 261.98C71.6494 261.78 71.7961 261.54 71.9161 261.26C72.0361 260.98 72.1094 260.647 72.1361 260.26ZM81.8456 253.8C82.979 253.8 83.8123 254.027 84.3456 254.48C84.879 254.92 85.1456 255.487 85.1456 256.18C85.1456 256.767 84.959 257.213 84.5856 257.52C84.2256 257.827 83.699 257.98 83.0056 257.98C82.819 257.98 82.6923 257.96 82.6256 257.92C82.559 257.88 82.5256 257.807 82.5256 257.7C82.5256 257.58 82.5123 257.447 82.4856 257.3C82.4723 257.14 82.4256 256.993 82.3456 256.86C82.279 256.713 82.1656 256.593 82.0056 256.5C81.859 256.407 81.6456 256.36 81.3656 256.36C80.9923 256.36 80.6923 256.453 80.4656 256.64C80.239 256.813 80.1256 257.033 80.1256 257.3C80.1256 257.58 80.239 257.807 80.4656 257.98C80.7056 258.14 80.999 258.293 81.3456 258.44C81.7056 258.587 82.0923 258.74 82.5056 258.9C82.919 259.047 83.299 259.247 83.6456 259.5C84.0056 259.753 84.299 260.073 84.5256 260.46C84.7656 260.833 84.8856 261.32 84.8856 261.92C84.8856 262.88 84.5456 263.667 83.8656 264.28C83.1856 264.893 82.1656 265.2 80.8056 265.2C80.4323 265.2 79.999 265.167 79.5056 265.1C79.0256 265.047 78.5656 264.96 78.1256 264.84C77.6856 264.707 77.3123 264.533 77.0056 264.32C76.7123 264.107 76.5656 263.84 76.5656 263.52C76.5656 263.4 76.5856 263.253 76.6256 263.08C76.679 262.907 76.7523 262.74 76.8456 262.58C76.9523 262.42 77.0723 262.287 77.2056 262.18C77.3523 262.06 77.5256 262 77.7256 262C77.8856 262 78.0323 262.04 78.1656 262.12C78.299 262.2 78.4523 262.287 78.6256 262.38C78.8123 262.46 79.039 262.54 79.3056 262.62C79.5723 262.7 79.9256 262.74 80.3656 262.74C80.699 262.74 80.9923 262.7 81.2456 262.62C81.5123 262.54 81.6456 262.36 81.6456 262.08C81.6456 261.827 81.539 261.627 81.3256 261.48C81.1123 261.32 80.839 261.173 80.5056 261.04C80.1856 260.907 79.8323 260.767 79.4456 260.62C79.0723 260.46 78.719 260.253 78.3856 260C78.0656 259.747 77.799 259.427 77.5856 259.04C77.3723 258.64 77.2656 258.127 77.2656 257.5C77.2656 256.82 77.399 256.247 77.6656 255.78C77.9456 255.3 78.299 254.913 78.7256 254.62C79.1656 254.327 79.659 254.12 80.2056 254C80.7523 253.867 81.299 253.8 81.8456 253.8ZM90.2802 256.7C90.2402 257.207 90.1935 257.707 90.1402 258.2C90.1002 258.693 90.0602 259.16 90.0202 259.6C89.9802 260.04 89.9468 260.433 89.9202 260.78C89.9068 261.127 89.9002 261.393 89.9002 261.58C89.9002 261.927 89.9402 262.16 90.0202 262.28C90.1002 262.387 90.2335 262.44 90.4202 262.44C90.5668 262.44 90.6935 262.413 90.8002 262.36C90.9068 262.307 91.0068 262.247 91.1002 262.18C91.1935 262.113 91.2735 262.053 91.3402 262C91.4202 261.947 91.5068 261.92 91.6002 261.92C91.6935 261.92 91.7802 261.973 91.8602 262.08C91.9402 262.187 91.9802 262.433 91.9802 262.82C91.9802 263.553 91.7802 264.133 91.3802 264.56C90.9802 264.987 90.2935 265.2 89.3202 265.2C88.3602 265.2 87.6468 264.98 87.1802 264.54C86.7268 264.087 86.5002 263.4 86.5002 262.48C86.5002 262.28 86.5068 262.047 86.5202 261.78C86.5468 261.5 86.5802 261.14 86.6202 260.7C86.6602 260.26 86.7068 259.72 86.7602 259.08C86.8268 258.44 86.8935 257.647 86.9602 256.7H85.9002C85.7935 256.7 85.7268 256.68 85.7002 256.64C85.6868 256.587 85.6802 256.513 85.6802 256.42L85.7402 255.4C85.7535 255.227 85.7735 255.06 85.8002 254.9C85.8402 254.727 85.9068 254.573 86.0002 254.44C86.1068 254.307 86.2535 254.2 86.4402 254.12C86.6268 254.04 86.8735 254 87.1802 254C87.2735 253.76 87.3802 253.473 87.5002 253.14C87.6202 252.807 87.7402 252.487 87.8602 252.18C87.9802 251.86 88.0935 251.593 88.2002 251.38C88.3202 251.167 88.4268 251.06 88.5202 251.06H89.1002C89.6602 251.06 90.0468 251.233 90.2602 251.58C90.4735 251.927 90.5802 252.34 90.5802 252.82C90.5802 253.087 90.5602 253.48 90.5202 254H92.6202C92.8335 254 92.9402 254.093 92.9402 254.28L92.8602 255.36C92.8335 255.76 92.7202 256.087 92.5202 256.34C92.3335 256.58 91.9402 256.7 91.3402 256.7H90.2802ZM97.8517 265.2C97.265 265.2 96.6784 265.127 96.0917 264.98C95.5184 264.833 94.9984 264.58 94.5317 264.22C94.0784 263.86 93.705 263.38 93.4117 262.78C93.1184 262.18 92.9717 261.427 92.9717 260.52C92.9717 260.187 92.9984 259.787 93.0517 259.32C93.105 258.853 93.205 258.373 93.3517 257.88C93.5117 257.387 93.725 256.9 93.9917 256.42C94.2717 255.927 94.6317 255.487 95.0717 255.1C95.5117 254.713 96.045 254.4 96.6717 254.16C97.2984 253.92 98.045 253.8 98.9117 253.8C99.605 253.8 100.192 253.88 100.672 254.04C101.152 254.2 101.538 254.42 101.832 254.7C102.125 254.967 102.338 255.28 102.472 255.64C102.605 256 102.672 256.387 102.672 256.8C102.672 257.413 102.545 257.933 102.292 258.36C102.052 258.787 101.732 259.147 101.332 259.44C100.945 259.72 100.512 259.94 100.032 260.1C99.5517 260.26 99.0784 260.387 98.6117 260.48C98.145 260.56 97.7117 260.613 97.3117 260.64C96.925 260.653 96.625 260.66 96.4117 260.66C96.4117 260.913 96.445 261.167 96.5117 261.42C96.5917 261.66 96.705 261.873 96.8517 262.06C96.9984 262.247 97.1917 262.4 97.4317 262.52C97.6717 262.64 97.965 262.7 98.3117 262.7C98.6584 262.7 98.925 262.647 99.1117 262.54C99.3117 262.42 99.4717 262.293 99.5917 262.16C99.7117 262.013 99.8117 261.887 99.8917 261.78C99.985 261.66 100.105 261.6 100.252 261.6C100.318 261.6 100.432 261.62 100.592 261.66C100.765 261.687 100.938 261.753 101.112 261.86C101.285 261.967 101.438 262.113 101.572 262.3C101.705 262.487 101.772 262.727 101.772 263.02C101.772 263.407 101.652 263.74 101.412 264.02C101.172 264.3 100.858 264.527 100.472 264.7C100.098 264.873 99.6784 265 99.2117 265.08C98.745 265.16 98.2917 265.2 97.8517 265.2ZM98.2317 256.46C97.9384 256.46 97.685 256.547 97.4717 256.72C97.2717 256.88 97.0984 257.087 96.9517 257.34C96.8184 257.593 96.7117 257.873 96.6317 258.18C96.565 258.487 96.5117 258.78 96.4717 259.06C97.2984 259.047 97.965 258.907 98.4717 258.64C98.9917 258.373 99.2517 257.993 99.2517 257.5C99.2517 257.233 99.165 256.993 98.9917 256.78C98.8317 256.567 98.5784 256.46 98.2317 256.46ZM119.853 254.34C119.746 254.66 119.606 255.08 119.433 255.6C119.273 256.107 119.093 256.667 118.893 257.28C118.693 257.893 118.486 258.547 118.273 259.24C118.06 259.92 117.84 260.587 117.613 261.24C117.4 261.893 117.186 262.52 116.973 263.12C116.76 263.707 116.566 264.22 116.393 264.66C116.34 264.767 116.226 264.853 116.053 264.92C115.893 264.973 115.633 265 115.273 265C115.046 265 114.813 264.987 114.573 264.96C114.333 264.933 114.106 264.88 113.893 264.8C113.693 264.72 113.513 264.613 113.353 264.48C113.206 264.347 113.093 264.18 113.013 263.98C112.813 263.3 112.62 262.547 112.433 261.72C112.26 260.88 112.086 260.027 111.913 259.16C111.74 258.293 111.566 257.447 111.393 256.62C111.233 255.78 111.066 255.02 110.893 254.34C110.893 254.527 110.886 254.847 110.873 255.3C110.86 255.753 110.846 256.28 110.833 256.88C110.82 257.48 110.8 258.127 110.773 258.82C110.76 259.513 110.746 260.193 110.733 260.86C110.72 261.513 110.706 262.127 110.693 262.7C110.68 263.26 110.673 263.72 110.673 264.08C110.673 264.48 110.646 264.733 110.593 264.84C110.553 264.947 110.473 265 110.353 265H109.253C108.493 265 107.953 264.853 107.633 264.56C107.326 264.253 107.173 263.807 107.173 263.22C107.173 263.06 107.18 262.793 107.193 262.42C107.22 262.033 107.253 261.58 107.293 261.06C107.333 260.54 107.373 259.973 107.413 259.36C107.466 258.733 107.52 258.1 107.573 257.46C107.64 256.593 107.693 255.873 107.733 255.3C107.786 254.713 107.826 254.227 107.853 253.84C107.88 253.453 107.9 253.14 107.913 252.9C107.94 252.66 107.953 252.447 107.953 252.26C107.966 252.073 107.973 251.9 107.973 251.74C107.986 251.567 107.993 251.353 107.993 251.1C107.993 250.993 108.033 250.92 108.113 250.88C108.193 250.827 108.266 250.8 108.333 250.8H111.133C111.653 250.8 112.08 250.887 112.413 251.06C112.746 251.22 113.02 251.473 113.233 251.82C113.446 252.167 113.62 252.62 113.753 253.18C113.886 253.727 114.006 254.38 114.113 255.14C114.233 255.9 114.36 256.78 114.493 257.78C114.64 258.767 114.826 259.88 115.053 261.12C115.266 260.293 115.446 259.607 115.593 259.06C115.74 258.513 115.86 258.06 115.953 257.7C116.06 257.327 116.146 257.02 116.213 256.78C116.28 256.54 116.34 256.32 116.393 256.12C116.446 255.907 116.506 255.68 116.573 255.44C116.64 255.2 116.72 254.9 116.813 254.54C116.906 254.18 117.02 253.733 117.153 253.2C117.3 252.653 117.48 251.967 117.693 251.14C117.72 251.06 117.766 250.987 117.833 250.92C117.9 250.84 118.02 250.8 118.193 250.8H121.313C121.74 250.8 122.08 250.847 122.333 250.94C122.6 251.02 122.806 251.14 122.953 251.3C123.1 251.46 123.2 251.66 123.253 251.9C123.306 252.127 123.333 252.393 123.333 252.7C123.333 253.007 123.313 253.507 123.273 254.2C123.246 254.88 123.2 255.653 123.133 256.52C123.08 257.373 123.02 258.26 122.953 259.18C122.9 260.1 122.84 260.953 122.773 261.74C122.72 262.527 122.673 263.193 122.633 263.74C122.593 264.287 122.566 264.607 122.553 264.7C122.54 264.807 122.513 264.887 122.473 264.94C122.433 264.98 122.353 265 122.233 265H121.133C120.373 265 119.833 264.853 119.513 264.56C119.206 264.253 119.053 263.86 119.053 263.38C119.053 263.233 119.066 262.967 119.093 262.58C119.133 262.193 119.18 261.74 119.233 261.22C119.286 260.7 119.346 260.133 119.413 259.52C119.48 258.893 119.54 258.273 119.593 257.66C119.646 257.047 119.693 256.453 119.733 255.88C119.786 255.293 119.826 254.78 119.853 254.34ZM123.937 262.54C123.937 261.34 124.477 260.4 125.557 259.72C126.637 259.04 128.231 258.673 130.337 258.62C130.351 258.473 130.357 258.353 130.357 258.26C130.371 258.153 130.377 258.027 130.377 257.88C130.377 257.453 130.297 257.113 130.137 256.86C129.977 256.607 129.644 256.48 129.137 256.48C128.857 256.48 128.631 256.52 128.457 256.6C128.284 256.68 128.144 256.793 128.037 256.94C127.931 257.073 127.844 257.24 127.777 257.44C127.711 257.64 127.651 257.86 127.597 258.1C127.571 258.22 127.511 258.3 127.417 258.34C127.324 258.367 127.177 258.38 126.977 258.38C125.617 258.38 124.937 257.867 124.937 256.84C124.937 256.427 125.031 256.033 125.217 255.66C125.417 255.287 125.704 254.967 126.077 254.7C126.464 254.42 126.944 254.2 127.517 254.04C128.091 253.88 128.757 253.8 129.517 253.8C130.997 253.8 132.071 254.107 132.737 254.72C133.404 255.333 133.737 256.2 133.737 257.32C133.737 257.467 133.717 257.733 133.677 258.12C133.651 258.493 133.611 258.893 133.557 259.32C133.517 259.733 133.477 260.127 133.437 260.5C133.411 260.873 133.397 261.133 133.397 261.28C133.397 261.613 133.457 261.853 133.577 262C133.697 262.133 133.831 262.227 133.977 262.28C134.137 262.333 134.277 262.373 134.397 262.4C134.517 262.427 134.577 262.493 134.577 262.6C134.577 262.893 134.537 263.193 134.457 263.5C134.377 263.807 134.244 264.087 134.057 264.34C133.884 264.593 133.637 264.8 133.317 264.96C133.011 265.12 132.631 265.2 132.177 265.2C131.537 265.2 131.057 265.047 130.737 264.74C130.417 264.433 130.204 264.007 130.097 263.46C129.777 263.927 129.357 264.333 128.837 264.68C128.331 265.027 127.664 265.2 126.837 265.2C126.437 265.2 126.057 265.153 125.697 265.06C125.351 264.967 125.044 264.813 124.777 264.6C124.524 264.387 124.317 264.113 124.157 263.78C124.011 263.433 123.937 263.02 123.937 262.54ZM130.157 260.26C129.811 260.26 129.471 260.287 129.137 260.34C128.804 260.393 128.504 260.48 128.237 260.6C127.984 260.707 127.777 260.853 127.617 261.04C127.457 261.227 127.377 261.453 127.377 261.72C127.377 262.027 127.471 262.24 127.657 262.36C127.857 262.48 128.071 262.54 128.297 262.54C128.511 262.54 128.724 262.493 128.937 262.4C129.151 262.307 129.337 262.167 129.497 261.98C129.671 261.78 129.817 261.54 129.937 261.26C130.057 260.98 130.131 260.647 130.157 260.26ZM142.027 263.24C142.027 262.947 142.047 262.567 142.087 262.1C142.14 261.62 142.187 261.12 142.227 260.6C142.28 260.067 142.327 259.553 142.367 259.06C142.42 258.567 142.447 258.153 142.447 257.82C142.447 257.473 142.36 257.167 142.187 256.9C142.027 256.62 141.707 256.48 141.227 256.48C140.76 256.48 140.373 256.593 140.067 256.82C139.76 257.047 139.5 257.46 139.287 258.06C139.087 258.66 138.92 259.487 138.787 260.54C138.653 261.593 138.527 262.947 138.407 264.6C138.393 264.76 138.36 264.867 138.307 264.92C138.253 264.973 138.14 265 137.967 265H137.247C136.833 265 136.493 264.96 136.227 264.88C135.973 264.787 135.767 264.66 135.607 264.5C135.46 264.34 135.353 264.147 135.287 263.92C135.233 263.68 135.207 263.407 135.207 263.1C135.207 262.9 135.213 262.62 135.227 262.26C135.253 261.887 135.293 261.38 135.347 260.74C135.4 260.087 135.46 259.267 135.527 258.28C135.607 257.28 135.7 256.047 135.807 254.58C135.82 254.287 135.853 254.113 135.907 254.06C135.947 254.02 136.053 254 136.227 254H137.007C137.407 254 137.733 254.047 137.987 254.14C138.253 254.233 138.467 254.36 138.627 254.52C138.787 254.667 138.9 254.847 138.967 255.06C139.033 255.26 139.073 255.467 139.087 255.68C139.5 254.973 139.973 254.487 140.507 254.22C141.04 253.94 141.707 253.8 142.507 253.8C143.067 253.8 143.553 253.86 143.967 253.98C144.38 254.1 144.72 254.307 144.987 254.6C145.267 254.88 145.473 255.253 145.607 255.72C145.74 256.173 145.807 256.74 145.807 257.42C145.807 257.633 145.793 257.94 145.767 258.34C145.74 258.74 145.707 259.18 145.667 259.66C145.627 260.127 145.58 260.62 145.527 261.14C145.487 261.647 145.447 262.12 145.407 262.56C145.367 263 145.333 263.387 145.307 263.72C145.28 264.053 145.267 264.273 145.267 264.38C145.267 264.673 145.233 264.853 145.167 264.92C145.1 264.973 144.953 265 144.727 265H144.087C143.66 265 143.313 264.96 143.047 264.88C142.78 264.8 142.573 264.687 142.427 264.54C142.28 264.393 142.173 264.213 142.107 264C142.053 263.773 142.027 263.52 142.027 263.24ZM146.39 262.54C146.39 261.34 146.93 260.4 148.01 259.72C149.09 259.04 150.683 258.673 152.79 258.62C152.803 258.473 152.81 258.353 152.81 258.26C152.823 258.153 152.83 258.027 152.83 257.88C152.83 257.453 152.75 257.113 152.59 256.86C152.43 256.607 152.096 256.48 151.59 256.48C151.31 256.48 151.083 256.52 150.91 256.6C150.736 256.68 150.596 256.793 150.49 256.94C150.383 257.073 150.296 257.24 150.23 257.44C150.163 257.64 150.103 257.86 150.05 258.1C150.023 258.22 149.963 258.3 149.87 258.34C149.776 258.367 149.63 258.38 149.43 258.38C148.07 258.38 147.39 257.867 147.39 256.84C147.39 256.427 147.483 256.033 147.67 255.66C147.87 255.287 148.156 254.967 148.53 254.7C148.916 254.42 149.396 254.2 149.97 254.04C150.543 253.88 151.21 253.8 151.97 253.8C153.45 253.8 154.523 254.107 155.19 254.72C155.856 255.333 156.19 256.2 156.19 257.32C156.19 257.467 156.17 257.733 156.13 258.12C156.103 258.493 156.063 258.893 156.01 259.32C155.97 259.733 155.93 260.127 155.89 260.5C155.863 260.873 155.85 261.133 155.85 261.28C155.85 261.613 155.91 261.853 156.03 262C156.15 262.133 156.283 262.227 156.43 262.28C156.59 262.333 156.73 262.373 156.85 262.4C156.97 262.427 157.03 262.493 157.03 262.6C157.03 262.893 156.99 263.193 156.91 263.5C156.83 263.807 156.696 264.087 156.51 264.34C156.336 264.593 156.09 264.8 155.77 264.96C155.463 265.12 155.083 265.2 154.63 265.2C153.99 265.2 153.51 265.047 153.19 264.74C152.87 264.433 152.656 264.007 152.55 263.46C152.23 263.927 151.81 264.333 151.29 264.68C150.783 265.027 150.116 265.2 149.29 265.2C148.89 265.2 148.51 265.153 148.15 265.06C147.803 264.967 147.496 264.813 147.23 264.6C146.976 264.387 146.77 264.113 146.61 263.78C146.463 263.433 146.39 263.02 146.39 262.54ZM152.61 260.26C152.263 260.26 151.923 260.287 151.59 260.34C151.256 260.393 150.956 260.48 150.69 260.6C150.436 260.707 150.23 260.853 150.07 261.04C149.91 261.227 149.83 261.453 149.83 261.72C149.83 262.027 149.923 262.24 150.11 262.36C150.31 262.48 150.523 262.54 150.75 262.54C150.963 262.54 151.176 262.493 151.39 262.4C151.603 262.307 151.79 262.167 151.95 261.98C152.123 261.78 152.27 261.54 152.39 261.26C152.51 260.98 152.583 260.647 152.61 260.26ZM164.199 262.64C163.866 263.24 163.459 263.687 162.979 263.98C162.499 264.26 161.899 264.4 161.179 264.4C160.632 264.4 160.132 264.313 159.679 264.14C159.226 263.967 158.839 263.693 158.519 263.32C158.199 262.947 157.946 262.48 157.759 261.92C157.586 261.347 157.499 260.667 157.499 259.88C157.499 259.24 157.566 258.567 157.699 257.86C157.832 257.14 158.072 256.48 158.419 255.88C158.779 255.28 159.266 254.787 159.879 254.4C160.492 254 161.279 253.8 162.239 253.8C162.639 253.8 162.979 253.847 163.259 253.94C163.552 254.02 163.799 254.133 163.999 254.28C164.212 254.427 164.379 254.6 164.499 254.8C164.632 255 164.732 255.213 164.799 255.44C164.799 255.453 164.799 255.407 164.799 255.3C164.812 255.18 164.826 255.047 164.839 254.9C164.852 254.753 164.859 254.613 164.859 254.48C164.872 254.333 164.879 254.24 164.879 254.2C164.892 254.067 164.979 254 165.139 254H166.059C166.752 254 167.252 254.147 167.559 254.44C167.879 254.72 168.039 255.26 168.039 256.06C168.039 256.167 168.032 256.413 168.019 256.8C168.006 257.173 167.979 257.627 167.939 258.16C167.912 258.693 167.872 259.287 167.819 259.94C167.766 260.58 167.706 261.227 167.639 261.88C167.572 262.533 167.499 263.16 167.419 263.76C167.339 264.36 167.252 264.887 167.159 265.34C167.066 265.793 166.906 266.233 166.679 266.66C166.452 267.087 166.132 267.467 165.719 267.8C165.306 268.133 164.772 268.4 164.119 268.6C163.479 268.8 162.692 268.9 161.759 268.9C161.052 268.9 160.432 268.833 159.899 268.7C159.379 268.567 158.946 268.387 158.599 268.16C158.252 267.947 157.986 267.7 157.799 267.42C157.626 267.14 157.539 266.86 157.539 266.58C157.539 266.327 157.592 266.107 157.699 265.92C157.806 265.733 157.946 265.58 158.119 265.46C158.292 265.34 158.479 265.247 158.679 265.18C158.892 265.127 159.092 265.1 159.279 265.1C159.506 265.1 159.672 265.167 159.779 265.3C159.886 265.433 160.006 265.58 160.139 265.74C160.272 265.913 160.459 266.067 160.699 266.2C160.939 266.333 161.312 266.4 161.819 266.4C162.699 266.4 163.312 266.073 163.659 265.42C164.019 264.78 164.199 263.853 164.199 262.64ZM162.519 261.74C162.999 261.74 163.372 261.627 163.639 261.4C163.919 261.173 164.132 260.9 164.279 260.58C164.426 260.26 164.519 259.927 164.559 259.58C164.599 259.233 164.619 258.933 164.619 258.68C164.619 257.88 164.492 257.313 164.239 256.98C163.999 256.633 163.632 256.46 163.139 256.46C162.646 256.46 162.259 256.593 161.979 256.86C161.699 257.127 161.486 257.447 161.339 257.82C161.206 258.18 161.119 258.547 161.079 258.92C161.039 259.28 161.019 259.56 161.019 259.76C161.019 260.427 161.132 260.927 161.359 261.26C161.586 261.58 161.972 261.74 162.519 261.74ZM173.827 265.2C173.241 265.2 172.654 265.127 172.067 264.98C171.494 264.833 170.974 264.58 170.507 264.22C170.054 263.86 169.681 263.38 169.387 262.78C169.094 262.18 168.947 261.427 168.947 260.52C168.947 260.187 168.974 259.787 169.027 259.32C169.081 258.853 169.181 258.373 169.327 257.88C169.487 257.387 169.701 256.9 169.967 256.42C170.247 255.927 170.607 255.487 171.047 255.1C171.487 254.713 172.021 254.4 172.647 254.16C173.274 253.92 174.021 253.8 174.887 253.8C175.581 253.8 176.167 253.88 176.647 254.04C177.127 254.2 177.514 254.42 177.807 254.7C178.101 254.967 178.314 255.28 178.447 255.64C178.581 256 178.647 256.387 178.647 256.8C178.647 257.413 178.521 257.933 178.267 258.36C178.027 258.787 177.707 259.147 177.307 259.44C176.921 259.72 176.487 259.94 176.007 260.1C175.527 260.26 175.054 260.387 174.587 260.48C174.121 260.56 173.687 260.613 173.287 260.64C172.901 260.653 172.601 260.66 172.387 260.66C172.387 260.913 172.421 261.167 172.487 261.42C172.567 261.66 172.681 261.873 172.827 262.06C172.974 262.247 173.167 262.4 173.407 262.52C173.647 262.64 173.941 262.7 174.287 262.7C174.634 262.7 174.901 262.647 175.087 262.54C175.287 262.42 175.447 262.293 175.567 262.16C175.687 262.013 175.787 261.887 175.867 261.78C175.961 261.66 176.081 261.6 176.227 261.6C176.294 261.6 176.407 261.62 176.567 261.66C176.741 261.687 176.914 261.753 177.087 261.86C177.261 261.967 177.414 262.113 177.547 262.3C177.681 262.487 177.747 262.727 177.747 263.02C177.747 263.407 177.627 263.74 177.387 264.02C177.147 264.3 176.834 264.527 176.447 264.7C176.074 264.873 175.654 265 175.187 265.08C174.721 265.16 174.267 265.2 173.827 265.2ZM174.207 256.46C173.914 256.46 173.661 256.547 173.447 256.72C173.247 256.88 173.074 257.087 172.927 257.34C172.794 257.593 172.687 257.873 172.607 258.18C172.541 258.487 172.487 258.78 172.447 259.06C173.274 259.047 173.941 258.907 174.447 258.64C174.967 258.373 175.227 257.993 175.227 257.5C175.227 257.233 175.141 256.993 174.967 256.78C174.807 256.567 174.554 256.46 174.207 256.46ZM182.712 261.4C182.672 262.013 182.625 262.6 182.572 263.16C182.519 263.707 182.479 264.187 182.452 264.6C182.439 264.76 182.405 264.867 182.352 264.92C182.299 264.973 182.185 265 182.012 265H181.292C180.879 265 180.539 264.96 180.272 264.88C180.019 264.787 179.812 264.66 179.652 264.5C179.505 264.34 179.399 264.147 179.332 263.92C179.279 263.68 179.252 263.407 179.252 263.1C179.252 262.9 179.259 262.62 179.272 262.26C179.299 261.887 179.339 261.38 179.392 260.74C179.445 260.087 179.505 259.267 179.572 258.28C179.652 257.28 179.745 256.047 179.852 254.58C179.865 254.287 179.899 254.113 179.952 254.06C179.992 254.02 180.099 254 180.272 254H181.052C181.452 254 181.779 254.047 182.032 254.14C182.285 254.233 182.492 254.353 182.652 254.5C182.812 254.647 182.925 254.82 182.992 255.02C183.059 255.22 183.099 255.427 183.112 255.64C183.499 254.92 183.939 254.433 184.432 254.18C184.925 253.927 185.505 253.8 186.172 253.8C186.532 253.8 186.879 253.833 187.212 253.9C187.545 253.967 187.845 254.08 188.112 254.24C188.379 254.4 188.605 254.613 188.792 254.88C188.979 255.133 189.112 255.46 189.192 255.86C189.605 255.087 190.059 254.553 190.552 254.26C191.045 253.953 191.665 253.8 192.412 253.8C192.825 253.8 193.219 253.847 193.592 253.94C193.979 254.02 194.312 254.167 194.592 254.38C194.872 254.593 195.092 254.887 195.252 255.26C195.425 255.62 195.512 256.073 195.512 256.62C195.512 257.033 195.492 257.54 195.452 258.14C195.412 258.74 195.365 259.393 195.312 260.1C195.259 260.793 195.199 261.513 195.132 262.26C195.065 262.993 195.012 263.7 194.972 264.38C194.959 264.527 194.945 264.64 194.932 264.72C194.919 264.8 194.892 264.86 194.852 264.9C194.825 264.94 194.779 264.967 194.712 264.98C194.645 264.993 194.552 265 194.432 265H193.792C193.365 265 193.019 264.96 192.752 264.88C192.485 264.8 192.279 264.687 192.132 264.54C191.985 264.393 191.879 264.213 191.812 264C191.759 263.773 191.732 263.52 191.732 263.24C191.732 263.067 191.739 262.82 191.752 262.5C191.779 262.18 191.805 261.833 191.832 261.46C191.872 261.087 191.905 260.7 191.932 260.3C191.972 259.9 192.005 259.533 192.032 259.2C192.072 258.853 192.099 258.553 192.112 258.3C192.139 258.047 192.152 257.88 192.152 257.8C192.152 257.453 192.079 257.147 191.932 256.88C191.799 256.613 191.532 256.48 191.132 256.48C190.785 256.48 190.485 256.593 190.232 256.82C189.979 257.047 189.765 257.36 189.592 257.76C189.419 258.16 189.279 258.633 189.172 259.18C189.065 259.727 188.992 260.32 188.952 260.96C188.925 261.373 188.892 261.847 188.852 262.38C188.812 262.913 188.765 263.58 188.712 264.38C188.699 264.527 188.685 264.64 188.672 264.72C188.659 264.8 188.632 264.86 188.592 264.9C188.565 264.94 188.519 264.967 188.452 264.98C188.385 264.993 188.292 265 188.172 265H187.532C187.105 265 186.759 264.96 186.492 264.88C186.225 264.8 186.019 264.687 185.872 264.54C185.725 264.393 185.619 264.213 185.552 264C185.499 263.773 185.472 263.52 185.472 263.24C185.472 262.973 185.492 262.587 185.532 262.08C185.585 261.56 185.632 261.027 185.672 260.48C185.725 259.92 185.772 259.393 185.812 258.9C185.865 258.393 185.892 258.027 185.892 257.8C185.892 257.453 185.819 257.147 185.672 256.88C185.539 256.613 185.272 256.48 184.872 256.48C184.512 256.48 184.205 256.613 183.952 256.88C183.699 257.147 183.485 257.507 183.312 257.96C183.152 258.4 183.019 258.92 182.912 259.52C182.819 260.12 182.752 260.747 182.712 261.4ZM201.319 265.2C200.732 265.2 200.146 265.127 199.559 264.98C198.986 264.833 198.466 264.58 197.999 264.22C197.546 263.86 197.172 263.38 196.879 262.78C196.586 262.18 196.439 261.427 196.439 260.52C196.439 260.187 196.466 259.787 196.519 259.32C196.572 258.853 196.672 258.373 196.819 257.88C196.979 257.387 197.192 256.9 197.459 256.42C197.739 255.927 198.099 255.487 198.539 255.1C198.979 254.713 199.512 254.4 200.139 254.16C200.766 253.92 201.512 253.8 202.379 253.8C203.072 253.8 203.659 253.88 204.139 254.04C204.619 254.2 205.006 254.42 205.299 254.7C205.592 254.967 205.806 255.28 205.939 255.64C206.072 256 206.139 256.387 206.139 256.8C206.139 257.413 206.012 257.933 205.759 258.36C205.519 258.787 205.199 259.147 204.799 259.44C204.412 259.72 203.979 259.94 203.499 260.1C203.019 260.26 202.546 260.387 202.079 260.48C201.612 260.56 201.179 260.613 200.779 260.64C200.392 260.653 200.092 260.66 199.879 260.66C199.879 260.913 199.912 261.167 199.979 261.42C200.059 261.66 200.172 261.873 200.319 262.06C200.466 262.247 200.659 262.4 200.899 262.52C201.139 262.64 201.432 262.7 201.779 262.7C202.126 262.7 202.392 262.647 202.579 262.54C202.779 262.42 202.939 262.293 203.059 262.16C203.179 262.013 203.279 261.887 203.359 261.78C203.452 261.66 203.572 261.6 203.719 261.6C203.786 261.6 203.899 261.62 204.059 261.66C204.232 261.687 204.406 261.753 204.579 261.86C204.752 261.967 204.906 262.113 205.039 262.3C205.172 262.487 205.239 262.727 205.239 263.02C205.239 263.407 205.119 263.74 204.879 264.02C204.639 264.3 204.326 264.527 203.939 264.7C203.566 264.873 203.146 265 202.679 265.08C202.212 265.16 201.759 265.2 201.319 265.2ZM201.699 256.46C201.406 256.46 201.152 256.547 200.939 256.72C200.739 256.88 200.566 257.087 200.419 257.34C200.286 257.593 200.179 257.873 200.099 258.18C200.032 258.487 199.979 258.78 199.939 259.06C200.766 259.047 201.432 258.907 201.939 258.64C202.459 258.373 202.719 257.993 202.719 257.5C202.719 257.233 202.632 256.993 202.459 256.78C202.299 256.567 202.046 256.46 201.699 256.46ZM213.563 263.24C213.563 262.947 213.583 262.567 213.623 262.1C213.677 261.62 213.723 261.12 213.763 260.6C213.817 260.067 213.863 259.553 213.903 259.06C213.957 258.567 213.983 258.153 213.983 257.82C213.983 257.473 213.897 257.167 213.723 256.9C213.563 256.62 213.243 256.48 212.763 256.48C212.297 256.48 211.91 256.593 211.603 256.82C211.297 257.047 211.037 257.46 210.823 258.06C210.623 258.66 210.457 259.487 210.323 260.54C210.19 261.593 210.063 262.947 209.943 264.6C209.93 264.76 209.897 264.867 209.843 264.92C209.79 264.973 209.677 265 209.503 265H208.783C208.37 265 208.03 264.96 207.763 264.88C207.51 264.787 207.303 264.66 207.143 264.5C206.997 264.34 206.89 264.147 206.823 263.92C206.77 263.68 206.743 263.407 206.743 263.1C206.743 262.9 206.75 262.62 206.763 262.26C206.79 261.887 206.83 261.38 206.883 260.74C206.937 260.087 206.997 259.267 207.063 258.28C207.143 257.28 207.237 256.047 207.343 254.58C207.357 254.287 207.39 254.113 207.443 254.06C207.483 254.02 207.59 254 207.763 254H208.543C208.943 254 209.27 254.047 209.523 254.14C209.79 254.233 210.003 254.36 210.163 254.52C210.323 254.667 210.437 254.847 210.503 255.06C210.57 255.26 210.61 255.467 210.623 255.68C211.037 254.973 211.51 254.487 212.043 254.22C212.577 253.94 213.243 253.8 214.043 253.8C214.603 253.8 215.09 253.86 215.503 253.98C215.917 254.1 216.257 254.307 216.523 254.6C216.803 254.88 217.01 255.253 217.143 255.72C217.277 256.173 217.343 256.74 217.343 257.42C217.343 257.633 217.33 257.94 217.303 258.34C217.277 258.74 217.243 259.18 217.203 259.66C217.163 260.127 217.117 260.62 217.063 261.14C217.023 261.647 216.983 262.12 216.943 262.56C216.903 263 216.87 263.387 216.843 263.72C216.817 264.053 216.803 264.273 216.803 264.38C216.803 264.673 216.77 264.853 216.703 264.92C216.637 264.973 216.49 265 216.263 265H215.623C215.197 265 214.85 264.96 214.583 264.88C214.317 264.8 214.11 264.687 213.963 264.54C213.817 264.393 213.71 264.213 213.643 264C213.59 263.773 213.563 263.52 213.563 263.24ZM222.826 256.7C222.786 257.207 222.74 257.707 222.686 258.2C222.646 258.693 222.606 259.16 222.566 259.6C222.526 260.04 222.493 260.433 222.466 260.78C222.453 261.127 222.446 261.393 222.446 261.58C222.446 261.927 222.486 262.16 222.566 262.28C222.646 262.387 222.78 262.44 222.966 262.44C223.113 262.44 223.24 262.413 223.346 262.36C223.453 262.307 223.553 262.247 223.646 262.18C223.74 262.113 223.82 262.053 223.886 262C223.966 261.947 224.053 261.92 224.146 261.92C224.24 261.92 224.326 261.973 224.406 262.08C224.486 262.187 224.526 262.433 224.526 262.82C224.526 263.553 224.326 264.133 223.926 264.56C223.526 264.987 222.84 265.2 221.866 265.2C220.906 265.2 220.193 264.98 219.726 264.54C219.273 264.087 219.046 263.4 219.046 262.48C219.046 262.28 219.053 262.047 219.066 261.78C219.093 261.5 219.126 261.14 219.166 260.7C219.206 260.26 219.253 259.72 219.306 259.08C219.373 258.44 219.44 257.647 219.506 256.7H218.446C218.34 256.7 218.273 256.68 218.246 256.64C218.233 256.587 218.226 256.513 218.226 256.42L218.286 255.4C218.3 255.227 218.32 255.06 218.346 254.9C218.386 254.727 218.453 254.573 218.546 254.44C218.653 254.307 218.8 254.2 218.986 254.12C219.173 254.04 219.42 254 219.726 254C219.82 253.76 219.926 253.473 220.046 253.14C220.166 252.807 220.286 252.487 220.406 252.18C220.526 251.86 220.64 251.593 220.746 251.38C220.866 251.167 220.973 251.06 221.066 251.06H221.646C222.206 251.06 222.593 251.233 222.806 251.58C223.02 251.927 223.126 252.34 223.126 252.82C223.126 253.087 223.106 253.48 223.066 254H225.166C225.38 254 225.486 254.093 225.486 254.28L225.406 255.36C225.38 255.76 225.266 256.087 225.066 256.34C224.88 256.58 224.486 256.7 223.886 256.7H222.826Z" fill="#0E7D2F"/>
<path d="M64.875 140.765L52.875 61.2646H179.375L168.375 143.765L158.875 148.765L158.375 80.7646C158.375 78.7646 156.375 74.7646 150.375 74.7646C144.761 74.7646 142.375 78.2646 142.375 80.7646V160.765L124.375 178.265L123.875 80.7646C123.875 78.7646 121.875 74.7646 116.375 74.7646C110.761 74.7646 107.875 78.2646 107.875 80.7646L108.375 175.265L90.875 158.265V80.7646C90.875 78.7646 88.375 74.7646 82.875 74.7646C77.2607 74.7646 74.375 78.2646 74.375 80.7646L73.875 146.265L64.875 140.765Z" fill="#1A6FC0"/>
<path d="M56.377 145.265C119.577 176.065 119.044 218.098 110.877 235.265C106.878 225.765 94.8765 211.265 85.8765 201.765C78.6765 194.165 50.5431 167.931 37.3765 155.765C37.3765 158.265 41.3765 170.265 56.377 184.765C82.3774 207.965 94.2102 229.431 96.8765 237.265C76.8765 239.265 22.875 222.265 4.87705 167.765C-8.75358 126.489 9.5437 92.2646 18.877 80.7646C16.0437 92.9313 19.577 122.865 56.377 145.265Z" fill="#02A702"/>
<path d="M4.87714 167.765C-8.75349 126.489 9.54379 92.2646 18.8771 80.7646C14.2104 94.598 7.77671 131.365 19.375 167.765C30.9733 204.165 75.8753 229.265 96.8766 237.265C76.8766 239.265 22.8751 222.265 4.87714 167.765Z" fill="#0E7D30"/>
<path d="M176.717 147.765C113.517 178.565 114.05 220.598 122.217 237.765C126.216 228.265 138.217 213.765 147.217 204.265C154.417 196.665 182.551 170.431 195.717 158.265C195.717 160.765 191.717 172.765 176.717 187.265C150.716 210.465 138.884 231.931 136.217 239.765C156.217 241.765 210.219 224.765 228.217 170.265C241.847 128.989 223.55 94.7646 214.217 83.2646C217.05 95.4313 213.517 125.365 176.717 147.765Z" fill="#02A901"/>
<path d="M228.373 170.265C242.003 128.989 223.706 94.7646 214.373 83.2646C219.04 97.098 225.473 133.865 213.875 170.265C202.277 206.665 157.375 231.765 136.373 239.765C156.373 241.765 210.375 224.765 228.373 170.265Z" fill="#0E7D2F"/>
<path d="M157.375 35.2646L158.181 40.4585L163.375 41.2646L158.181 42.0708L157.375 47.2646L156.569 42.0708L151.375 41.2646L156.569 40.4585L157.375 35.2646Z" fill="#01A800"/>
<path d="M166.375 23.2646L167.45 30.1898L174.375 31.2646L167.45 32.3395L166.375 39.2646L165.3 32.3395L158.375 31.2646L165.3 30.1898L166.375 23.2646Z" fill="#0E7D2F"/>
<path d="M183.875 29.2646L185.017 36.6227L192.375 37.7646L185.017 38.9066L183.875 46.2646L182.733 38.9066L175.375 37.7646L182.733 36.6227L183.875 29.2646Z" fill="#0E7D2F"/>
<path d="M198.375 23.2646L199.45 30.1898L206.375 31.2646L199.45 32.3395L198.375 39.2646L197.3 32.3395L190.375 31.2646L197.3 30.1898L198.375 23.2646Z" fill="#01A800"/>
<path d="M193.875 14.2646L194.614 19.0257L199.375 19.7646L194.614 20.5036L193.875 25.2646L193.136 20.5036L188.375 19.7646L193.136 19.0257L193.875 14.2646Z" fill="#01A800"/>
<rect x="35.0898" y="35.1074" width="150.897" height="13.9875" rx="6.99375" transform="rotate(-11.7219 35.0898 35.1074)" fill="#01A800"/>
<path d="M86.1685 21.9574C84.7098 14.9274 89.2263 8.04605 96.2562 6.58741L115.274 2.64152C122.304 1.18287 129.185 5.69933 130.644 12.7293L131.317 15.9773L86.8424 25.2054L86.1685 21.9574Z" fill="#03A901"/>
<rect x="39.375" y="50.2646" width="154" height="11" rx="5" fill="#1B6FC1"/>
<defs>
<linearGradient id="paint0_linear_864_1897" x1="235.27" y1="278.5" x2="-125.544" y2="278.5" gradientUnits="userSpaceOnUse">
<stop stop-color="#0284C7"/>
<stop offset="1" stop-color="#0C4A6E"/>
</linearGradient>
</defs>
</svg>
