<svg width="376" height="546" viewBox="0 0 376 546" fill="none" xmlns="http://www.w3.org/2000/svg">
<path d="M122.344 378.928V413.83H114.965V378.928H122.344ZM157.608 378.928V413.83H151.235L136.05 391.863H135.795V413.83H128.415V378.928H134.891L149.956 400.878H150.263V378.928H157.608ZM162.376 385.012V378.928H191.04V385.012H180.355V413.83H173.061V385.012H162.376ZM195.761 413.83V378.928H219.279V385.012H203.14V393.329H218.069V399.413H203.14V407.746H219.347V413.83H195.761ZM225.145 413.83V378.928H238.915C241.551 378.928 243.8 379.4 245.664 380.343C247.538 381.274 248.964 382.598 249.941 384.314C250.93 386.018 251.424 388.023 251.424 390.329C251.424 392.647 250.924 394.641 249.924 396.311C248.924 397.97 247.476 399.242 245.579 400.128C243.693 401.015 241.409 401.458 238.728 401.458H229.508V395.527H237.535C238.944 395.527 240.114 395.334 241.045 394.948C241.977 394.561 242.67 393.982 243.124 393.209C243.59 392.437 243.823 391.477 243.823 390.329C243.823 389.17 243.59 388.193 243.124 387.398C242.67 386.603 241.971 386.001 241.028 385.592C240.097 385.171 238.921 384.961 237.501 384.961H232.524V413.83H225.145ZM243.994 397.947L252.668 413.83H244.522L236.035 397.947H243.994ZM264.018 378.928V413.83H256.639V378.928H264.018ZM302.162 396.379C302.162 400.185 301.44 403.423 299.998 406.093C298.566 408.763 296.612 410.802 294.135 412.211C291.67 413.609 288.898 414.307 285.819 414.307C282.717 414.307 279.934 413.603 277.468 412.194C275.003 410.785 273.054 408.746 271.623 406.076C270.191 403.406 269.476 400.174 269.476 396.379C269.476 392.573 270.191 389.335 271.623 386.665C273.054 383.995 275.003 381.962 277.468 380.564C279.934 379.155 282.717 378.451 285.819 378.451C288.898 378.451 291.67 379.155 294.135 380.564C296.612 381.962 298.566 383.995 299.998 386.665C301.44 389.335 302.162 392.573 302.162 396.379ZM294.681 396.379C294.681 393.914 294.311 391.835 293.573 390.142C292.846 388.449 291.817 387.165 290.488 386.29C289.159 385.416 287.602 384.978 285.819 384.978C284.035 384.978 282.478 385.416 281.149 386.29C279.82 387.165 278.786 388.449 278.048 390.142C277.32 391.835 276.957 393.914 276.957 396.379C276.957 398.845 277.32 400.924 278.048 402.617C278.786 404.309 279.82 405.593 281.149 406.468C282.478 407.343 284.035 407.78 285.819 407.78C287.602 407.78 289.159 407.343 290.488 406.468C291.817 405.593 292.846 404.309 293.573 402.617C294.311 400.924 294.681 398.845 294.681 396.379ZM307.628 413.83V378.928H321.398C324.034 378.928 326.283 379.4 328.147 380.343C330.021 381.274 331.447 382.598 332.424 384.314C333.412 386.018 333.907 388.023 333.907 390.329C333.907 392.647 333.407 394.641 332.407 396.311C331.407 397.97 329.959 399.242 328.061 400.128C326.175 401.015 323.892 401.458 321.21 401.458H311.991V395.527H320.018C321.426 395.527 322.597 395.334 323.528 394.948C324.46 394.561 325.153 393.982 325.607 393.209C326.073 392.437 326.306 391.477 326.306 390.329C326.306 389.17 326.073 388.193 325.607 387.398C325.153 386.603 324.454 386.001 323.511 385.592C322.58 385.171 321.404 384.961 319.983 384.961H315.007V413.83H307.628ZM326.476 397.947L335.151 413.83H327.005L318.518 397.947H326.476Z" fill="black"/>
<path d="M192.525 453.606C190.821 453.606 189.191 453.35 187.637 452.839C186.082 452.306 184.857 451.625 183.962 450.794L185.144 448.302C185.996 449.047 187.083 449.665 188.403 450.155C189.724 450.645 191.098 450.89 192.525 450.89C193.824 450.89 194.879 450.741 195.688 450.443C196.497 450.144 197.094 449.74 197.477 449.229C197.861 448.696 198.052 448.1 198.052 447.439C198.052 446.673 197.797 446.055 197.285 445.586C196.796 445.118 196.146 444.745 195.336 444.468C194.548 444.17 193.675 443.914 192.717 443.701C191.758 443.488 190.789 443.243 189.809 442.966C188.851 442.668 187.967 442.295 187.157 441.848C186.369 441.401 185.73 440.804 185.24 440.059C184.75 439.292 184.505 438.312 184.505 437.119C184.505 435.969 184.804 434.915 185.4 433.956C186.018 432.977 186.955 432.199 188.212 431.624C189.49 431.028 191.108 430.729 193.068 430.729C194.367 430.729 195.656 430.9 196.934 431.241C198.212 431.581 199.32 432.071 200.257 432.71L199.202 435.266C198.244 434.627 197.232 434.169 196.167 433.893C195.102 433.594 194.069 433.445 193.068 433.445C191.811 433.445 190.778 433.605 189.969 433.924C189.159 434.244 188.563 434.67 188.18 435.202C187.818 435.735 187.637 436.331 187.637 436.992C187.637 437.78 187.881 438.408 188.371 438.877C188.883 439.345 189.532 439.718 190.32 439.995C191.13 440.272 192.014 440.527 192.972 440.762C193.931 440.975 194.889 441.22 195.848 441.497C196.827 441.774 197.711 442.136 198.5 442.583C199.309 443.03 199.959 443.627 200.448 444.372C200.938 445.118 201.183 446.076 201.183 447.248C201.183 448.377 200.874 449.431 200.257 450.411C199.639 451.369 198.681 452.147 197.381 452.743C196.103 453.318 194.484 453.606 192.525 453.606Z" fill="black"/>
<path d="M209.977 453.35V433.765H202.309V430.985H220.808V433.765H213.14V453.35H209.977Z" fill="black"/>
<path d="M233.142 453.606C230.202 453.606 227.891 452.764 226.209 451.082C224.526 449.399 223.685 446.939 223.685 443.701V430.985H226.88V443.573C226.88 446.065 227.423 447.887 228.509 449.037C229.617 450.187 231.171 450.762 233.174 450.762C235.197 450.762 236.752 450.187 237.838 449.037C238.946 447.887 239.5 446.065 239.5 443.573V430.985H242.599V443.701C242.599 446.939 241.758 449.399 240.075 451.082C238.413 452.764 236.102 453.606 233.142 453.606ZM249.149 453.35V430.985H258.574C260.96 430.985 263.058 431.454 264.869 432.391C266.7 433.328 268.117 434.638 269.118 436.321C270.14 438.003 270.652 439.952 270.652 442.168C270.652 444.383 270.14 446.332 269.118 448.014C268.117 449.697 266.7 451.007 264.869 451.944C263.058 452.881 260.96 453.35 258.574 453.35H249.149ZM252.344 450.57H258.383C260.236 450.57 261.833 450.219 263.175 449.516C264.538 448.813 265.593 447.833 266.338 446.577C267.084 445.299 267.457 443.829 267.457 442.168C267.457 440.485 267.084 439.015 266.338 437.758C265.593 436.502 264.538 435.522 263.175 434.819C261.833 434.116 260.236 433.765 258.383 433.765H252.344V450.57ZM275.545 453.35V430.985H278.74V453.35H275.545ZM295.532 453.606C293.828 453.606 292.241 453.318 290.772 452.743C289.323 452.168 288.067 451.369 287.002 450.347C285.937 449.303 285.106 448.089 284.51 446.704C283.913 445.32 283.615 443.808 283.615 442.168C283.615 440.527 283.913 439.015 284.51 437.631C285.106 436.246 285.937 435.043 287.002 434.02C288.067 432.977 289.323 432.167 290.772 431.592C292.22 431.017 293.807 430.729 295.532 430.729C297.236 430.729 298.802 431.017 300.229 431.592C301.677 432.146 302.934 432.945 303.999 433.988C305.085 435.011 305.916 436.214 306.491 437.599C307.088 438.983 307.386 440.506 307.386 442.168C307.386 443.829 307.088 445.352 306.491 446.736C305.916 448.121 305.085 449.335 303.999 450.379C302.934 451.401 301.677 452.2 300.229 452.775C298.802 453.329 297.236 453.606 295.532 453.606ZM295.532 450.762C296.768 450.762 297.907 450.549 298.951 450.123C300.016 449.697 300.932 449.101 301.699 448.334C302.487 447.546 303.094 446.63 303.52 445.586C303.967 444.543 304.191 443.403 304.191 442.168C304.191 440.932 303.967 439.793 303.52 438.749C303.094 437.705 302.487 436.8 301.699 436.033C300.932 435.245 300.016 434.638 298.951 434.212C297.907 433.786 296.768 433.573 295.532 433.573C294.276 433.573 293.115 433.786 292.05 434.212C291.006 434.638 290.09 435.245 289.302 436.033C288.514 436.8 287.896 437.705 287.449 438.749C287.023 439.793 286.81 440.932 286.81 442.168C286.81 443.403 287.023 444.543 287.449 445.586C287.896 446.63 288.514 447.546 289.302 448.334C290.09 449.101 291.006 449.697 292.05 450.123C293.115 450.549 294.276 450.762 295.532 450.762Z" fill="black"/>
<path fill-rule="evenodd" clip-rule="evenodd" d="M150 255.26H183.99L220.43 327.18L114.92 329.9L150 255.26Z" fill="#F7DB6B"/>
<path d="M0.720703 538.59H14.3207V194.08L78.2207 129.23V545.39H368.351V531.79H92.0907V115.22L130.291 76.6098L164.821 113.59L165.091 222.76H156.661V231.73C153.261 232.68 148.911 234.31 144.291 237.03C140.211 239.34 137.081 241.92 134.641 244.1C130.701 247.77 130.431 252.8 132.741 255.25C134.641 257.29 138.041 256.88 138.451 256.88H198.811C199.081 256.88 202.341 256.2 203.841 253.07C205.061 250.49 204.381 247.5 202.341 245.32C200.441 243.55 198.261 241.79 195.681 240.02C189.291 235.67 183.041 233.36 178.141 232.13V222.88H170.251L169.981 118.87L264.611 220.43L274.671 210.91L139.801 66.6599L185.891 20.0298L361.681 196.64V274.54H375.281V190.79L186.031 0.589844L0.720703 188.48V538.59Z" fill="black"/>
</svg>
