<?xml version="1.0" encoding="UTF-8"?>
<svg id="Layer_1" xmlns="http://www.w3.org/2000/svg" version="1.1" viewBox="0 0 1080 593.32">
  <!-- Generator: Adobe Illustrator 30.1.0, SVG Export Plug-In . SVG Version: 2.1.1 Build 136)  -->
  <g>
    <path d="M64.91,557.38c-22.12,0-30.75-8.12-30.75-22.87v-54.87c0-5.25,4.12-7.25,10.12-7.25s10.25,2,10.25,7.25v54.37c0,4.87,2.75,7,9.75,7h31.12c4.25,0,5.87,3.25,5.87,8.12,0,5.12-1.62,8.25-5.87,8.25h-30.5Z" fill="#161616"/>
    <path d="M188.27,538.38c0,13.12-11.25,20.62-38.37,20.62s-38.37-7.5-38.37-20.62v-27.12c0-13.12,11.25-20.62,38.37-20.62s38.37,7.5,38.37,20.62v27.12ZM168.65,512.64c0-4.62-6.37-6.87-18.75-6.87s-18.75,2.25-18.75,6.87v24.5c0,4.5,6.25,6.75,18.75,6.75s18.75-2.25,18.75-6.75v-24.5Z" fill="#161616"/>
    <path d="M289.01,505.51l-23.37,32.12c-1.63,2.13-4.25,2.75-7.87,2.75s-6.25-.62-7.87-2.75l-23.5-32.12v45.62c0,5.25-3.5,7.12-9.5,7.12s-9.62-1.87-9.62-7.12v-50.74c0-5.38,3.25-8.12,9.87-8.12h14.87c3.37,0,6.25.62,7.87,2.87l18.25,25.25,18.37-25.25c1.63-2.25,4.37-2.87,7.87-2.87h13.87c6.75,0,9.87,2.75,9.87,8.12v50.74c0,5.25-3.75,7.12-9.62,7.12s-9.5-1.87-9.5-7.12v-45.62Z" fill="#161616"/>
    <path d="M349,557.38c-17.75,0-22.62-5.5-22.75-19.87v-2.25c.12-14.25,5-19.87,22.75-19.87h24c4.12,0,5.63,2.75,5.63,7s-1.5,7.12-5.63,7.12h-23.25c-3.37,0-4.5,1.88-4.5,5.75v2.25c0,3.87,1.13,5.25,4.5,5.25h34.12v-27.62c0-5.5-4.25-7.62-10.12-7.62h-38.12c-4.12,0-5.62-2.75-5.62-7.62s1.5-7.62,5.62-7.62h37c20.62,0,30.25,7.5,30.25,20.62v37.5c0,5.5-5,7-10,7h-43.87Z" fill="#161616"/>
    <path d="M498.74,538.51c0,12.5-9,20.5-38.62,20.5-26.37,0-38.75-4.75-38.75-19.37,0-5.75,2.63-7.37,9.87-7.37,8,0,10.37,1.37,10.62,7.12.25,4.87,4.87,5.25,17.75,5.25,16.5,0,19.37-2.38,19.37-8.37,0-3.75-1.87-5.13-3.87-5.63-4.37-1-11-1-16.62-1.25-4.5-.12-10.12-.12-15.5-.62-10.87-.87-21.62-3.87-21.62-16v-3c0-12.37,11.75-19.12,38.37-19.12,13.5,0,37.37,1.13,37.37,16.25,0,4.5-3.5,6.62-8.75,6.62s-8.12-.75-10.25-4.5c-1.75-3.25-7.37-4-17.12-4-15.62,0-19.12,1.75-19.25,5.75,0,1.63.62,2.75,2.25,3.75,2.12,1.13,10.5,1,19,1.25,9.12.25,19.75-.12,27.12,3.37,5.12,2.5,8.62,6.87,8.62,14.5v4.87Z" fill="#161616"/>
    <path d="M518.11,476.89c0-5.12,4-7,9.87-7s9.75,1.88,9.75,7v74.24c0,5.25-3.75,7.12-9.75,7.12s-9.87-1.87-9.87-7.12v-74.24ZM575.98,514.26c0-4.62-2.38-6.75-8.62-6.75h-19.37c-4,0-5.63-2.75-5.63-7.62s1.63-7.62,5.63-7.62h23c16.37,0,24.5,6.87,24.5,20.62v38.25c0,5.25-3.75,7.12-9.62,7.12s-9.87-1.87-9.87-7.12v-36.87Z" fill="#161616"/>
    <path d="M693.84,557.38c-27.12,0-38-8.25-38-22.37v-55.37c0-5.25,4.12-7.25,10.25-7.25s10.12,2,10.12,7.25v53.99c0,4.87,4.5,7.37,17.62,7.37h34.62c13,0,17.5-2.5,17.5-7.37v-53.99c0-5.25,3.87-7.25,9.87-7.25s10,2,10,7.25v55.37c0,14.12-11,22.37-37.37,22.37h-34.62ZM700.72,479.64c0-5.25,4-7.25,10.12-7.25s10.25,2,10.25,7.25v49.37c0,5.25-4,7.25-10.25,7.25s-10.12-2-10.12-7.25v-49.37Z" fill="#161616"/>
    <path d="M861.7,538.38c0,13.12-11.25,20.62-38.37,20.62s-38.37-7.5-38.37-20.62v-27.12c0-13.12,11.25-20.62,38.37-20.62s38.37,7.5,38.37,20.62v27.12ZM842.08,512.64c0-4.62-6.37-6.87-18.75-6.87s-18.75,2.25-18.75,6.87v24.5c0,4.5,6.25,6.75,18.75,6.75s18.75-2.25,18.75-6.75v-24.5Z" fill="#161616"/>
    <path d="M955.94,538.38c0,13.12-11.25,20.62-38.37,20.62s-38.37-7.5-38.37-20.62v-27.12c0-13.12,11.25-20.62,38.37-20.62s38.37,7.5,38.37,20.62v27.12ZM936.32,512.64c0-4.62-6.37-6.87-18.75-6.87s-18.75,2.25-18.75,6.87v24.5c0,4.5,6.25,6.75,18.75,6.75s18.75-2.25,18.75-6.75v-24.5Z" fill="#161616"/>
    <path d="M1011.81,557.38c-27.12,0-38.37-7.5-38.37-20.62v-23.87c0-13.12,11.25-20.62,38.37-20.62h8.38c4.12,0,5.62,2.87,5.62,7.62s-1.5,7.62-5.62,7.62h-8.38c-12.5,0-18.75,2.12-18.75,6.75v21.25c0,4.5,6.25,6.75,18.75,6.75h18.75v-65.37c0-5.12,3.87-7,9.75-7s9.87,1.88,9.87,7v72.37c0,5.37-3.5,8.12-10.12,8.12h-28.25Z" fill="#161616"/>
  </g>
  <g>
    <polygon points="431.44 226.43 458.6 178.96 373.39 31.13 318.49 31.13 431.44 226.43" fill="#161616"/>
    <polygon points="431.29 32.56 487.05 32.56 598.15 227.29 711.38 32.56 765.86 32.56 598.58 322.51 431.29 32.56" fill="#161616"/>
    <polygon points="653.05 32.56 459.17 369.69 624.74 369.69 652.19 322.51 707.09 417.73 377.68 417.73 599.15 32.13 653.05 32.56" fill="#89bf4d"/>
  </g>
</svg>