<svg width="322" height="110" viewBox="0 0 322 110" fill="none" xmlns="http://www.w3.org/2000/svg">
<g clip-path="url(#clip0_988_1388)">
<rect width="322" height="110" fill="white"/>
<path d="M128.483 -0.775862C128.097 -0.494787 128.079 -0.0907403 128.431 0.207903C128.641 0.383575 128.747 0.383575 128.958 0.207903C129.116 0.084932 129.274 0.0322303 129.327 0.084932C129.502 0.243037 129.221 0.576815 128.747 0.752487C128.202 0.963294 127.851 0.717352 127.781 0.0673648C127.71 -0.60019 127.218 -0.547488 127.148 0.137634C127.078 0.928159 127.675 1.61328 128.466 1.61328C129.695 1.61328 130.732 0.524113 130.293 -0.301547C129.924 -0.986669 129.045 -1.21504 128.483 -0.775862Z" fill="black"/>
<path d="M96.5107 3.73994C96.2824 3.86291 96.2297 4.10885 96.2648 4.88181C96.3351 6.02368 96.6337 6.41016 97.4418 6.41016C98.1445 6.41016 98.8296 5.6899 98.8296 4.93451C98.8296 3.88047 97.4594 3.17779 96.5107 3.73994ZM97.6702 4.93451C97.7229 5.02234 97.6526 5.19802 97.4945 5.32099C97.2661 5.49666 97.1959 5.49666 97.0729 5.30342C96.9851 5.16288 96.9675 4.98721 97.0026 4.91694C97.1256 4.7237 97.5472 4.74127 97.6702 4.93451Z" fill="black"/>
<path d="M133.191 4.35465C132.805 4.72356 132.84 4.93437 133.314 5.12761C133.613 5.25058 133.63 5.28571 133.402 5.28571C132.98 5.30328 132.998 5.7776 133.419 6.00597C134.298 6.46272 135.018 6.05867 135.018 5.07491C135.018 4.21411 133.806 3.7398 133.191 4.35465ZM134.14 5.32085C134.14 5.40868 134.069 5.47895 133.964 5.47895C133.876 5.47895 133.788 5.35598 133.788 5.19788C133.788 5.05734 133.876 4.98707 133.964 5.03977C134.069 5.09247 134.14 5.21544 134.14 5.32085Z" fill="black"/>
<path d="M158.084 9.34376C157.838 9.44916 157.68 9.65997 157.68 9.88834C157.68 10.2221 157.75 10.2573 158.295 10.1519C158.646 10.0816 159.015 10.0991 159.138 10.1694C159.278 10.2573 159.155 10.3275 158.822 10.3978C158.383 10.4681 158.277 10.5735 158.242 11.0653C158.172 11.768 157.961 11.7856 157.68 11.1005C157.451 10.5383 157.153 10.5559 157.153 11.118C157.153 11.6626 158.084 12.5059 158.699 12.5059C159.419 12.5059 160.104 11.9086 160.245 11.1707C160.403 10.3275 160.087 9.73024 159.349 9.41403C158.664 9.13295 158.611 9.13295 158.084 9.34376Z" fill="black"/>
<path d="M199.384 11.0816C198.647 11.5208 197.786 12.61 197.452 13.5059C197.294 13.9275 197.101 14.2613 197.03 14.2613C196.96 14.2613 196.292 13.9802 195.52 13.6289C190.039 11.0816 182.362 12.4519 177.021 16.8964C175.598 18.091 173.719 20.3923 172.911 21.9557C171.154 25.2935 171.4 28.7894 173.473 30.1772C173.842 30.4056 174.439 30.634 174.79 30.6691C175.37 30.7218 175.475 30.8096 175.897 31.6529C177.32 34.5163 182.713 35.5176 187.21 33.7609C187.913 33.4798 188.053 33.4623 188.282 33.6907C188.493 33.919 188.633 33.919 189.283 33.6731C190.53 33.2339 191.743 33.3217 192.656 33.919C193.078 34.1825 193.64 34.6569 193.921 34.9731C194.325 35.4298 194.466 35.5001 194.747 35.342C194.94 35.2366 195.098 35.0785 195.098 34.9731C195.098 34.6569 194.325 33.7434 193.622 33.2163C192.937 32.7245 192.937 32.7069 193.394 32.7069C194.378 32.7069 196.328 31.811 199.068 30.0894C199.911 29.5624 200.017 29.5272 200.684 29.7029C201.703 29.984 203.021 30.9326 203.39 31.688C203.776 32.4434 203.846 33.638 203.636 36.6595C203.495 38.6797 203.513 38.7852 203.864 39.1541C204.373 39.6811 204.971 39.8216 205.568 39.523C206.2 39.2243 206.622 38.4689 207.079 36.8879C207.536 35.2366 208.221 33.9717 208.835 33.6555C209.099 33.515 209.626 33.4096 209.995 33.4096C211.998 33.4096 213.122 36.0095 212.068 38.2581C211.488 39.4878 209.819 40.5946 208.502 40.6121C207.834 40.6121 207.729 40.8757 208.326 41.0338C209.292 41.2973 210.434 41.1392 211.348 40.6297C212.244 40.1203 212.244 40.1203 212.683 40.454C212.911 40.6297 212.999 40.7878 212.894 40.7878C212.402 40.7878 212.718 41.1743 213.508 41.5432C214.193 41.8594 214.668 41.9297 216.179 41.9297C217.865 41.9297 218.111 41.877 219.06 41.4202C221.15 40.4013 223.065 37.8365 223.557 35.3947C223.82 34.1825 223.715 31.7758 223.381 31.3893C223.083 31.0204 222.362 31.1785 221.326 31.8285C219.815 32.7947 218.304 32.6366 217.584 31.4421C217.25 30.8975 217.233 30.5988 217.25 26.207C217.285 20.8139 217.145 19.9882 215.722 17.0896C213.702 12.9789 209.591 10.5546 205.023 10.783C202.564 10.9235 200.755 11.8897 199.121 13.9451C198.752 14.437 198.436 14.7356 198.436 14.6302C198.436 14.1383 199.191 12.5221 199.595 12.1357C200.245 11.5384 200.403 11.1695 200.14 10.9411C199.964 10.8181 199.771 10.8533 199.384 11.0816ZM174.21 26.6638C174.404 27.0854 174.755 27.6124 175.001 27.8232C175.317 28.1394 175.423 28.4029 175.423 29.0529C175.423 29.5272 175.352 29.8961 175.265 29.8961C175.194 29.8961 174.755 29.5799 174.316 29.1934C172.946 27.9813 172.647 26.3827 173.332 24.0989L173.578 23.3084L173.701 24.6084C173.771 25.3287 174 26.2597 174.21 26.6638ZM177.829 30.3353C178.479 31.565 179.604 32.4434 181.325 33.0582L182.362 33.4271L181.29 33.3393C178.198 33.0758 176.196 31.2137 176.564 28.9651C176.635 28.5786 176.81 27.9813 176.969 27.63L177.25 26.9975L177.355 28.3151C177.425 29.1407 177.601 29.8961 177.829 30.3353ZM191.022 32.1447C191.057 32.2677 190.899 32.3555 190.618 32.3555C190.197 32.3555 190.162 32.3204 190.355 32.092C190.601 31.7934 190.899 31.811 191.022 32.1447Z" fill="black"/>
<path d="M124.741 11.9085C117.873 12.945 111.917 15.8787 106.928 20.657C103.345 24.1002 99.7257 29.6163 97.8987 34.4649C95.4042 41.035 94.8596 48.2024 96.3001 55.3699C98.4433 66.0683 105.207 74.6411 115.431 79.6127C120.139 81.914 124.478 83.0383 130.099 83.4072C131.856 83.5126 131.979 83.5477 132.576 84.0923C134.913 86.1828 137.618 86.8152 145.646 87.1666C151.286 87.3949 152.849 87.5706 154.94 88.203C155.871 88.4665 156.679 88.7301 156.714 88.7652C156.749 88.8179 156.468 89.4679 156.081 90.2233C155.712 90.9787 155.396 91.7868 155.396 92.0151C155.396 92.2435 155.308 92.4367 155.221 92.4367C154.887 92.4367 154.817 91.9273 155.027 91.1543C155.449 89.6611 155.589 89.0463 155.502 88.976C155.308 88.7828 154.342 89.6787 154.008 90.3814C153.499 91.4178 153.517 92.4543 154.061 93.0867C154.448 93.5435 154.588 93.5786 155.695 93.561C157.68 93.5435 159.63 92.4543 162.107 89.9422C163.407 88.6246 165.374 85.7963 165.954 84.3909C166.165 83.8815 166.393 83.4775 166.481 83.4775C166.551 83.4775 168.15 84.0396 170.012 84.7247C176.899 87.2544 179.235 87.9395 184.277 88.9233C187.474 89.5381 190.425 89.6963 191.374 89.2922C192.498 88.8179 192.2 88.7301 188.3 88.3963C184.224 88.0625 179.604 86.9206 173.93 84.8828C166.604 82.2302 166.341 82.1599 165.884 82.4058C165.638 82.5288 165.216 83.1437 164.865 83.8464C164.461 84.7072 164.215 85.0409 164.039 84.9707C163.899 84.918 162.704 84.6018 161.387 84.268C157.698 83.3369 157.135 83.1085 156.749 82.4058C156.257 81.5099 155.607 80.8951 154.711 80.4559C154.008 80.1045 153.622 80.0518 151.795 80.0518C150.636 80.0518 148.861 80.1221 147.842 80.1924L145.998 80.3329L147.93 79.3667C154.817 75.906 160.842 68.4048 163.741 59.709C165.164 55.4401 165.708 51.4524 165.515 46.8498C165.269 40.7715 164.057 35.7824 161.633 30.8636C158.365 24.2232 153.446 19.1814 146.964 15.8612C142.994 13.8234 138.953 12.541 134.544 11.9085C132.137 11.5572 126.99 11.5572 124.741 11.9085ZM125.883 14.4031C122.739 15.9841 119.7 18.3206 116.748 21.3948C115.22 22.9935 114.588 23.784 111.654 27.7366C109.915 30.0906 109.142 30.1082 105.54 27.8947L103.907 26.8758L104.574 26.0677C108.58 21.0786 113.955 17.1436 119.015 15.5098C121.386 14.7369 125.918 13.6828 127.377 13.5774C127.482 13.5599 126.797 13.9463 125.883 14.4031ZM104.557 29.0717C105.33 29.5812 106.717 30.3893 107.666 30.8636C108.597 31.3555 109.37 31.8298 109.37 31.9352C109.37 32.0406 109.089 32.7433 108.738 33.4987C107.859 35.4135 106.84 38.5756 106.313 41.0877C105.786 43.5823 105.435 47.57 105.593 49.2389C105.734 50.574 105.488 50.9781 104.592 50.9781C103.801 50.9781 101.254 49.1511 98.9 46.8673L96.8622 44.9174L97.073 43.3363C97.5825 39.5067 98.619 36.2919 100.674 32.1811C101.447 30.6528 102.958 28.1407 103.099 28.1407C103.134 28.1407 103.801 28.5623 104.557 29.0717ZM101.114 50.3632C101.886 50.9429 103.292 51.8564 104.223 52.3835L105.909 53.3496L106.331 55.4577C107.174 59.6563 109.265 64.8913 111.461 68.3345C112.374 69.7574 112.567 70.4074 112.093 70.6007C111.144 70.952 100.973 64.5048 100.2 63.0643C99.5852 61.9225 98.496 58.936 98.0568 57.2144C97.3014 54.2631 97.0379 52.4362 96.9501 49.3092L96.8447 46.3403L98.2676 47.8335C99.0406 48.6416 100.323 49.8011 101.114 50.3632ZM110.775 55.1239C115.079 56.582 119.155 57.3374 124.583 57.6712C126.305 57.7766 127.745 57.882 127.763 57.8996C127.781 57.9171 128.079 59.5509 128.413 61.536C129.168 65.9454 130.662 72.5155 131.276 74.1317C131.487 74.6763 123.512 74.079 119.752 73.2709C116.362 72.5331 116.028 72.375 114.956 71.0398C111.812 67.1751 109.317 62.0981 108.035 57.0036C107.332 54.2456 107.297 53.8591 107.754 54.0699C107.912 54.1402 109.282 54.6145 110.775 55.1239ZM102.923 66.5778C105.277 68.5804 109.159 70.8115 112.813 72.2344C114.711 72.9722 114.746 73.0074 116.783 74.9749C117.908 76.0641 119.489 77.4519 120.297 78.0492C121.685 79.0856 123.529 80.087 123.705 79.9113C123.968 79.6478 123.125 78.6992 121.333 77.2587C118.997 75.3614 117.047 73.5695 117.469 73.6925C119.981 74.4655 124.759 75.133 128.905 75.3087L131.663 75.4317L132.225 77.1357C132.682 78.5059 133.595 80.8951 134.087 82.0194C134.165 82.2037 133.004 82.2755 131.521 82.2466C130.318 82.2232 128.903 82.1336 127.763 81.9842C121.017 81.1059 114.64 78.4357 109.282 74.2547C106.735 72.2696 103.38 68.5453 101.711 65.8224C101.395 65.2954 101.395 65.2954 101.728 65.5764C101.922 65.717 102.466 66.1737 102.923 66.5778ZM154.518 81.5978C155.045 81.8788 155.414 82.2302 155.642 82.7221C155.853 83.1085 156.117 83.5477 156.257 83.7058C156.538 84.0572 159.63 85.0761 161.633 85.4977C162.406 85.6558 163.143 85.8139 163.266 85.8666C163.565 85.9544 162.827 87.0436 161.422 88.5544L160.385 89.6963L159.77 89.2395C158.453 88.2382 155.73 87.2017 153.218 86.7274C152.445 86.5693 149.792 86.3409 147.315 86.2004C138.813 85.7085 137.038 85.4274 134.825 84.2328C134.175 83.8815 133.666 83.5302 133.701 83.4775C133.736 83.4072 134.439 83.3018 135.229 83.2491C136.037 83.1964 137.302 83.0207 138.04 82.8626L139.393 82.5815L140.095 83.0207C141.097 83.6531 142.221 83.8991 143.732 83.7761C145.032 83.6883 146.384 83.1964 146.296 82.8626C146.279 82.7572 145.365 82.6869 144.013 82.6869C142.133 82.6869 141.676 82.6342 141.079 82.3356C140.692 82.1423 140.341 81.8261 140.306 81.6505C140.253 81.3342 140.359 81.3167 142.678 81.4045C144.03 81.4572 145.945 81.4397 146.964 81.3694C147.983 81.3167 149.915 81.2464 151.286 81.2288C153.569 81.1937 153.815 81.2288 154.518 81.5978Z" fill="black"/>
<path d="M101.799 38.9969C99.6729 41.1225 99.0229 41.9306 99.2513 42.159C99.304 42.2117 100.042 41.5968 100.903 40.7887C101.746 39.9806 102.923 38.8388 103.538 38.259C104.592 37.2401 104.785 36.8712 104.258 36.801C104.117 36.7834 103.011 37.7672 101.799 38.9969Z" fill="black"/>
<path d="M142.537 42.7739C142.027 43.3711 141.149 44.3725 140.587 45.0049C139.234 46.4805 136.915 49.5021 136.529 50.2399C136.353 50.5561 136.248 50.9602 136.283 51.1183C136.318 51.3291 136.687 50.9602 137.425 50.0116C138.496 48.6062 139.357 47.6048 142.361 44.2846C143.942 42.5279 144.241 41.9833 143.731 41.7901C143.556 41.7198 143.134 42.0712 142.537 42.7739Z" fill="black"/>
<path d="M146.279 44.4609C146.068 44.742 144.961 46.1122 143.802 47.4825C142.642 48.8703 141.694 50.1527 141.694 50.3284C141.694 50.8378 141.94 50.6446 143.31 49.0284C144.012 48.1852 145.119 46.8852 145.787 46.1474C146.894 44.8474 147.175 44.2852 146.806 44.0393C146.718 43.9866 146.472 44.1798 146.279 44.4609Z" fill="black"/>
<path d="M89.5719 29.617C89.0449 29.8629 89.0624 30.4953 89.5895 31.0399C90.1165 31.5669 90.6962 31.444 91.0827 30.7413C91.311 30.3372 91.311 30.2318 91.0475 29.8278C90.7138 29.3359 90.257 29.2656 89.5719 29.617ZM90.3976 30.3548C90.3976 30.4953 90.3273 30.5656 90.2219 30.5129C90.134 30.4602 90.0462 30.2845 90.0462 30.144C90.0462 30.0034 90.134 29.9332 90.2219 29.9859C90.3273 30.0386 90.3976 30.2142 90.3976 30.3548Z" fill="black"/>
<path d="M172.963 36.7309C170.978 37.3809 170.24 38.435 169.977 41.0525C169.415 46.5335 172.155 54.1401 175.511 56.3711C176.301 56.8806 176.512 57.1265 176.652 57.7238C176.758 58.1278 176.916 58.6724 177.004 58.9535C177.355 60.0251 177.302 60.0778 176.09 59.8319C174.65 59.5332 173.965 59.5332 173.227 59.8319C172.471 60.1481 172.243 60.8332 172.665 61.571C172.84 61.8521 172.963 62.1859 172.963 62.3088C172.963 62.5899 173.701 62.8885 176.266 63.6264C178.128 64.171 179.814 64.9966 179.814 65.3655C179.814 65.6993 179.446 65.752 178.532 65.5763C178.04 65.4709 176.916 65.2601 176.073 65.102C174.175 64.7331 172.858 64.0129 172.348 63.0467C171.892 62.221 171.734 62.221 171.734 63.0818C171.734 64.6628 172.928 65.3304 178.128 66.7006C179.727 67.1223 180.113 67.3331 179.92 67.6317C179.569 68.2114 176.424 68.0182 174.404 67.3155C172.981 66.806 172.524 66.8412 172.261 67.4912C171.575 69.1601 172.84 70.9168 176.213 72.937C176.898 73.3411 177.636 73.8505 177.847 74.0613C178.69 74.8167 179.393 76.6086 179.656 78.5585C179.867 80.245 179.973 80.6139 180.183 80.2977C180.552 79.7004 180.289 76.6261 179.727 75.1856C179.604 74.887 179.656 74.887 180.342 75.1329C182.186 75.7829 181.483 75.1153 178.163 73.0424C176.705 72.1289 175.071 70.987 174.527 70.4952C173.525 69.5992 172.805 68.4574 173.086 68.1939C173.157 68.106 173.789 68.229 174.456 68.4574C175.142 68.6682 176.319 68.9317 177.109 69.0371C177.882 69.1425 178.743 69.3182 179.024 69.4236C179.446 69.5817 179.481 69.6519 179.27 69.8452C178.813 70.2668 177.97 70.4425 176.705 70.3546C176.002 70.3019 175.3 70.3019 175.142 70.3722C174.843 70.4776 174.843 70.5127 175.142 70.7938C175.37 71.0397 175.792 71.0924 177.25 71.1276C178.251 71.1276 179.235 71.233 179.428 71.3384C180.201 71.76 180.939 71.5316 181.343 70.7587C181.694 70.0735 181.835 67.2452 181.624 65.4007L181.448 64.1183L182.046 64.2061C182.362 64.2588 182.625 64.2764 182.625 64.2237C182.625 64.171 182.309 63.6791 181.923 63.1345C181.237 62.1332 180.693 60.3589 180.693 59.0413C180.693 58.4616 181.132 57.4778 181.396 57.4778C181.483 57.4778 181.694 57.9346 181.835 58.4792C182.414 60.5872 183.381 63.2399 184.224 65.0142C185.243 67.1925 185.278 67.5439 184.628 70.6533C184.171 72.8316 184.136 74.1667 184.523 74.5532C184.821 74.8518 185.26 74.3775 185.26 73.7627C185.26 73.4816 185.506 72.0411 185.805 70.583C186.174 68.8087 186.314 67.6668 186.262 67.1398C186.209 66.7006 185.717 65.4358 185.19 64.3291C184.312 62.5021 183.363 59.9197 182.818 57.8643C182.45 56.4941 181.554 56.0549 180.64 56.7752C180.078 57.2143 180.043 57.2143 179.92 56.6697C179.832 56.3184 179.92 56.09 180.359 55.5806C181.659 54.1049 182.485 51.382 182.485 48.5186C182.502 46.0064 181.782 43.4943 180.377 41.0525C179.604 39.7525 177.513 37.6444 176.477 37.135C175.616 36.7309 173.666 36.5026 172.963 36.7309ZM174.404 39.4012C175.352 39.8755 176.898 41.5268 177.706 42.8795C179.867 46.5686 179.779 51.8563 177.531 54.4738C177.039 55.0536 177.004 55.0536 176.442 54.8252C175.563 54.4738 174.246 53.1387 173.561 51.9266C172.173 49.4496 171.207 45.6024 171.171 42.5281C171.154 40.5782 171.382 39.7174 172.05 39.1904C172.594 38.7687 173.297 38.839 174.404 39.4012ZM178.233 57.6184C178.427 58.3386 178.76 60.0602 178.76 60.3062C178.76 60.5345 178.269 60.4994 178.128 60.271C178.058 60.1656 177.882 59.3751 177.706 58.5143C177.425 57.0211 177.425 56.9508 177.724 56.9508C177.952 56.9508 178.093 57.1616 178.233 57.6184ZM176.652 60.921C178.269 61.3778 179.463 62.221 179.463 62.9061C179.463 63.1521 178.479 62.9764 175.932 62.2913C174.702 61.9575 173.578 61.694 173.42 61.694C172.84 61.694 173.262 60.7453 173.929 60.5872C174.404 60.4643 175.475 60.6048 176.652 60.921Z" fill="black"/>
<path d="M173.666 42.5991C173.648 42.968 176.547 48.3612 176.846 48.5193C177.337 48.8004 177.267 48.4666 176.582 47.3072C176.266 46.7626 175.633 45.6383 175.177 44.795C174.369 43.3194 173.683 42.3005 173.666 42.5991Z" fill="black"/>
<path d="M173.051 46.4105C173.684 48.501 175.317 51.5577 175.844 51.6455C176.178 51.7158 176.178 51.6982 175.897 51.3118C175.194 50.328 174.123 48.378 173.719 47.3943C173.262 46.2875 172.805 45.6024 173.051 46.4105Z" fill="black"/>
<path d="M188.018 37.5736C187.878 37.8547 187.597 38.7682 187.404 39.629C187.193 40.4722 186.999 41.2276 186.947 41.2627C186.894 41.3154 186.771 41.1398 186.666 40.8762C186.525 40.5249 186.525 40.1033 186.666 39.4357C186.894 38.3817 186.824 37.9777 186.42 37.9777C185.91 37.9777 185.559 38.8033 185.541 40.0506C185.524 41.3506 185.875 42.1587 186.525 42.3343C186.701 42.3695 186.824 42.51 186.771 42.633C186.736 42.7559 186.595 43.6519 186.472 44.6005C185.963 48.8869 186.947 50.5031 189.389 49.3261C190.46 48.7991 191.936 47.464 191.936 47.0072C191.936 46.814 191.655 46.9369 190.847 47.5167C188.914 48.8869 188.018 49.1855 187.544 48.6058C187.21 48.2193 187.421 44.6005 187.895 42.2816C188.335 40.156 188.581 39.4709 188.598 40.3844C188.616 41.8776 190.337 42.4222 191.795 41.3857C193.007 40.5425 194.026 37.9777 193.271 37.6966C192.867 37.5385 192.568 37.8898 192.322 38.7857C191.936 40.1209 190.706 41.1573 189.968 40.7708C189.705 40.6303 189.652 40.3492 189.652 39.0317C189.652 37.6614 189.617 37.4331 189.318 37.275C188.721 36.9588 188.264 37.0642 188.018 37.5736Z" fill="black"/>
<path d="M81.2976 39.4185C81.1746 39.5415 81.0868 39.7172 81.0868 39.8226C81.0868 40.1037 81.7367 40.4374 82.053 40.332C82.2286 40.2618 82.3165 40.332 82.3165 40.5077C82.3165 40.8591 82.2462 40.8591 81.6138 40.5253C81.1746 40.2969 81.1043 40.2969 81.0165 40.5428C80.8584 40.982 81.8773 41.8955 82.3516 41.755C83.3002 41.4739 83.7218 40.1037 83.0543 39.5064C82.6678 39.155 81.5962 39.1199 81.2976 39.4185Z" fill="black"/>
<path d="M210.575 46.1824C209.626 50.4688 206.886 53.8241 203.39 55.0012C201.334 55.7038 198.348 55.4052 195.994 54.2809C195.08 53.8417 194.413 53.2971 192.849 51.7161C191.444 50.2756 190.812 49.7485 190.671 49.8891C189.916 50.6445 192.832 53.8768 195.484 55.212C197.628 56.2836 200.86 56.7227 203.003 56.2309C204.11 55.9849 205.779 55.1417 206.605 54.439C207.079 54.035 207.553 53.8066 208.08 53.7363C209.169 53.5958 210.171 52.8404 210.786 51.6809L211.295 50.7147L211.172 48.1675C211.102 46.7621 210.996 45.5148 210.926 45.3919C210.838 45.2513 210.698 45.5675 210.575 46.1824Z" fill="black"/>
<path d="M216.741 48.2899C216.618 48.3251 215.915 49.1331 215.177 50.0642C213.596 52.0844 210.539 55.1411 208.853 56.406C207.395 57.4952 205.691 58.3911 204.391 58.7776C203.073 59.1465 202.827 59.4451 203.337 60.0775C204.075 61.0086 205.726 63.2748 206.253 64.1004C206.92 65.1369 207.219 65.2599 207.219 64.4693C207.219 63.8018 206.762 62.7302 206.025 61.6586C205.743 61.237 205.462 60.8154 205.41 60.6924C205.322 60.5694 205.831 60.1654 206.815 59.5857C208.906 58.3559 210.293 57.1789 213.087 54.2979C215.757 51.5399 217.619 49.1507 217.549 48.6237C217.496 48.2548 217.162 48.1142 216.741 48.2899Z" fill="black"/>
<path d="M218.462 48.5884C218.462 49.1857 218.884 49.783 220.834 51.9438C228.827 60.7976 234.325 71.0745 237.979 83.8986C239.156 88.0444 240.298 94.6673 240.843 100.605C241.159 103.785 241.563 106.139 241.844 106.139C242.09 106.139 242.037 102.871 241.739 99.7266C240.931 91.3646 239.56 84.6891 237.242 77.9081C233.535 67.0867 228.282 57.9518 221.782 51.083C220.236 49.4492 218.954 48.3425 218.603 48.3425C218.532 48.3425 218.462 48.4479 218.462 48.5884Z" fill="black"/>
<path d="M194.799 49.5558C193.64 50.1355 193.587 50.5747 194.518 51.4355C195.239 52.103 196.205 52.2612 196.398 51.7517C196.556 51.3301 196.521 49.995 196.328 49.5031C196.134 48.9585 195.976 48.9585 194.799 49.5558Z" fill="black"/>
<path d="M217.9 55.3701C217.742 55.4755 217.514 55.8269 217.408 56.1782C217.233 56.7052 217.233 56.8458 217.426 56.9687C217.848 57.2322 218.357 57.1268 218.761 56.7228L219.13 56.3188L218.779 55.7566C218.392 55.1417 218.34 55.1242 217.9 55.3701Z" fill="black"/>
<path d="M212.665 62.6078C210.065 63.5916 208.66 65.2429 204.602 72.059C201.615 77.0832 199.402 79.7886 195.871 82.7223C192.779 85.2696 192.761 85.3047 192.884 85.7263C192.972 86.0074 193.271 86.1831 193.921 86.3587C195.256 86.7276 197.417 87.0263 197.592 86.8506C197.856 86.5871 197.188 85.9371 196.363 85.7087C195.344 85.4101 195.256 85.0763 196.011 84.3912C199.138 81.598 199.929 80.8426 200.983 79.6129C202.617 77.6981 203.741 76.0819 205.867 72.4982C208.326 68.3523 209.204 67.0699 210.592 65.6294C212.279 63.8727 213.403 63.3808 215.37 63.4862C217.268 63.5916 218.445 64.1713 220.166 65.7875C221.747 67.2807 222.749 68.8793 223.75 71.4793C224.154 72.5685 224.541 73.4293 224.576 73.3766C224.663 73.3063 224.786 72.709 225.068 71.005C225.296 69.6523 223.838 66.7186 222.116 65.0848C220.939 63.9781 219.885 63.3632 218.058 62.7308C216.214 62.0984 214.141 62.0457 212.665 62.6078Z" fill="black"/>
<path d="M88.6233 66.0679C88.2544 66.3666 88.2368 66.4544 88.4301 66.7706C88.5355 66.9639 88.6409 67.3152 88.6409 67.5436C88.6409 68.1057 89.1679 68.5449 89.8354 68.5449C90.5206 68.5449 90.9246 68.0003 90.9246 67.122C90.9246 65.945 89.5368 65.3126 88.6233 66.0679ZM89.9408 67.122C89.9936 67.1922 89.9408 67.4031 89.8179 67.5612C89.6071 67.8422 89.5719 67.8422 89.3611 67.5963C89.2382 67.4558 89.1855 67.2449 89.2557 67.1395C89.3963 66.9287 89.8179 66.9112 89.9408 67.122Z" fill="black"/>
<path d="M216.583 68.9318C216.723 69.9507 217.039 71.3912 217.127 71.4966C217.18 71.5317 217.426 71.4966 217.707 71.3912C218.339 71.1804 218.322 70.7236 217.654 69.248C217.303 68.4926 217.057 68.194 216.829 68.194C216.53 68.194 216.495 68.2818 216.583 68.9318Z" fill="black"/>
<path d="M201.211 68.7205C201.036 68.8259 199.525 70.5124 197.838 72.4623C193.64 77.346 192.832 78.0839 189.88 79.7352C189.266 80.0689 188.686 80.4906 188.581 80.6838C188.44 80.9824 188.475 81.0176 188.897 81.0176C189.564 81 190.618 80.5081 192.428 79.3311C194.29 78.119 195.643 76.819 198.77 73.3056C202.494 69.1246 202.388 69.2475 202.178 68.9138C201.949 68.5624 201.598 68.4921 201.211 68.7205Z" fill="black"/>
<path d="M195.572 78.0309C194.746 78.6809 195.027 79.0849 196.117 78.8038C196.556 78.6809 196.609 78.4173 196.275 77.9606C196.064 77.6795 196.029 77.6795 195.572 78.0309Z" fill="black"/>
<path d="M220.641 82.4588C219.956 83.1615 218.322 84.9182 217.022 86.3763C212.806 91.0492 208.713 94.8612 204.848 97.7071C202.23 99.622 200.087 100.658 196.995 101.484C193.938 102.292 192.428 102.468 188.598 102.45C177.144 102.45 163.354 99.2355 156.995 95.1072C155.712 94.264 155.396 94.2113 155.396 94.7558C155.396 95.5112 157.118 96.899 159.472 98.0409C168.852 102.591 188.897 105.279 197.382 103.135C200.702 102.292 205.48 99.2179 211.084 94.2991C214.334 91.4356 219.745 85.656 220.887 83.8115C221.414 82.9331 222.169 81.1939 222.011 81.1939C221.941 81.1939 221.326 81.7737 220.641 82.4588Z" fill="black"/>
<path d="M213.351 84.988C213.228 85.4623 213.122 86.2352 213.122 86.7271C213.105 87.5528 213.14 87.6055 213.544 87.6055C213.895 87.6055 214.018 87.4649 214.299 86.7271C214.475 86.2352 214.738 85.5852 214.879 85.2515C215.213 84.5663 215.09 84.3907 214.194 84.2326L213.561 84.1447L213.351 84.988Z" fill="black"/>
<path d="M192.164 87.114C192.041 87.1491 191.936 87.3775 191.936 87.5883C191.936 87.9572 192.041 88.0099 193.131 88.0977C193.781 88.168 194.729 88.2558 195.256 88.3261C196.679 88.5193 196.363 88.0626 194.641 87.4829C193.306 87.0261 192.621 86.9207 192.164 87.114Z" fill="black"/>
<path d="M234.396 90.7159C234.132 90.9267 233.746 91.7348 233.746 92.0862C233.746 92.1565 233.974 92.3146 234.255 92.4024C234.677 92.5605 234.8 92.5078 235.204 92.0862L235.661 91.6119L235.274 91.0673C234.835 90.4349 234.8 90.4173 234.396 90.7159Z" fill="black"/>
<path d="M127.816 91.7348C127.675 91.8226 127.148 91.9807 126.639 92.0861C125.198 92.3848 124.46 93.1402 125.093 93.6672C125.655 94.1239 129.151 93.1577 129.625 92.4199C129.959 91.8929 129.643 91.5591 128.835 91.5591C128.413 91.5591 127.956 91.647 127.816 91.7348Z" fill="black"/>
<path d="M182.344 92.3497C182.274 92.5079 182.45 92.947 182.731 93.3335C183.012 93.7376 183.486 94.4402 183.767 94.897L184.294 95.7227L184.874 95.4591C185.172 95.301 185.436 95.0902 185.436 94.9673C185.436 94.6511 184.136 93.07 183.451 92.543C182.766 92.016 182.485 91.9808 182.344 92.3497Z" fill="black"/>
<path d="M132.049 93.0692C131.891 93.6489 131.926 95.2124 132.137 96.9691C132.225 97.6191 132.278 97.7245 132.611 97.6718C132.875 97.6367 133.015 97.4434 133.121 97.0043C133.349 95.9678 133.332 93.5435 133.086 92.9638C132.769 92.226 132.278 92.2611 132.049 93.0692Z" fill="black"/>
<path d="M222.556 93.1736C222.292 93.5952 221.888 94.1574 221.677 94.4209C221.203 95.0182 221.256 95.1411 222.169 95.5979L222.854 95.9492L223.206 95.3871C223.399 95.0709 223.61 94.6141 223.663 94.3682C223.715 94.1222 223.856 93.7006 223.961 93.4195C224.119 92.9979 224.102 92.875 223.821 92.6817C223.294 92.2952 223.065 92.3831 222.556 93.1736Z" fill="black"/>
<path d="M229.424 102.011C229.143 102.45 229.143 102.468 229.758 103.065C230.109 103.399 230.461 103.68 230.531 103.68C230.601 103.68 230.847 103.416 231.058 103.118C231.497 102.485 231.409 102.274 230.531 101.835C229.828 101.484 229.758 101.501 229.424 102.011Z" fill="black"/>
<path d="M205.832 102.258C205.638 102.381 205.638 102.539 205.884 103.259C206.183 104.19 206.569 108.02 206.429 108.652C206.306 109.232 206.587 110.251 206.886 110.321C207.114 110.356 207.184 110.11 207.272 108.916C207.448 106.825 207.413 105.35 207.202 104.032C206.938 102.398 206.517 101.836 205.832 102.258Z" fill="black"/>
</g>
<defs>
<clipPath id="clip0_988_1388">
<rect width="322" height="110" fill="white"/>
</clipPath>
</defs>
</svg>
