<svg width="322" height="110" viewBox="0 0 322 110" fill="none" xmlns="http://www.w3.org/2000/svg">
<g clip-path="url(#clip0_990_2584)">
<rect width="322" height="110" fill="white"/>
<path d="M153.759 0.51804C153.316 1.28114 152.947 3.57042 153.119 4.49352C153.193 4.86276 153.254 4.93661 153.476 4.89969C153.771 4.86276 153.882 4.57968 154.276 2.89348C154.62 1.44114 154.719 0.690352 154.62 0.308804C154.497 -0.171208 154.116 -0.0850522 153.759 0.51804Z" fill="black"/>
<path d="M129.611 9.78691C129.5 10.0577 129.758 10.3038 130.275 10.4762C130.522 10.55 131.408 10.9439 132.245 11.3377C133.857 12.1131 134.275 12.1993 134.485 11.83C134.669 11.4731 134.645 11.4116 134.165 10.9192C133.734 10.4885 133.094 10.2054 131.592 9.7746C130.768 9.54075 129.697 9.54075 129.611 9.78691Z" fill="black"/>
<path d="M142.189 12.0016C142.94 13.1462 148.995 14.5493 155.469 15.0786C156.762 15.177 159.285 15.3001 161.107 15.3493C163.999 15.4109 164.393 15.4478 164.393 15.6201C164.393 15.7309 164.257 16.8386 164.085 18.094C163.088 25.368 162.842 28.2727 162.977 30.6482C163.051 31.9405 163.371 33.3559 163.654 33.639C163.814 33.8236 163.925 32.6421 163.839 31.5344C163.679 29.5897 164.54 23.8911 165.673 19.3371C166.264 16.9494 166.301 16.7401 166.128 16.7401C165.981 16.7401 165.574 17.8109 165.193 19.2017C164.75 20.7895 164.774 20.7402 164.627 20.5925C164.54 20.5064 164.614 19.8171 164.824 18.4633C165.267 15.6201 165.328 14.8324 165.119 14.697C165.02 14.6355 163.125 14.5493 160.885 14.5001C153.5 14.3524 148.048 13.577 143.482 12.0016C142.977 11.8293 142.435 11.6939 142.275 11.6939C141.992 11.6939 141.992 11.7062 142.189 12.0016Z" fill="black"/>
<path d="M141.377 12.4331C141.279 12.6177 141.303 13.1223 141.463 14.3778C142.017 18.5871 141.562 24.6919 140.331 29.5289C140.134 30.292 140.073 30.7597 140.146 30.8951C140.233 31.0674 140.614 31.1289 142.079 31.252C143.076 31.3382 144.54 31.4859 145.316 31.5967C148.664 32.052 148.947 31.3997 145.623 30.8582C144.811 30.7351 143.543 30.5012 142.793 30.3535C141.242 30.0335 141.316 30.1566 141.66 28.5566C142.288 25.6273 142.583 17.4301 142.177 14.3531C141.919 12.3593 141.697 11.8423 141.377 12.4331Z" fill="black"/>
<path d="M173.686 13.1728C173.415 13.3082 172.984 13.4805 172.726 13.5544C171.766 13.8128 171.163 14.1328 171.163 14.3913C171.163 14.7359 171.593 14.8221 172.738 14.7236C173.809 14.6252 174.793 14.1698 175.101 13.6282C175.47 12.9636 174.621 12.6928 173.686 13.1728Z" fill="black"/>
<path d="M147.371 17.6772C147.322 17.7264 147.285 18.1695 147.285 18.6495C147.285 19.6465 146.916 21.8373 146.546 23.0188C146.153 24.2743 145.906 25.5051 146.042 25.6404C146.288 25.8866 146.608 25.6651 146.756 25.1112C146.83 24.8035 147.063 23.9173 147.273 23.1419C147.679 21.6157 147.987 19.1541 147.851 18.4526C147.765 17.9603 147.507 17.5418 147.371 17.6772Z" fill="black"/>
<path d="M149.808 19.1038C149.784 19.19 149.648 19.7192 149.5 20.2731C149.205 21.4793 149.18 22.3162 149.439 22.5255C149.55 22.6116 149.648 22.6609 149.66 22.6362C149.685 22.6116 149.796 22.0578 149.919 21.4177C150.042 20.7777 150.202 20.0393 150.264 19.7931C150.362 19.4485 150.362 19.2885 150.239 19.1408C150.054 18.9192 149.882 18.9069 149.808 19.1038Z" fill="black"/>
<path d="M157.575 21.135C157.476 22.1319 157.082 23.8796 156.467 25.9474C156.221 26.7843 156.024 27.6828 156.024 27.9536C156.024 28.3844 156.061 28.4336 156.332 28.4336C156.565 28.4336 156.652 28.3474 156.713 28.089C156.75 27.9043 156.972 27.0674 157.205 26.2182C157.735 24.2366 158.018 22.4519 157.969 21.3073C157.919 20.1134 157.686 20.0149 157.575 21.135Z" fill="black"/>
<path d="M151.408 24.6544C151.137 24.8883 151.014 25.196 150.718 26.5129C150.238 28.6545 149.598 30.5007 148.934 31.7192C148.38 32.7285 148.38 32.7408 148.675 32.7408C148.995 32.7408 149.598 32.1623 149.918 31.5346C150.263 30.8576 150.891 28.9376 151.346 27.1406C151.74 25.5898 151.851 25.2944 152.035 25.2944C152.675 25.2944 152.86 26.7714 152.515 29.1099C152.294 30.6853 152.281 31.4977 152.503 32.0269C152.601 32.2608 153.057 32.9131 153.5 33.4792C154.435 34.6608 154.694 35.1285 154.915 36.0393C155.235 37.4178 154.706 38.8086 153.242 40.3717C152.257 41.4056 152.257 41.6148 153.229 40.9748C155.063 39.7563 155.986 37.6393 155.531 35.6824C155.322 34.8085 155.137 34.4516 154.349 33.3808L153.685 32.4946H154.448C155.999 32.4946 158.854 33.11 161.168 33.9223C162.596 34.427 163.531 34.5993 163.531 34.3531C163.531 34.1562 163.236 33.9962 161.931 33.4792C159.432 32.4823 157.094 31.9038 154.989 31.7684C153.143 31.6577 153.131 31.6207 153.377 27.6699C153.488 25.8729 153.34 25.2329 152.688 24.679C152.22 24.2975 151.826 24.2852 151.408 24.6544Z" fill="black"/>
<path d="M132.761 25.4049C132.454 25.4788 131.937 25.7372 131.617 25.9711C131.309 26.2049 130.804 26.5496 130.509 26.7342C129.783 27.1896 128.823 28.0511 128.823 28.2481C128.823 28.4696 129.13 28.3834 130.607 27.7804C132.7 26.9188 134.103 25.848 133.734 25.4049C133.561 25.1957 133.5 25.1957 132.761 25.4049Z" fill="black"/>
<path d="M170.596 26.8447C170.559 26.9186 170.572 27.0171 170.621 27.0786C170.682 27.1278 171.716 27.6817 172.935 28.2971C175.212 29.454 175.729 29.614 175.962 29.171C176.073 28.9617 176.024 28.851 175.581 28.4325C175.298 28.174 174.818 27.854 174.498 27.7432C174.19 27.6202 173.624 27.4109 173.255 27.2509C172.615 26.9924 171.384 26.7094 170.904 26.7094C170.781 26.7094 170.645 26.7709 170.596 26.8447Z" fill="black"/>
<path d="M144.331 32.1995C144.343 32.8026 144.848 33.8488 145.845 35.2888C148.048 38.4643 148.959 41.2828 148.86 44.6675L148.823 45.9353L147.9 46.2676C146.756 46.6984 146.251 46.9445 145.943 47.2768C145.771 47.4615 145.685 47.4861 145.611 47.3753C145.525 47.2276 145.796 46.9322 146.805 46.1199L147.223 45.7876L146.731 45.8614C145.476 46.046 144.725 46.7476 144.873 47.5722C145.008 48.2984 145.845 48.803 147.531 49.1723C148.799 49.443 152.7 49.5661 154.067 49.3692C155.261 49.1969 156.774 48.7169 157.279 48.3476C157.476 48.2122 157.661 48.1261 157.685 48.1507C157.722 48.1753 157.796 49.5292 157.87 51.1539C158.19 58.6248 158.473 61.1849 159.187 63.1172C159.371 63.5972 159.371 63.6588 159.162 63.8803C158.867 64.2003 157.39 65.0619 154.916 66.3542C152.331 67.6958 152.368 67.5973 153.956 69.2466C155.31 70.6497 156.331 71.3882 156.947 71.4128C157.181 71.4251 157.414 71.4005 157.451 71.3636C157.488 71.3143 157.082 70.9697 156.553 70.5759C156.024 70.182 155.15 69.4189 154.621 68.8897L153.636 67.905L154.067 67.6712C154.288 67.5358 155.839 66.7112 157.501 65.8373C162.461 63.2034 165.501 60.9756 165.501 59.9418C165.501 59.5725 164.898 59.9171 163.913 60.8526C162.756 61.948 160.368 63.6095 160.208 63.4372C160.011 63.2034 159.458 60.9141 159.285 59.5725C159.113 58.194 158.842 54.6616 158.608 50.5877C158.461 48.163 158.202 46.4522 157.894 46.0337C157.599 45.6276 156.405 45.0368 155.716 44.9506C155.408 44.926 155.162 44.9383 155.162 44.9752C155.162 45.2706 155.519 45.6029 156.122 45.8737C156.885 46.206 157.378 46.5999 157.378 46.8584C157.378 46.9937 157.304 46.9814 157.045 46.7968C156.59 46.5014 156.134 46.3168 155.174 46.1076C154.756 46.0091 154.374 45.8983 154.337 45.8737C154.276 45.7999 154.104 44.7168 153.931 43.2398C153.784 42.0336 153.611 41.5044 153.427 41.689C153.328 41.7875 153.353 42.6367 153.488 44.5937C153.599 46.1199 153.722 47.5353 153.759 47.7322C153.833 48.0769 153.821 48.0892 153.254 48.1753C152.553 48.2615 149.956 48.2738 149.722 48.1876C149.599 48.1384 149.574 47.6215 149.599 45.6029C149.636 43.7444 149.599 42.7598 149.451 41.8736C149.082 39.4982 148.147 37.3197 146.485 34.895C146.066 34.2796 145.525 33.455 145.279 33.0365C145.033 32.6303 144.725 32.1995 144.577 32.0642C144.331 31.8426 144.331 31.8426 144.331 32.1995Z" fill="black"/>
<path d="M144.331 48.3961C143.949 50.1808 143.888 56.0271 144.208 59.941C144.343 61.6641 144.614 67.215 144.552 67.2643C144.528 67.2889 144.134 67.055 143.654 66.7473C142.115 65.7381 140.712 64.9873 140.392 64.9873C140.146 64.9873 139.887 65.2334 139.1 66.2427C138.558 66.9442 137.832 67.8181 137.487 68.1874C136.429 69.332 135.346 70.6736 135.346 70.8582C135.346 70.9443 135.407 71.0182 135.493 71.0182C135.703 71.0182 137.93 68.7043 139.309 67.0673L140.429 65.7381L140.995 66.0581C141.303 66.2304 142.091 66.7227 142.743 67.1535C143.9 67.9166 143.924 67.9289 144.121 68.6427C144.466 69.8489 144.577 70.7597 144.503 71.8674C144.466 72.4459 144.417 73.0367 144.392 73.1721C144.343 73.4306 142.718 74.8829 141.5 75.7814C140.109 76.7906 137.266 78.3907 133.684 80.1876C129.696 82.1815 129.647 82.2185 130.398 82.76C130.583 82.8831 131.186 83.4616 131.74 84.0154C132.687 85.0001 133.007 85.2216 133.007 84.9139C133.007 84.6801 132.244 83.6708 131.481 82.8954L130.73 82.1446L131.653 81.8615C134.546 80.9877 140.86 77.3199 146.472 73.2459C147.457 72.5321 147.728 72.3967 147.851 72.5198C147.925 72.6059 148.725 73.5659 149.623 74.6491C153.783 79.683 158.349 84.1631 161.168 85.9724C161.586 86.2432 161.931 86.4893 161.931 86.5263C161.931 86.5878 161.685 86.7355 159.839 87.7201C158.534 88.434 157.759 88.914 156.245 89.9848C155.592 90.4525 154.952 90.8341 154.842 90.8341C154.472 90.8341 153.512 90.2556 149.611 87.6832C147.223 86.1078 146.448 85.7509 147.321 86.6493C147.814 87.154 148.995 88.0278 150.915 89.3202C152.835 90.6002 154.103 91.6218 155.469 92.951C156.072 93.5541 156.651 94.0218 156.762 94.0095C157.106 93.9357 157.032 93.5664 156.577 93.0618L156.122 92.5572L157.266 92.0033C159.113 91.1295 162.103 90.3664 165.07 90.034C166.891 89.8248 167.593 89.6648 167.593 89.4556C167.593 89.3079 165.23 89.394 163.297 89.6156C161.87 89.7879 161.39 89.6648 160.774 88.9879C160.528 88.7048 160.356 88.434 160.393 88.3725C160.429 88.3232 160.934 88.0648 161.537 87.8186C162.128 87.5724 162.743 87.2771 162.916 87.1417C163.174 86.9447 163.199 86.8832 163.063 86.6001C162.99 86.4155 162.436 85.9355 161.857 85.5047C160.319 84.4093 158.337 82.7846 157.069 81.5908C155.888 80.4707 152.454 76.8276 152.454 76.6799C152.454 76.6429 152.737 76.5322 153.082 76.4583C155.58 75.8799 161.734 71.5228 166.99 66.6119L167.445 66.1935L168.22 66.7227C172.553 69.6397 178.67 75.326 178.67 76.4337C178.67 77.123 177.735 77.566 175.113 78.0953C171.113 78.9199 165.377 80.7169 163.937 81.6031C163.42 81.9108 163.42 82.0462 163.9 84.4708C164.479 87.4494 165.045 89.1356 165.377 88.9263C165.599 88.7909 165.5 87.954 165.057 86.2186C164.553 84.2616 164.368 82.3662 164.651 82.1446C165.537 81.48 171.002 79.7199 174.744 78.8953C177.267 78.3414 178.928 78.1568 182.362 78.0337C184.024 77.9845 185.55 77.8861 185.747 77.8245C186.104 77.7014 186.092 77.7014 185.378 77.5291C184.885 77.4183 183.913 77.3568 182.412 77.3691H180.196L179.975 76.8399C179.039 74.5752 172.344 68.335 168.097 65.7627C167.457 65.3811 167.433 65.3688 167.051 65.5657C166.842 65.6765 166.19 66.2181 165.599 66.7719C164.356 67.9412 162.608 69.2581 160.725 70.4274C159.199 71.3997 158.706 71.6459 156.7 72.5075C155.223 73.1352 154.337 73.726 154.854 73.726C154.989 73.726 155.605 73.5536 156.232 73.3444C157.463 72.9136 158.079 72.9259 157.5 73.3567C156.232 74.3167 152.208 76.5199 152.208 76.2614C152.208 76.1752 151.999 75.8552 151.74 75.5598C151.482 75.2645 150.854 74.489 150.325 73.8367C149.082 72.2859 148.134 71.3874 147.728 71.3874C147.555 71.3874 147.395 71.4367 147.358 71.4982C147.223 71.7197 145.894 72.3844 145.808 72.2859C145.66 72.1382 145.463 69.5905 145.377 66.9566C145.315 64.9011 144.921 58.0948 144.761 56.3471C144.737 55.9655 144.761 54.0455 144.823 52.1008C144.897 50.1561 144.897 48.3961 144.848 48.1992C144.688 47.6084 144.491 47.6945 144.331 48.3961Z" fill="black"/>
<path d="M156.159 49.9859C155.371 50.4659 154.005 50.7243 152.368 50.7243C151.544 50.7243 150.83 50.7736 150.793 50.8351C150.522 51.2782 154.104 51.389 155.408 50.9705C156.442 50.6382 157.008 50.2936 157.008 49.9736C157.008 49.6536 156.701 49.6536 156.159 49.9859Z" fill="black"/>
<path d="M166.485 59.5481C166.485 59.7204 168.012 61.1235 169.292 62.1451C171.027 63.5113 172.886 64.7913 175.532 66.4283C179.273 68.7422 179.224 68.7053 179.261 69.0622C179.286 69.3207 179.064 69.6037 177.993 70.6499C176.676 71.9669 176.443 72.373 177.021 72.373C177.575 72.373 180.516 69.3453 180.516 68.7668C180.516 68.656 179.729 68.1391 178.67 67.536C174.621 65.2098 171.987 63.4744 169.193 61.2959C167.138 59.6835 166.485 59.265 166.485 59.5481Z" fill="black"/>
<path d="M161.698 65.4305C161.304 65.7628 159.396 66.6367 158.276 67.0059C157.661 67.2152 157.267 67.4982 157.414 67.6459C157.451 67.6829 158.202 67.4859 159.064 67.2029C161.476 66.4151 162.731 65.652 162.251 65.2459C162.116 65.1351 162.005 65.172 161.698 65.4305Z" fill="black"/>
<path d="M131.444 69.1236C131.37 69.1606 130.78 69.8129 130.14 70.5637C127.887 73.2222 124.736 76.1269 122.632 77.4685C121.376 78.2562 122.09 78.6008 123.383 77.8254C124.798 76.9884 126.152 75.8192 128.897 73.0376C130.398 71.5237 131.678 70.2806 131.74 70.2806C131.789 70.2806 132.749 71.2037 133.869 72.3237C136.86 75.3269 138.706 76.6438 139.777 76.5331L140.195 76.4961L139.395 76.0161C137.537 74.8838 135.617 73.1607 132.921 70.2437C131.85 69.0744 131.752 69.0006 131.444 69.1236Z" fill="black"/>
<path d="M147.396 75.8811C146.965 76.115 146.165 76.5457 145.624 76.8165C141.759 78.7981 138.3 81.0012 138.3 81.4566C138.3 81.6166 138.657 81.752 138.83 81.6412C138.916 81.6043 139.42 81.2474 139.962 80.8658C140.983 80.1274 144.848 77.8627 146.67 76.915C148.036 76.2134 148.91 75.4503 148.344 75.4503C148.257 75.4503 147.827 75.6473 147.396 75.8811Z" fill="black"/>
<path d="M186.424 79.3506C186.424 81.8614 187.372 86.6615 188.467 89.7508C188.837 90.7847 189.058 91.0801 189.28 90.8586C189.391 90.7478 189.354 90.5016 189.12 89.7632C188.898 89.0493 188.824 88.5324 188.824 87.6954V86.5877L189.809 86.0708C190.351 85.7877 191.138 85.4307 191.557 85.2954C192.295 85.0369 192.689 84.7538 192.529 84.5938C192.406 84.4707 190.424 85.1353 189.255 85.7138C188.677 85.9846 188.172 86.2308 188.135 86.2554C188.086 86.2677 188.024 86.1077 187.987 85.8861C187.951 85.6646 187.778 84.84 187.606 84.0646C187.434 83.2891 187.212 81.8983 187.101 80.9876C186.904 79.289 186.744 78.5875 186.535 78.4644C186.474 78.4152 186.424 78.7967 186.424 79.3506Z" fill="black"/>
<path d="M147.223 79.8176C145.217 80.8023 144.491 81.3069 144.614 81.6392C144.725 81.9346 144.835 81.91 145.451 81.43C145.746 81.1961 146.632 80.6669 147.42 80.2607C148.811 79.5345 149.377 79.1161 149.168 78.9807C149.106 78.9438 148.232 79.313 147.223 79.8176Z" fill="black"/>
<path d="M121.807 79.513C121.807 79.9807 124.675 83.0207 126.349 84.3254C126.706 84.6085 126.743 84.6823 126.62 84.9162C126.472 85.1746 126.46 85.1746 125.746 84.6823C125.352 84.3992 124.54 83.7592 123.937 83.2546C122.767 82.2576 122.423 82.0238 122.423 82.2084C122.423 82.3807 124.773 84.5223 125.783 85.2608C127.74 86.6885 127.9 86.9224 127.53 87.6239L127.334 88.0178L126.755 87.5378C125.106 86.1593 122.817 84.8669 121.376 84.4977C119.826 84.1038 119.493 84.2885 118.976 85.9008C118.004 88.904 115.949 91.821 113.278 93.9502C111.776 95.1687 111.518 95.9195 112.933 94.9718C114.115 94.1718 115.813 92.621 116.576 91.6363C117.721 90.1594 118.201 89.3963 119.296 87.2793L120.293 85.3593L120.835 85.3716C121.623 85.3716 123.346 86.1839 125.069 87.3655C126.681 88.4609 128.466 89.9871 131.407 92.8056C133.623 94.9349 134.706 95.8334 135.445 96.1534C136.368 96.5718 136.269 96.3257 135.088 95.3041C133.414 93.8641 130.374 90.7132 130.054 90.1101L129.795 89.5932L130.103 89.064C130.583 88.2393 132.688 86.3931 134.608 85.0885C135.728 84.3377 136.331 83.7838 136.331 83.5254C136.331 83.2792 136.158 83.3531 134.915 84.19C134.448 84.51 133.328 85.2116 132.429 85.7531L130.804 86.7501L129.857 86.1347C127.678 84.7439 126.226 83.5008 123.912 81.0145C122.312 79.316 121.807 78.9591 121.807 79.513Z" fill="black"/>
<path d="M179.778 80.6801C176.184 81.037 172.221 82.0216 171.593 82.7109C171.384 82.9447 171.384 82.957 171.618 82.957C171.741 82.957 172.294 82.797 172.836 82.6001C174.251 82.0832 177.168 81.517 179.593 81.2955C182.756 81.0124 183.113 80.9385 182.929 80.6308C182.818 80.4585 181.796 80.4708 179.778 80.6801Z" fill="black"/>
<path d="M179.963 82.5891C178.449 82.8599 177.279 83.1676 176.676 83.463C175.901 83.8568 175.975 84.1153 176.787 83.8076C177.292 83.623 178.609 83.3522 179.852 83.2045C181.427 83.0076 181.87 82.8722 181.87 82.5891C181.87 82.2937 181.673 82.2937 179.963 82.5891Z" fill="black"/>
<path d="M137.193 84.2869C137.193 84.4961 137.894 85.3577 138.682 86.1085C139.753 87.1424 141.008 88.0531 142.067 88.5824L142.953 89.0132L142.768 89.4686C141.956 91.4255 138.153 95.3641 133.808 98.7365C132.282 99.9181 131.408 100.804 131.408 101.161C131.408 101.297 131.58 101.518 131.777 101.666C132.208 101.973 135.113 103.364 136.011 103.697C136.528 103.881 136.577 103.93 136.38 104.041C136.257 104.103 135.974 104.177 135.753 104.201C135.519 104.214 135.088 104.423 134.743 104.669C133.623 105.494 131.359 108.029 131.125 108.718C131.063 108.903 128.663 107.081 126.977 105.58C126.263 104.952 125.082 103.881 124.331 103.217C122.571 101.641 119.912 99.6473 118.608 98.9088C116.626 97.7888 114.644 97.0626 113.278 96.9272C112.294 96.8287 112.466 96.9395 114.435 97.6657C118.029 98.995 119.937 100.226 123.691 103.623C126.878 106.503 126.952 106.589 125.192 105.272C121.795 102.737 119.469 101.444 118.792 101.715C118.608 101.777 118.768 101.887 119.494 102.207C121.106 102.909 122.201 103.66 125.598 106.367C127.457 107.844 128.983 108.878 129.845 109.198C130.177 109.334 130.62 109.518 130.817 109.617C131.297 109.863 131.556 109.703 132.331 108.632C132.86 107.918 133.008 107.807 133.734 107.537C134.177 107.364 135.063 106.995 135.703 106.712C136.614 106.294 136.996 106.195 137.55 106.195C138.608 106.195 139.137 106.527 140.836 108.263C142.276 109.74 142.35 109.789 142.854 109.789C143.42 109.789 144.171 109.346 145.993 107.955C146.977 107.204 147.999 106.712 148.59 106.712C148.984 106.712 149.341 106.909 149.808 107.364C150.202 107.758 151.261 108.312 151.63 108.312C151.753 108.312 151.975 108.374 152.122 108.46C152.59 108.718 153.107 108.657 154.178 108.189C156.098 107.34 159.544 106.404 162.239 105.986C163.126 105.851 164.073 105.666 164.369 105.58C165.021 105.395 165.698 105.543 166.892 106.158L167.741 106.589L169.661 106.158C177.858 104.337 183.914 103.426 187.003 103.537C188.8 103.61 188.898 103.561 188.665 102.7C188.443 101.9 188.48 101.444 188.825 100.435C189.477 98.5396 191.003 96.558 192.345 95.8687C192.739 95.6841 193.576 95.3764 194.228 95.1918C195.434 94.8595 195.914 94.6256 195.742 94.4533C195.693 94.4041 195.249 94.4287 194.769 94.5025C194.289 94.5887 193.871 94.6256 193.834 94.5887C193.686 94.4533 194.4 93.9241 195.385 93.4194C195.951 93.1363 196.443 92.8286 196.48 92.7302C196.591 92.4225 196.419 92.0286 195.397 90.3424C194.228 88.4224 193.699 87.3147 193.317 86.0592C193.022 85.0746 192.899 84.9269 192.603 85.21C192.172 85.6531 192.972 87.7947 194.597 90.4901C195.176 91.4625 195.656 92.324 195.656 92.3979C195.656 92.484 195.286 92.7548 194.831 93.001C192.345 94.3671 190.425 95.5118 189.428 96.201L188.295 96.9764L188.209 96.2872C188.086 95.2533 187.36 93.3702 186.978 93.0502C186.732 92.8533 186.732 92.9148 187.028 94.3795C187.175 95.0687 187.348 96.8534 187.458 98.5888C187.557 100.25 187.717 101.875 187.815 102.22L187.975 102.835L187.003 102.786C184.615 102.687 179.249 103.487 171.249 105.161C169.772 105.469 168.467 105.727 168.344 105.727C168.16 105.727 168.11 105.592 168.049 104.952C168.012 104.534 167.95 104.09 167.901 103.967C167.778 103.66 168.676 103.29 169.956 103.13C171.557 102.921 172.283 102.761 172.209 102.65C172.086 102.441 170.498 102.367 169.267 102.515C167.864 102.687 165.513 103.143 164.147 103.524C161.858 104.14 157.796 105.592 155.015 106.786C153.168 107.574 152.615 107.635 152.208 107.118C152.061 106.921 151.691 106.257 151.384 105.641L150.83 104.497L152.147 102.872C152.873 101.973 153.981 100.46 154.608 99.4996C155.852 97.6165 157.304 94.9087 157.23 94.601C157.156 94.1948 156.664 94.761 155.359 96.718C154.658 97.7765 153.624 99.2288 153.058 99.9427C151.778 101.53 149.365 104.041 147.654 105.543C146.35 106.675 144.024 108.546 143.777 108.632C143.704 108.669 143.039 108.091 142.288 107.364C140.171 105.284 137.66 103.574 134.374 101.949L132.466 101.013L132.897 100.632C133.131 100.423 134.399 99.3396 135.716 98.2195C140.319 94.3056 144.085 90.1947 145.34 87.6962C145.697 86.9947 145.956 86.1577 145.821 86.1577C145.771 86.1577 145.439 86.5639 145.082 87.0685C144.725 87.5731 144.307 88.0162 144.171 88.0531C143.617 88.2008 142.891 88.1147 142.276 87.8316C141.316 87.3762 139.445 86.0839 138.534 85.2223C137.722 84.4592 137.193 84.09 137.193 84.2869Z" fill="black"/>
<path d="M119.998 88.8296C119.432 90.5035 118.656 91.722 117.179 93.3097C115.604 95.0082 115.481 95.4513 116.945 94.1959C117.795 93.4697 118.976 92.0913 119.69 90.9712C120.17 90.2204 120.626 89.0389 120.527 88.7927C120.429 88.5466 120.084 88.5835 119.998 88.8296Z" fill="black"/>
<path d="M167.888 89.6652C167.704 90.1453 168.282 93.1484 168.935 95.1423C169.747 97.5547 171.765 101.407 172.344 101.629C172.725 101.776 172.652 101.518 171.95 100.287C170.436 97.6531 169.415 94.8223 168.775 91.5114C168.467 89.936 168.344 89.5299 168.171 89.5052C168.061 89.4806 167.925 89.5545 167.888 89.6652Z" fill="black"/>
<path d="M185.009 91.0798C181.846 91.486 177.772 92.446 176.086 93.1722L175.286 93.5168L173.501 93.3445C171.396 93.1476 170.313 93.1353 170.055 93.2953C169.747 93.4922 170.387 93.6276 172.529 93.8491C175.076 94.1076 179.273 94.1076 181.366 93.8491C184.024 93.5168 186.24 92.926 186.24 92.5568C186.24 92.2614 185.895 92.2737 184.369 92.6676C182.547 93.1229 180.529 93.3814 180.209 93.1968C179.569 92.8522 181.981 92.1383 185.6 91.6214C186.769 91.4614 187.914 91.2644 188.147 91.1783C188.517 91.0552 188.541 91.0306 188.332 90.9444C187.95 90.7967 186.88 90.846 185.009 91.0798Z" fill="black"/>
<path d="M162.62 93.1238C160.22 93.5423 158.989 94.0962 159.432 94.5393C159.543 94.65 159.703 94.6131 160.109 94.4285C160.737 94.1208 162.645 93.5915 163.765 93.4069C164.602 93.2838 165.008 93.1115 165.008 92.9269C165.008 92.7423 164.528 92.7915 162.62 93.1238Z" fill="black"/>
<path d="M162.977 94.897C159.457 95.7954 157.87 96.4847 158.19 97.0016C158.3 97.1862 158.596 97.1247 159.137 96.817C159.42 96.657 160.491 96.2631 161.501 95.9431C164.885 94.8723 164.947 94.8477 164.984 94.6139C165.033 94.3554 165.181 94.3308 162.977 94.897Z" fill="black"/>
<path d="M183.803 95.4131C183.852 95.5731 183.901 96.6685 183.901 97.8501C183.901 99.7209 183.926 100.004 184.098 100.041C184.27 100.066 184.307 99.8809 184.369 98.8101C184.455 97.6162 184.332 95.8439 184.147 95.3516C184.098 95.2408 183.975 95.1423 183.877 95.1423C183.741 95.1423 183.729 95.2162 183.803 95.4131Z" fill="black"/>
<path d="M163.224 97.1239C161.858 97.4193 160.824 97.8993 160.824 98.2316C160.824 98.527 160.959 98.527 161.538 98.2316C162.03 97.9854 163.815 97.4193 164.541 97.2962C164.787 97.2469 165.095 97.1362 165.218 97.0377C165.415 96.89 165.378 96.8777 164.885 96.8777C164.578 96.8777 163.839 96.9885 163.224 97.1239Z" fill="black"/>
</g>
<defs>
<clipPath id="clip0_990_2584">
<rect width="322" height="110" fill="white"/>
</clipPath>
</defs>
</svg>
