<svg width="322" height="110" viewBox="0 0 322 110" fill="none" xmlns="http://www.w3.org/2000/svg">
<g clip-path="url(#clip0_990_2654)">
<rect width="322" height="110" fill="white"/>
<path d="M156.501 0.175285C156.487 0.276618 156.501 0.522713 156.516 0.710903C156.53 0.985951 156.487 1.02938 156.299 0.956999C155.908 0.812237 155.748 1.0149 156.009 1.30443C156.241 1.55052 156.226 1.57947 155.951 1.73871C155.589 1.9269 155.676 2.173 156.11 2.173C156.328 2.173 156.385 2.24538 156.328 2.46252C156.226 2.85338 156.487 2.98367 156.776 2.70862C156.979 2.49147 157.008 2.50595 157.153 2.781C157.24 2.95471 157.399 3.12843 157.515 3.15738C157.674 3.21528 157.703 3.12843 157.63 2.76652C157.544 2.34671 157.558 2.31776 157.891 2.40462C158.282 2.50595 158.398 2.2309 158.094 1.9269C157.992 1.82557 158.065 1.70976 158.325 1.53605C158.788 1.23205 158.658 0.971475 158.094 1.08728C157.688 1.17414 157.674 1.15967 157.761 0.812237C157.862 0.392427 157.732 0.334523 157.384 0.652999C157.153 0.855665 157.124 0.841189 156.95 0.435856C156.762 -0.0129059 156.53 -0.143192 156.501 0.175285Z" fill="black"/>
<path d="M192.78 0.595164C192.722 0.682022 192.722 0.971545 192.765 1.24659C192.866 1.73878 192.866 1.73878 192.49 1.56507C191.954 1.31897 191.679 1.6085 192.056 2.02831C192.316 2.31783 192.316 2.33231 192.012 2.54945C191.578 2.85345 191.621 3.04164 192.128 3.04164C192.533 3.04164 192.548 3.07059 192.418 3.41802C192.172 4.05497 192.678 4.3445 193.026 3.76545C193.199 3.4904 193.214 3.50488 193.431 3.93916C193.764 4.63402 194.01 4.61954 194.01 3.92469C194.01 3.36012 194.025 3.34564 194.372 3.47593C194.85 3.66412 195.023 3.30221 194.661 2.89688C194.459 2.66526 194.444 2.60735 194.604 2.60735C194.719 2.60735 194.965 2.50602 195.154 2.36126C195.472 2.14412 195.472 2.11516 195.255 1.95593C195.125 1.85459 194.864 1.81116 194.661 1.85459C194.329 1.9125 194.3 1.88355 194.386 1.46374C194.459 1.11631 194.43 1.01497 194.256 1.01497C194.126 1.01497 193.981 1.07288 193.938 1.15974C193.764 1.43478 193.489 1.3045 193.33 0.870212C193.156 0.42145 192.939 0.320117 192.78 0.595164Z" fill="black"/>
<path d="M169.544 7.49898C169.544 7.86089 170.528 8.41098 172.598 9.1927C177.998 11.2194 181.414 12.6525 181.414 12.8841C181.414 12.942 180.647 13.4197 179.692 13.9409C178.751 14.462 176.073 16.011 173.728 17.3862C171.397 18.7615 169.414 19.8761 169.327 19.8761C168.878 19.8761 159.859 16.315 157.427 15.1858L155.878 14.462L157.239 13.6514C157.992 13.2171 159.903 12.1314 161.495 11.2483C164.477 9.59803 166.721 8.07803 166.301 7.99118C165.592 7.84641 156.284 12.7828 154.88 14.0422C154.286 14.5778 154.402 14.795 155.647 15.4319C157.572 16.4308 165.302 19.6156 168.617 20.7881L169.37 21.0487V24.5954C169.37 26.5641 169.443 31.515 169.529 35.6117C169.616 39.7085 169.747 49.0312 169.833 56.3127C169.993 70.0216 170.123 74.1763 170.369 74.4224C170.47 74.5237 171.02 74.2197 172.121 73.4814C172.989 72.8734 173.756 72.3813 173.8 72.3813C173.843 72.3813 173.887 72.7287 173.887 73.163V73.9447L173.163 74.3934C172.381 74.8712 172.251 75.2186 172.7 75.6094C173.018 75.899 174.625 76.478 174.741 76.3477C174.784 76.3043 174.828 75.2186 174.813 73.9302C174.813 72.6418 174.842 66.171 174.871 59.5554L174.944 47.5256L177.708 48.7416C180.256 49.8708 183.774 51.2895 187.248 52.6068L188.652 53.1569L188.696 55.5599C188.71 56.8917 188.725 63.3047 188.725 69.819C188.725 80.2853 188.696 81.646 188.508 81.5881C188.392 81.5447 187.639 81.2841 186.843 81.0091C185.337 80.4734 184.527 80.3432 184.628 80.6616C184.758 81.067 185.786 81.5881 188.45 82.6304L189.188 82.9199L192.576 81.0091C194.443 79.9668 197.526 78.1862 199.423 77.086L202.854 75.0594L202.781 61.4517C202.738 50.8117 202.68 47.6125 202.521 46.7584C202.376 45.9767 202.361 45.5569 202.477 45.2529C202.608 44.8765 202.579 44.8041 202.144 44.4567C201.03 43.5157 192.952 40.302 190.259 39.7375C189.188 39.5058 188.956 39.5637 189.333 39.9835C189.709 40.4034 190.274 40.6639 193.792 41.9813C196.701 43.0815 199.683 44.3119 200.711 44.8331L201.131 45.0357L198.395 46.5992C196.904 47.4533 194.153 49.0456 192.286 50.1458L188.913 52.1291L185.41 50.7973C181.747 49.4075 178.302 47.9889 176.521 47.1493L175.45 46.6571L176.16 46.2228C177.057 45.6437 179.417 44.3119 181.704 43.067C183.629 42.0102 184.787 41.2719 185.612 40.5481C186.22 40.0125 186.032 39.9835 184.903 40.4468L184.064 40.7797L183.977 33.4548C183.933 29.4304 183.817 24.2335 183.731 21.9317C183.47 14.7805 183.224 12.6815 182.616 12.2182C182.471 12.1169 181.545 11.6537 180.56 11.2049C175.595 8.96108 169.544 6.91994 169.544 7.49898Z" fill="black"/>
<path d="M154.605 16.3177C154.475 16.6217 154.33 17.2587 154.287 17.7364C154.229 18.2141 154.258 24.1059 154.345 30.8228C154.432 37.5398 154.489 43.0552 154.461 43.0697C154.417 43.1131 150.537 41.5497 150.074 41.3036C149.437 40.9562 148.728 40.8404 148.453 41.043C148.221 41.2167 148.467 41.376 150.755 42.4762C152.159 43.1566 153.577 43.779 153.896 43.8804L154.489 44.0541V46.6164V49.1786L154.099 49.3524C153.867 49.4537 152.767 50.1196 151.638 50.8289L149.582 52.1173L146.658 51.0171C143.98 50.0183 137.784 47.3257 137.494 47.0506C137.379 46.9348 138.189 46.4282 142.735 43.8659C145.167 42.4906 146.557 41.4339 146.137 41.3036C145.717 41.1588 142.633 42.7078 138.71 45.024C136.177 46.515 135.627 47.1665 136.452 47.7021C137.19 48.1943 143.965 51.1764 146.166 52.0015C147.44 52.4647 148.656 52.9135 148.858 53.0004C149.22 53.1451 149.249 53.232 149.336 54.3032C149.437 55.3889 149.408 66.1592 149.321 66.1592C149.191 66.1592 140.013 62.1783 138.551 61.4979L136.872 60.7017L136.771 55.1428C136.655 48.8602 136.539 48.0061 135.945 48.7444C135.786 48.9325 135.757 49.8445 135.786 53.5649L135.83 58.1539L135.062 58.5882C134.237 59.0659 133.499 59.6884 133.499 59.92C133.499 59.9924 133.658 60.1805 133.861 60.3398C134.237 60.6293 140.52 63.4522 144.429 65.088C148.713 66.8685 149.133 67.0278 149.394 67.0278C149.669 67.0278 152.318 65.2906 153.881 64.0891L154.793 63.3798L154.75 64.3642L154.707 65.3341L153.389 66C151.855 66.7817 151.594 66.9699 151.594 67.3318C151.594 67.6647 152.361 68.1135 154.562 69.0544C156.096 69.7059 159.831 71.3706 159.976 71.4575C160.005 71.4864 159.788 71.8918 159.498 72.3695C158.673 73.7303 157.833 75.8727 156.313 80.4906C154.113 87.251 153.114 88.9013 151.218 88.9158C150.031 88.9447 149.568 88.3367 148.815 85.7889C148.279 83.9939 147.801 83.0674 147.063 82.4449C146.412 81.8804 145.326 81.5764 144.472 81.7066C142.576 82.0106 140.245 84.3413 139.405 86.7733C139.159 87.4971 139.043 89.3211 139.246 89.5093C139.289 89.5672 139.536 89.075 139.782 88.4091C140.983 85.2533 143.545 82.5897 145.167 82.8503C146.441 83.0529 147.107 83.9794 147.83 86.4983C148.569 89.1329 149.423 90.0449 151.145 90.0449C152.651 90.0449 153.577 89.4514 154.605 87.8301C155.488 86.4259 156.14 84.8045 157.703 80.1287C159.006 76.1767 160.251 73.1802 160.917 72.3261C161.134 72.0655 161.177 72.0655 162.553 72.5287C163.32 72.7748 164.319 73.0209 164.768 73.0644L165.564 73.1367L164.912 72.7459C164.55 72.5287 163.754 72.1234 163.146 71.8484C162.524 71.5588 162.017 71.2838 162.017 71.2259C162.017 71.0087 163.016 70.6468 163.638 70.6468C164.825 70.6468 165.376 71.2259 167.214 74.4975C168.821 77.3493 169.762 78.2758 171.354 78.6087C175.002 79.3615 178.925 75.3661 180.764 68.9965C181.545 66.2605 182.038 62.2651 181.777 60.5859L181.676 59.8621L181.401 60.2095C181.039 60.6438 180.894 61.2373 180.532 63.6404C179.953 67.5924 179.273 70.0099 178.129 72.3116C177.318 73.9329 176.739 74.7291 175.567 75.8148C174.452 76.8716 173.511 77.3493 172.411 77.4217C170.746 77.552 169.805 76.7124 168.083 73.571C166.418 70.56 165.549 69.648 164.073 69.4164C163.204 69.2716 162.118 69.5756 161.337 70.1691L160.685 70.6613L158.239 69.5466C155.923 68.4899 155.792 68.403 155.734 67.9832C155.691 67.7371 155.59 57.2129 155.503 44.5897C155.3 16.2164 155.242 14.6819 154.605 16.3177Z" fill="black"/>
<path d="M211.019 20.414C210.961 20.5008 210.961 20.7324 211.004 20.9351C211.091 21.2536 211.062 21.2825 210.729 21.1957C210.338 21.0943 210.222 21.3694 210.512 21.6589C210.628 21.7747 210.599 21.876 210.44 22.0063C210.136 22.2669 210.165 22.4406 210.526 22.4406C210.787 22.4406 210.816 22.4985 210.744 22.8025C210.671 23.0631 210.715 23.1644 210.859 23.1644C210.975 23.1644 211.12 23.092 211.163 23.0197C211.308 22.788 211.438 22.8459 211.598 23.1934C211.786 23.6277 212.046 23.5553 212.003 23.092C211.974 22.8025 212.046 22.7301 212.322 22.7301C212.698 22.7301 212.799 22.4696 212.524 22.1945C212.423 22.0932 212.481 22.0208 212.756 21.9484C213.277 21.8181 213.132 21.4997 212.568 21.5141C212.162 21.5431 212.133 21.5141 212.249 21.2101C212.408 20.7759 212.264 20.6456 211.945 20.9351C211.699 21.1667 211.67 21.1522 211.54 20.8048C211.366 20.3705 211.149 20.2113 211.019 20.414Z" fill="black"/>
<path d="M147.599 26.985C147.685 27.4338 147.671 27.4628 147.324 27.3904C146.933 27.318 146.86 27.4772 147.15 27.7812C147.295 27.926 147.28 27.9984 147.077 28.1431C146.73 28.4037 146.759 28.5195 147.164 28.5195C147.439 28.5195 147.483 28.5774 147.425 28.8814C147.381 29.142 147.425 29.2433 147.599 29.2433C147.729 29.2433 147.874 29.142 147.932 29.0117C147.989 28.8525 148.076 28.9104 148.322 29.2723L148.626 29.75L148.67 29.2289C148.713 28.7656 148.757 28.7077 149.075 28.7801C149.466 28.8525 149.538 28.6498 149.191 28.3603C148.988 28.201 149.003 28.1576 149.336 27.9839C149.842 27.7233 149.813 27.5062 149.278 27.5062C148.916 27.5062 148.844 27.4483 148.844 27.1443C148.844 26.7824 148.641 26.6666 148.482 26.9271C148.337 27.1588 148.149 27.1009 148.047 26.7824C148.004 26.6231 147.859 26.4929 147.729 26.4929C147.555 26.4929 147.526 26.5942 147.599 26.985Z" fill="black"/>
<path d="M196.615 28.8658C196.615 29.3001 196.586 29.3435 196.253 29.2711C195.848 29.1987 195.776 29.4014 196.123 29.6909C196.326 29.8646 196.326 29.8936 196.051 29.9949C195.631 30.1397 195.674 30.4002 196.109 30.4002C196.427 30.4002 196.456 30.4437 196.326 30.7622C196.21 31.0662 196.224 31.1241 196.471 31.1241C196.615 31.1241 196.789 31.0517 196.847 30.9648C196.905 30.849 197.021 30.9359 197.151 31.182C197.412 31.6886 197.629 31.6597 197.629 31.1096C197.629 30.7477 197.672 30.6898 197.904 30.7622C198.28 30.878 198.41 30.6174 198.121 30.3423C197.918 30.1252 197.933 30.0962 198.28 29.966C198.758 29.7778 198.671 29.4448 198.15 29.4882C197.817 29.5172 197.788 29.4738 197.86 29.1553C197.933 28.8947 197.889 28.8079 197.73 28.8079C197.6 28.8079 197.455 28.8802 197.397 28.9671C197.339 29.0829 197.223 28.9961 197.093 28.75C196.818 28.2288 196.615 28.2722 196.615 28.8658Z" fill="black"/>
<path d="M126.304 35.6985C126.261 35.8143 126.29 36.0749 126.391 36.2775C126.608 36.7552 126.608 36.7408 126.159 36.7987C125.653 36.8566 125.595 37.1027 126.044 37.3488L126.405 37.537L126.116 37.8554C125.711 38.2897 125.754 38.4055 126.304 38.3187C126.767 38.2463 126.782 38.2608 126.724 38.6661C126.666 39.028 126.709 39.0859 126.985 39.0859C127.173 39.0859 127.332 38.9701 127.375 38.7964C127.477 38.42 127.535 38.4345 127.882 38.8688C128.258 39.3465 128.635 39.361 128.519 38.8832C128.476 38.6951 128.389 38.4345 128.345 38.3042C128.273 38.116 128.36 38.0726 128.707 38.0726C129.272 38.0726 129.301 37.7252 128.765 37.4356C128.533 37.3198 128.432 37.2185 128.519 37.204C128.765 37.204 129.315 36.625 129.214 36.4512C129.127 36.3065 128.736 36.3499 128.258 36.5526C128.041 36.6394 127.998 36.5815 127.998 36.2052C127.998 35.684 127.636 35.5827 127.491 36.0604C127.39 36.3644 127.375 36.3644 126.956 35.9156C126.478 35.3945 126.434 35.38 126.304 35.6985Z" fill="black"/>
<path d="M131.718 51.9707C131.27 52.2023 129.793 53.0998 128.461 53.9684C127.129 54.837 124.422 56.5596 122.425 57.7901C110.887 64.9269 104.214 69.3855 102.071 71.3977C101.376 72.0492 100.841 72.8888 101.043 73.0191C101.304 73.1783 102.462 72.469 104.445 70.9634C105.603 70.0804 107.543 68.6907 108.774 67.88C112.089 65.6507 121.932 59.368 124.813 57.6309C129.04 55.0831 131.603 53.3025 132.225 52.4774C133.05 51.3916 132.992 51.3193 131.718 51.9707Z" fill="black"/>
<path d="M181.255 57.516C181.14 57.6173 180.749 58.0806 180.401 58.5583C180.054 59.036 179.243 60.0493 178.621 60.7876C177.086 62.6406 176.811 63.263 177.767 62.7709C178.244 62.5248 179.547 61.1495 180.792 59.5716C181.545 58.6017 181.646 58.5293 181.863 58.7175C182.312 59.1229 182.891 60.6863 183.224 62.351C183.412 63.263 183.586 64.0448 183.629 64.0882C183.687 64.1316 183.89 64.1316 184.093 64.0737C184.411 63.9869 184.455 63.9 184.455 63.3499C184.455 62.5392 183.847 60.1507 183.441 59.34C182.978 58.428 182.442 57.7766 181.979 57.5305C181.501 57.2844 181.545 57.2844 181.255 57.516Z" fill="black"/>
<path d="M215.825 59.7303C215.782 59.7882 215.767 60.0053 215.81 60.2225C215.897 60.5844 215.868 60.6133 215.521 60.5554C215.087 60.4686 215.043 60.5988 215.376 60.9607C215.579 61.1924 215.579 61.2213 215.304 61.3806C214.942 61.5687 215.029 61.8148 215.449 61.8148C215.68 61.8148 215.724 61.8872 215.651 62.0899C215.535 62.4807 215.868 62.64 216.1 62.3215C216.216 62.1767 216.317 62.0754 216.332 62.1188C216.361 62.1478 216.447 62.307 216.534 62.4518C216.621 62.611 216.766 62.7703 216.882 62.7992C217.026 62.8571 217.041 62.7558 216.983 62.3939C216.882 61.9596 216.896 61.9307 217.244 62.0175C217.504 62.0899 217.606 62.0465 217.606 61.9017C217.606 61.7859 217.548 61.6411 217.461 61.5977C217.215 61.4529 217.302 61.2937 217.692 61.12C218.17 60.8884 217.996 60.5988 217.446 60.7147C217.055 60.787 217.026 60.7726 217.113 60.4396C217.215 60.0487 216.94 59.9329 216.621 60.2514C216.505 60.3672 216.418 60.3238 216.288 60.0343C216.114 59.6434 215.999 59.571 215.825 59.7303Z" fill="black"/>
<path d="M205.88 70.3409C205.88 70.616 206.517 71.2384 207.226 71.6293C207.632 71.8609 209.152 72.5558 210.585 73.1782C215.666 75.3497 219.082 77.2026 219.632 78.0857C219.792 78.3462 219.705 78.4765 218.663 79.4754C214.725 83.2681 199.568 94.3135 186.699 102.782C180.445 106.893 178.679 108.124 177.898 108.92C177.348 109.456 176.942 109.948 176.986 109.991C177.087 110.093 178.057 109.658 179.172 109.021C179.649 108.746 182.197 107.11 184.817 105.388C187.452 103.665 192.142 100.625 195.24 98.6563C209.123 89.8259 219.936 82.7036 220.385 82.0811C220.675 81.6758 221.152 78.3897 220.993 77.9264C220.501 76.5512 217.852 74.9009 212.25 72.4834C207.675 70.5146 205.88 69.9066 205.88 70.3409Z" fill="black"/>
<path d="M184.02 73.9304C183.817 74.0752 183.484 74.3502 183.282 74.5529C183.079 74.7555 182.543 75.2622 182.095 75.682C181.53 76.2176 181.27 76.5651 181.27 76.8112C181.27 77.4481 181.791 77.202 183.18 75.8992L184.512 74.6542L184.932 75.5517C185.193 76.0873 185.381 76.7967 185.424 77.3468C185.526 78.4614 185.685 78.7799 186.09 78.722C186.38 78.6786 186.409 78.6062 186.394 77.7232C186.365 76.4782 186.032 75.3491 185.439 74.466C184.918 73.6843 184.57 73.554 184.02 73.9304Z" fill="black"/>
<path d="M101.217 75.5091C101.217 75.6394 101.333 75.9145 101.492 76.1171C101.637 76.3343 101.811 76.6672 101.869 76.8699C102.028 77.3766 102.752 78.7518 103.056 79.1427C103.476 79.6638 111.524 83.2105 143.994 97.1655C150.842 100.104 159.383 103.839 162.958 105.46C169.212 108.283 171.152 109.05 172.484 109.239C173.063 109.311 173.077 109.311 172.802 109.079C172.31 108.689 169.082 107.096 164.333 104.91C161.829 103.767 156.097 101.074 151.594 98.9461C147.092 96.8181 142.605 94.7046 141.606 94.2413C139.666 93.3438 132.66 90.0287 129.084 88.3061C127.897 87.727 123.033 85.4398 118.299 83.2105C113.565 80.9811 108.065 78.3899 106.067 77.4489C102.708 75.871 101.405 75.2775 101.275 75.2775C101.246 75.2775 101.217 75.3788 101.217 75.5091Z" fill="black"/>
<path d="M183.688 76.694C183.558 76.8388 183.269 77.8666 183.008 79.0826C182.053 83.6716 180.547 86.8708 178.318 88.9988C177.189 90.0845 176.421 90.4609 175.336 90.4754C173.96 90.4754 173.772 90.1858 173.396 87.6525C173.048 85.3653 172.614 84.4098 171.673 83.8453C170.66 83.2228 169.444 83.3097 168.358 84.0479C167.533 84.627 166.737 85.7851 165.289 88.5066C163.494 91.8796 162.466 92.9218 160.975 92.9363C160.266 92.9363 160.28 93.139 161.004 93.4285C162.712 94.1089 164.073 93.1245 165.767 89.9542C168.286 85.235 168.85 84.5401 170.124 84.5401C171.34 84.5401 171.861 85.3653 172.281 87.9855C172.773 91.0689 173.352 91.7058 175.524 91.6045C176.479 91.5756 176.885 91.4742 177.565 91.1413C179.809 90.0411 182.024 86.7984 183.442 82.5424C184.557 79.1839 184.716 75.5504 183.688 76.694Z" fill="black"/>
<path d="M176.985 77.5058C176.927 77.6361 176.913 77.7664 176.942 77.7954C177.173 77.9836 180.648 79.4746 180.85 79.4746C181.502 79.4746 181.14 79.1417 179.62 78.331C177.767 77.3321 177.13 77.1295 176.985 77.5058Z" fill="black"/>
</g>
<defs>
<clipPath id="clip0_990_2654">
<rect width="322" height="110" fill="white"/>
</clipPath>
</defs>
</svg>
