<svg width="322" height="110" viewBox="0 0 322 110" fill="none" xmlns="http://www.w3.org/2000/svg">
<g clip-path="url(#clip0_990_2705)">
<rect width="322" height="110" fill="white"/>
<path d="M168.628 1.79759C162.451 1.90922 159.983 2.04565 159.685 2.29371C159.512 2.43015 159.499 2.62859 159.574 3.58363C159.611 4.19138 159.698 4.92315 159.747 5.19602C159.834 5.66734 159.847 5.63013 159.995 4.63788C160.07 4.05494 160.169 3.40998 160.206 3.19913L160.256 2.81464L161.285 2.72782C162.972 2.59139 169.422 2.41774 172.609 2.40534H175.598L175.685 3.02549C175.735 3.37278 175.772 5.5309 175.76 7.83787C175.76 11.9185 175.673 14.1882 175.524 14.1882C173.961 14.213 164.436 14.5727 163.89 14.6347C163.468 14.6719 163.022 14.7836 162.91 14.8704C162.712 15.0068 162.712 15.0316 162.997 15.1929C163.319 15.3789 163.245 15.3789 171.642 15.2053C175.499 15.1184 176.417 15.0688 176.553 14.92C176.69 14.7836 176.69 13.7913 176.615 9.66111C176.491 3.80688 176.38 1.93403 176.119 1.77279C176.02 1.71077 175.524 1.67356 175.015 1.68597C174.507 1.69837 171.629 1.74798 168.628 1.79759Z" fill="black"/>
<path d="M177.284 3.54555C177.111 3.7564 177.272 14.1501 177.458 14.485C177.595 14.7331 177.681 13.1579 177.805 7.86181C177.905 4.22772 177.743 2.97501 177.284 3.54555Z" fill="black"/>
<path d="M167.511 4.33922C165.886 4.76092 165.043 5.36867 164.447 6.58417C164.075 7.36556 164.038 7.51439 164.038 8.60586C164.05 9.93298 164.249 10.5159 165.043 11.4337C166.37 12.9841 169.247 13.2818 171.095 12.0663C172.348 11.2353 172.956 9.70973 172.671 8.14695C172.509 7.27874 172.187 6.52215 171.852 6.24928C171.666 6.10045 171.616 6.10045 171.492 6.27409C171.368 6.44773 171.306 6.44773 170.996 6.28649C170.798 6.18727 170.45 6.12525 170.227 6.15006C169.992 6.17487 169.805 6.18727 169.805 6.17487C169.805 6.17487 169.868 5.98882 169.942 5.76557C170.091 5.34386 170.215 5.33146 170.959 5.71595C171.443 5.96402 171.492 5.85239 171.108 5.40588C170.612 4.81053 169.619 4.38883 168.615 4.32682C168.143 4.30201 167.647 4.30201 167.511 4.33922ZM169.409 5.14542L169.805 5.28185L169.458 5.79037C169.26 6.07564 168.875 6.733 168.602 7.24153C167.796 8.74229 167.672 9.35004 168.156 9.52368C168.553 9.68492 170.624 8.87873 171.567 8.22137L171.902 7.98571L171.976 8.53144C172.137 9.54849 171.753 10.5407 170.909 11.2477C170.24 11.8306 169.471 12.0787 168.367 12.0787C167.102 12.0787 166.246 11.7438 165.551 10.9624C164.658 9.97019 164.398 8.71749 164.795 7.35315C165.043 6.52215 166.01 5.51751 166.841 5.21983C167.486 4.99658 168.863 4.94697 169.409 5.14542Z" fill="black"/>
<path d="M133.812 5.09634C133.886 6.54749 132.882 7.58934 131.567 7.44051C130.972 7.37849 130.6 7.20485 127.883 5.80331C126.345 4.99711 125.316 4.67463 123.877 4.56301C121.62 4.36456 119.338 5.30719 118.358 6.84516C117.911 7.52733 117.564 8.70561 117.614 9.37538C117.638 9.83429 117.626 9.84669 116.845 10.2312C114.786 11.2606 113.248 13.8281 113.248 16.2342C113.248 17.9087 114.054 19.9304 115.17 21.0466C116.076 21.952 116.956 22.4358 118.966 23.1427C120.851 23.7877 121.335 24.0606 121.62 24.6063C121.893 25.1396 121.856 25.5489 121.483 25.8342C121.198 26.0574 120.107 26.4667 119.276 26.6528C118.631 26.7892 119.127 27.0001 120.256 27.0621C122.55 27.1861 124.175 26.4915 125.217 24.9536C125.44 24.6187 125.651 24.383 125.688 24.4451C125.812 24.6435 125.316 25.5365 124.845 25.9706C123.939 26.814 123.865 26.8884 124.001 26.9257C124.224 27.0001 125.055 26.5288 125.477 26.0698C126.246 25.2637 126.457 24.6807 126.457 23.3288C126.457 22.2869 126.482 22.1133 126.68 22.0513C126.792 22.0141 126.891 21.9024 126.891 21.8032C126.891 21.642 126.742 21.6296 125.899 21.704C124.82 21.7908 124.411 21.6916 123.691 21.1582C122.761 20.4761 122.5 19.3474 123.145 18.7521C123.852 18.0699 124.361 18.1691 125.527 19.1986C125.961 19.5831 126.445 19.9304 126.606 19.9676C127.325 20.1536 127.499 19.2482 126.891 18.4544C126.432 17.8466 126.432 17.5862 126.904 16.2218C127.176 15.4157 127.288 14.8947 127.288 14.2746C127.288 13.5304 127.313 13.4312 127.486 13.5056C127.772 13.6172 128.962 13.9025 129.533 14.0017L130.004 14.0761L129.744 14.3986C129.446 14.7707 129.421 15.1304 129.682 15.2172C129.793 15.2668 130.066 15.0684 130.401 14.7335C130.897 14.2002 131.009 14.1505 132.014 13.9521C132.609 13.8281 133.13 13.7785 133.192 13.8405C133.254 13.9025 133.601 13.9025 133.973 13.8405C134.631 13.7412 134.643 13.7412 134.631 13.3443C134.618 13.1211 134.643 12.9474 134.705 12.9474C134.755 12.9474 135.052 12.7242 135.362 12.4513C136.838 11.149 137.161 8.78003 136.131 6.68392C135.697 5.7785 134.717 4.63742 134.395 4.63742C134.172 4.63742 134.197 4.69944 134.792 5.51804C135.797 6.91958 136.293 8.56918 136.069 9.74747C135.896 10.6529 135.821 10.6281 135.821 9.69786C135.821 8.66841 135.499 7.60175 134.841 6.49788C134.556 6.03897 134.333 5.53044 134.333 5.3816C134.333 5.12114 133.973 4.38936 133.837 4.38936C133.8 4.38936 133.787 4.71184 133.812 5.09634ZM123.79 5.39401C123.48 5.45602 122.947 5.56765 122.6 5.62967C120.938 5.97695 119.35 7.19245 118.854 8.51957C118.705 8.91647 118.581 9.35057 118.581 9.4746C118.581 9.61104 118.519 9.72266 118.445 9.72266C118.246 9.72266 118.395 8.55678 118.656 7.91182C119.09 6.84516 120.082 6.00176 121.372 5.59246C122.203 5.33199 122.463 5.29478 123.48 5.28238C124.324 5.28238 124.336 5.28238 123.79 5.39401ZM124.547 24.7675C123.952 25.6481 122.885 26.3179 121.806 26.5164C121.409 26.5908 121.397 26.5784 121.682 26.4543C123.22 25.7598 123.629 25.5117 124.2 24.904C124.559 24.5443 124.857 24.2466 124.882 24.2342C124.907 24.2342 124.758 24.4699 124.547 24.7675Z" fill="black"/>
<path d="M160.876 7.30465C158.792 7.87519 155.567 10.2318 154.426 12.0426C154.079 12.5883 153.943 13.0845 154.153 13.0597C154.203 13.0597 154.65 12.5635 155.133 11.9558C155.691 11.2736 156.473 10.5046 157.18 9.9589C158.284 9.10309 160.157 8.08604 160.938 7.93721L161.31 7.85038L160.876 8.12325C159.685 8.86743 159.499 9.00387 159.313 9.30154C159.127 9.5744 159.127 9.63642 159.276 9.73564C159.524 9.89688 159.561 9.88448 160.045 9.48758C160.293 9.28913 160.925 8.89224 161.434 8.59457C162.352 8.07364 162.687 7.63953 162.401 7.35426C162.191 7.14341 161.558 7.13101 160.876 7.30465Z" fill="black"/>
<path d="M116.56 7.68927C116.424 7.82571 116.461 8.71872 116.597 8.99159C116.771 9.28926 117.044 9.28926 117.205 8.99159C117.478 8.49547 116.895 7.35439 116.56 7.68927Z" fill="black"/>
<path d="M181.13 8.34612C179.617 8.38332 178.352 8.45774 178.302 8.50735C177.98 8.81743 181.279 9.12751 183.772 9.02828L185.657 8.94146L185.719 10.4794C185.744 11.3228 185.843 15.8624 185.942 20.5755C186.116 29.8034 186.029 34.2312 185.669 34.5909C185.434 34.839 182.941 34.9878 177.992 35.087C173.949 35.1615 169.533 35.3351 168.28 35.4715C167.139 35.5956 167.152 35.546 167.387 39.056C167.487 40.6808 167.635 42.0947 167.698 42.2064C167.784 42.3676 167.846 42.3056 168.02 41.9087C168.194 41.487 168.218 41.0405 168.181 38.87L168.132 36.3273L168.876 36.2405C170.116 36.1041 175.164 35.9056 180.473 35.7692C183.238 35.6948 185.732 35.608 186.004 35.5832C186.5 35.5087 186.525 35.4963 186.6 34.9878C186.637 34.7025 186.711 32.3336 186.749 29.7289L186.835 25.0034H190.011C191.797 25.0034 193.595 24.9414 194.116 24.8669C194.972 24.7305 195.604 24.4825 195.604 24.2592C195.604 24.2096 193.657 24.1724 191.276 24.1724C188.894 24.1724 186.897 24.1228 186.848 24.0732C186.786 24.0235 186.699 21.1957 186.649 17.8096C186.55 11.1988 186.426 8.71821 186.178 8.42053C186.017 8.22209 186.178 8.22209 181.13 8.34612Z" fill="black"/>
<path d="M115.493 9.36195C114.327 9.52319 114.302 9.89528 115.468 10.0317C116.386 10.1309 116.746 10.0317 116.696 9.69683C116.647 9.34955 116.299 9.25032 115.493 9.36195Z" fill="black"/>
<path d="M159.089 10.1681C158.817 10.2673 158.432 10.4782 158.209 10.6394C157.998 10.8007 157.403 11.0611 156.907 11.2224C156.001 11.5076 155.989 11.52 156.448 11.5573C156.708 11.5821 157.204 11.5449 157.539 11.4704C157.886 11.396 158.271 11.334 158.42 11.334C159.114 11.334 157.713 12.165 156.224 12.6487C155.369 12.9216 155.046 13.2317 155.468 13.3929C155.728 13.4921 156.931 13.1324 157.998 12.6239C158.928 12.1774 159.635 11.4456 159.635 10.9371C159.635 10.7759 159.722 10.7139 159.945 10.7139C160.206 10.7139 160.255 10.7759 160.255 11.0487C160.255 11.5449 159.598 12.8596 159.201 13.1696C158.779 13.5045 158.717 13.4673 158.891 13.0208C159.226 12.1402 158.854 12.1898 158.457 13.0704C158.271 13.4797 158.258 13.5914 158.395 13.765C158.494 13.8766 158.68 13.9386 158.854 13.9014C159.089 13.8642 159.139 13.9014 159.139 14.1371C159.139 14.6456 159.276 14.8068 159.697 14.8068C160.206 14.8068 160.627 14.3479 161.136 13.2565L161.483 12.5123V13.3185C161.496 14.2735 161.372 14.5712 161.074 14.3107C160.789 14.0875 160.677 14.2487 160.851 14.6208C161.049 15.0425 161.545 15.0425 161.818 14.6084C162.091 14.2115 162.19 12.6859 162.004 11.979C161.917 11.6813 161.744 11.334 161.607 11.1976C161.483 11.0735 161.372 10.9123 161.372 10.8503C161.372 10.7883 161.136 10.565 160.851 10.3542C160.268 9.93246 159.858 9.88285 159.089 10.1681ZM160.764 12.3511C160.615 13.0332 159.97 14.3107 159.759 14.3107C159.486 14.3107 159.648 13.5293 159.982 13.1324C160.181 12.9216 160.441 12.4751 160.578 12.165C160.702 11.8549 160.826 11.6193 160.851 11.6441C160.876 11.6689 160.838 11.979 160.764 12.3511Z" fill="black"/>
<path d="M152.851 13.5207C151.909 13.992 150.296 15.8896 147.977 19.2757C147.195 20.4043 146.153 21.8679 145.645 22.5377C144.479 24.0632 142.532 25.9237 141.54 26.457C139.766 27.3996 137.719 27.8338 135.04 27.8338C134.036 27.8338 133.478 27.8834 133.527 27.9578C133.8 28.3919 136.901 28.5159 138.612 28.1438C139.84 27.8834 141.614 27.164 142.519 26.5686C144.057 25.5516 145.583 23.8772 147.605 21.0121C150.085 17.4896 150.507 16.9191 150.668 16.9191C151.239 16.9191 152.33 18.0726 152.988 19.3749C153.298 19.995 153.682 20.3051 153.682 19.9454C153.682 19.4245 152.095 16.7827 151.499 16.3113L151.164 16.0509L152.343 14.8726L153.521 13.6943L153.67 14.0416C153.757 14.24 154.315 14.8354 154.935 15.3563C156.25 16.485 156.932 17.316 157.44 18.3826C157.75 19.0524 157.8 19.2633 157.738 19.8462C157.614 21.0617 155.815 24.088 153.546 26.9035C152.194 28.5779 149.229 31.5299 147.915 32.5097C145.831 34.0725 142.904 35.5484 140.349 36.3546C139.605 36.5903 138.625 36.9252 138.178 37.0864L137.372 37.3965L138.302 37.3221C142.185 37.012 147.443 34.2585 151.313 30.5128C153.409 28.4787 155.481 25.9361 156.82 23.7656C157.726 22.302 158.718 20.3051 158.904 19.5981C159.028 19.102 159.015 18.978 158.78 18.5067C158.643 18.209 158.222 17.5765 157.85 17.0803L157.167 16.1873L157.837 15.5672C158.507 14.9594 158.668 14.6865 158.37 14.6865C158.222 14.6865 157.936 14.8478 157.229 15.3563L156.907 15.5796L156.163 14.947C155.741 14.5997 155.034 14.1532 154.575 13.9424C154.116 13.7315 153.645 13.5083 153.533 13.4338C153.26 13.2974 153.322 13.285 152.851 13.5207Z" fill="black"/>
<path d="M133.502 14.561C132.994 14.7842 132.758 15.0075 132.895 15.1439C132.932 15.1811 133.093 15.1687 133.242 15.0943C133.49 14.9827 133.552 15.0199 133.775 15.4168C133.961 15.7393 134.11 15.8633 134.333 15.8633C134.594 15.8633 134.656 15.8013 134.681 15.4664C134.767 14.6106 134.259 14.2137 133.502 14.561Z" fill="black"/>
<path d="M130.637 15.5023C130.277 15.676 129.992 15.8992 129.992 15.9985C129.992 16.2093 130.091 16.2093 130.476 15.9985C130.761 15.8372 130.798 15.8496 131.022 16.3085C131.406 17.0899 132.101 17.0651 132.101 16.2713C132.101 15.862 131.679 15.1799 131.431 15.1799C131.344 15.1799 130.997 15.3287 130.637 15.5023Z" fill="black"/>
<path d="M134.879 16.0102L134.941 16.4071L134.296 16.097C133.502 15.7249 133.093 15.7125 133.093 16.035C133.093 16.2086 133.341 16.3947 133.999 16.7171C134.482 16.9652 135.14 17.3745 135.45 17.6474C135.946 18.0815 135.983 18.1559 135.859 18.4164C135.797 18.5776 135.363 18.9621 134.916 19.2722C134.458 19.5822 134.061 19.9047 134.036 19.9791C133.912 20.2768 134.396 20.1404 135.078 19.7063C135.45 19.4706 135.797 19.2722 135.834 19.2722C135.958 19.2722 136.194 20.6365 136.194 21.3807C136.194 23.9357 134.073 25.9574 130.786 26.5279C130.191 26.6272 129.471 26.714 129.186 26.714C128.132 26.714 127.946 27.0489 128.752 27.4582C129.831 28.0039 131.32 27.8799 132.262 27.1605C132.547 26.9372 133.155 26.5651 133.589 26.3295C134.718 25.7341 135.735 24.7047 136.219 23.6628C136.727 22.5838 136.826 21.2566 136.516 19.8427C136.355 19.1233 136.33 18.8505 136.442 18.652C136.653 18.2551 136.492 17.8334 135.896 17.1885C135.599 16.866 135.239 16.3823 135.09 16.1094C134.817 15.6133 134.817 15.6133 134.879 16.0102Z" fill="black"/>
<path d="M196.931 19.0013C196.733 19.0882 196.708 19.4975 196.658 24.6943C196.596 30.2137 196.596 30.3005 196.844 30.4369C197.489 30.7842 203.455 31.0075 207.139 30.8214C210.053 30.6726 211.269 30.5113 211.554 30.2137C211.728 30.0524 211.74 29.4323 211.703 25.3641C211.666 20.5393 211.591 19.8571 211.219 20.5269C211.083 20.7626 211.033 21.8044 210.984 25.1284C210.947 27.7455 210.872 29.4819 210.798 29.5563C210.277 30.0648 204.385 30.3501 199.821 30.0772C198.494 30.0028 197.378 29.8912 197.34 29.8416C197.303 29.792 197.291 27.485 197.316 24.6943L197.365 19.6463H202.897C207.672 19.6463 208.59 19.6215 209.557 19.4354L210.674 19.2122L206.271 19.1378C203.852 19.1006 200.813 19.0261 199.511 18.9765C198.221 18.9393 197.055 18.9393 196.931 19.0013Z" fill="black"/>
<path d="M212.286 20.911C212.187 21.1839 212.274 29.9156 212.385 30.0148C212.435 30.0645 212.497 30.0769 212.522 30.0521C212.547 30.0272 212.596 27.9435 212.609 25.4257C212.646 21.8412 212.621 20.8366 212.509 20.7994C212.423 20.7622 212.323 20.8118 212.286 20.911Z" fill="black"/>
<path d="M132.77 21.3207C132.547 21.8913 133.254 22.623 134.048 22.623C134.643 22.623 135.102 22.4122 135.052 22.1517C135.028 21.9905 134.854 21.9285 134.271 21.8789C133.614 21.8293 133.514 21.7796 133.366 21.4696C133.192 21.1099 132.882 21.0231 132.77 21.3207Z" fill="black"/>
<path d="M205.626 22.2125C205.427 22.5473 203.431 25.0528 201.905 26.9008C201.26 27.6698 201.012 28.2031 201.285 28.2031C201.483 28.2031 205.502 23.6512 206.097 22.7458C206.283 22.4729 206.395 22.1753 206.345 22.0636C206.234 21.766 205.849 21.8528 205.626 22.2125Z" fill="black"/>
<path d="M201.223 23.2546C200.466 23.7383 200.255 24.7802 200.801 25.2763C201.657 26.0577 203.046 25.1771 203.046 23.8624C203.046 23.0562 202.054 22.7213 201.223 23.2546ZM202.302 24.0236C202.302 24.6934 201.557 25.1151 201.185 24.6686C201.049 24.5073 201.086 24.4205 201.446 24.1104C201.967 23.6639 202.302 23.6267 202.302 24.0236Z" fill="black"/>
<path d="M150.556 24.4954C150.259 24.6566 150.271 25.252 150.556 25.5124C150.978 25.8969 151.759 25.7233 151.673 25.2768C151.648 25.1155 151.549 25.0535 151.362 25.0783C151.077 25.1155 150.817 24.793 150.916 24.5078C150.99 24.3341 150.842 24.3217 150.556 24.4954Z" fill="black"/>
<path d="M146.401 24.6915C146.351 24.8031 146.389 24.9272 146.463 24.952C146.724 25.0388 146.624 25.4357 146.339 25.5225C146.128 25.5721 146.091 25.6217 146.203 25.7333C146.438 25.969 146.91 25.8078 147.083 25.4357C147.232 25.138 147.22 25.0512 147.058 24.7783C146.823 24.431 146.513 24.3938 146.401 24.6915Z" fill="black"/>
<path d="M205.303 25.2924C204.299 26.1358 204.596 27.4629 205.775 27.4629C206.817 27.4629 207.635 26.1234 207.089 25.2924C206.792 24.8459 205.837 24.8459 205.303 25.2924ZM206.519 25.9125C206.519 26.2226 206.035 26.8427 205.787 26.8427C205.651 26.8427 205.279 26.4955 205.279 26.359C205.279 26.2226 206.172 25.6024 206.358 25.6024C206.444 25.6024 206.519 25.7389 206.519 25.9125Z" fill="black"/>
<path d="M132.622 28.4153C132.535 28.5642 132.436 28.9611 132.398 29.2835C132.25 30.5983 132.225 30.6727 131.853 30.8711C131.394 31.1068 130.451 30.9828 128.69 30.437C127.164 29.9657 126.991 29.9657 127.04 30.3874C127.078 30.6975 127.189 30.7595 128.814 31.268C130.736 31.8758 131.865 32.037 132.349 31.7765C132.622 31.6277 132.671 31.4913 132.758 30.7471C132.808 30.2634 132.833 29.482 132.82 29.0107C132.783 28.2417 132.771 28.1673 132.622 28.4153Z" fill="black"/>
<path d="M133.899 29.9404C133.862 30.0024 133.937 30.3249 134.073 30.6473C134.346 31.3047 134.706 32.7559 134.706 33.2396C134.706 33.6861 134.445 33.6117 133.527 32.9171C133.081 32.5698 132.659 32.2969 132.597 32.2969C132.386 32.2969 132.337 32.545 132.523 32.6194C132.634 32.6566 132.721 32.7683 132.721 32.8675C132.721 33.0783 134.023 34.1326 134.396 34.2318C134.557 34.269 134.817 34.2814 134.966 34.2566C135.239 34.2194 135.264 34.145 135.301 33.5C135.363 32.359 134.569 29.8163 134.16 29.8163C134.061 29.8163 133.937 29.866 133.899 29.9404Z" fill="black"/>
<path d="M124.82 30.3734C122.588 30.9811 120.244 32.4571 117.713 34.8633C114.588 37.84 111.723 42.0198 110.619 45.195C110.259 46.2617 110.222 46.5097 110.209 47.8616C110.209 50.181 110.78 51.8306 112.467 54.3608C114.129 56.8538 117.416 59.9546 119.239 60.7484C119.673 60.9344 119.809 61.0461 119.747 61.1949C117.949 65.2507 114.526 79.2165 113.31 87.4025C112.764 91.1482 112.591 93.4924 112.665 96.4815C112.74 99.4458 112.901 100.587 113.447 101.716C114.092 103.055 116.014 103.886 119.177 104.184L120.082 104.271L120.045 105.461L120.008 106.652L118.582 106.801C117.8 106.875 117.13 106.95 117.106 106.95C117.068 106.962 117.106 107.024 117.168 107.086C117.589 107.508 128.119 107.706 129.496 107.322C130.637 107.012 131.084 106.354 130.464 105.908C129.769 105.424 124.659 104.06 124.659 104.357C124.659 104.605 126.023 105.238 127.76 105.796C129.67 106.416 129.781 106.565 128.368 106.578C126.817 106.602 123.853 105.833 122.216 104.99L121.496 104.618L121.992 104.605C122.265 104.605 122.712 104.519 122.985 104.419C123.257 104.308 124.287 104.097 125.267 103.923C126.259 103.75 127.4 103.526 127.809 103.415C128.876 103.142 130.29 102.447 130.662 101.988L130.985 101.604V97.6846C130.985 90.6025 131.307 83.3219 131.816 78.6211L132.039 76.6367L132.101 88.6056C132.138 95.1916 132.212 100.661 132.25 100.761C132.299 100.86 132.361 101.244 132.411 101.604L132.485 102.261L132.039 102.174C131.257 102.026 131.679 102.646 132.535 102.881L132.994 103.018L132.919 103.65C132.882 104.01 132.833 104.692 132.833 105.188L132.82 106.069L132.25 106.181C131.443 106.329 131.443 106.553 132.25 106.64C135.574 106.974 138.848 107.036 140.163 106.788C141.378 106.553 141.701 106.168 141.13 105.635C140.411 104.978 136.467 103.365 135.611 103.365L135.14 103.378L135.512 103.675C135.722 103.849 136.442 104.209 137.124 104.481C137.806 104.754 138.873 105.226 139.481 105.523C140.771 106.156 140.659 106.205 138.612 105.908C137.285 105.722 135.66 105.238 134.284 104.618C133.54 104.271 133.44 104.196 133.515 103.948C133.552 103.799 133.589 103.638 133.589 103.576C133.589 103.526 133.924 103.489 134.333 103.489C134.805 103.489 135.102 103.427 135.164 103.328C135.226 103.229 135.722 103.105 136.442 103.018C139.518 102.646 142.122 101.554 142.978 100.277C143.226 99.9171 143.264 99.6939 143.264 98.7885C143.264 96.99 143.115 95.8241 140.969 81.2258C140.324 76.8599 139.691 72.3948 139.555 71.3034C139.133 67.9297 138.464 61.0833 138.116 56.4818C138.017 55.1546 137.893 53.8647 137.856 53.6042L137.781 53.1577L138.699 52.6988C139.753 52.1903 140.361 51.6818 140.485 51.2229C140.535 51.012 140.361 50.305 139.927 49.0151C138.91 45.9392 138.178 42.6896 138.178 41.2384C138.178 40.7051 137.93 39.7377 137.794 39.7377C137.645 39.7377 137.657 41.995 137.806 43.1113C137.955 44.1655 138.451 46.3733 139.096 48.8539C139.344 49.8089 139.543 50.7267 139.518 50.888C139.456 51.4089 138.414 52.0167 136.479 52.674C134.073 53.4802 131.704 53.8771 128.74 53.9639L126.433 54.0384L126.358 53.6539C126.259 53.1453 125.738 52.7732 124.163 52.0787C122.34 51.2601 122.327 51.2353 121.98 49.3252C121.819 48.457 121.682 47.5392 121.682 47.3035C121.682 46.7454 121.558 46.3113 121.409 46.3113C121.347 46.3113 121.31 47.1795 121.335 48.4198C121.36 49.5857 121.335 50.5283 121.298 50.5283C121.087 50.5283 119.995 49.5485 119.04 48.519C118.036 47.4399 117.961 47.3903 117.961 47.7252C117.961 48.9407 119.834 50.826 122.526 52.2895L122.91 52.5004L122.749 53.0709C122.513 53.8275 121.719 55.0306 120.938 55.7996C120.281 56.4569 120.07 56.9903 120.603 56.7174C121.161 56.4073 122.526 54.8942 123.121 53.9019C123.456 53.3438 123.766 52.8849 123.828 52.8849C123.878 52.8849 124.212 53.0337 124.56 53.2074C125.168 53.5174 125.18 53.5422 125.118 53.9763C124.957 55.2166 123.592 57.8089 122.675 58.6275C122.067 59.1732 121.137 59.6445 120.417 59.7685C119.239 59.9794 117.726 59.1112 115.654 57.0275C114.017 55.3779 112.913 53.8895 112.07 52.2027C111.276 50.5903 111.028 49.7345 110.941 48.2337C110.879 47.2663 110.916 46.9686 111.189 46.0012C112.492 41.5361 116.994 35.8183 121.682 32.6928C122.253 32.3083 123.506 31.5889 124.473 31.0928C125.788 30.4106 126.123 30.1997 125.837 30.1997C125.639 30.1997 125.18 30.2866 124.82 30.3734ZM125.949 58.3794C125.664 58.9251 124.771 60.2027 124.659 60.2027C124.585 60.2027 123.667 59.5825 123.431 59.3717C123.394 59.3468 123.63 59.0616 123.94 58.7391C124.25 58.4166 124.647 57.9453 124.845 57.6972L125.18 57.2259L125.664 57.6104L126.147 57.9825L125.949 58.3794ZM116.175 77.9514C114.575 87.2661 113.844 94.2862 114.116 97.9823C114.302 100.637 114.774 101.666 116.237 102.547C116.671 102.807 116.944 102.993 116.845 102.968C115.778 102.633 115.233 102.361 114.712 101.877C114.178 101.381 114.092 101.219 113.868 100.351C113 96.8908 113.335 91.0118 114.861 83.0242C115.22 81.1142 116.51 75.3343 116.56 75.384C116.585 75.4088 116.411 76.5622 116.175 77.9514ZM123.109 106.218C123.654 106.441 124.126 106.627 124.15 106.652C124.175 106.677 123.381 106.689 122.377 106.677L120.566 106.652V105.821V104.978L121.347 105.412C121.769 105.635 122.563 106.007 123.109 106.218ZM133.688 105.102C133.8 105.176 134.321 105.399 134.829 105.598L135.76 105.957L134.619 105.97C133.986 105.97 133.428 105.97 133.378 105.982C133.242 105.982 133.18 105.623 133.267 105.275C133.354 104.94 133.378 104.928 133.688 105.102Z" fill="black"/>
<path d="M140.919 31.2536C140.498 31.6009 140.386 32.2086 140.721 32.3451C140.857 32.3947 140.907 32.3327 140.907 32.1342C140.907 31.8241 141.118 31.5513 141.353 31.5513C141.44 31.5513 141.614 31.7125 141.738 31.9234C141.961 32.3202 142.395 32.4319 142.395 32.097C142.395 31.6629 141.8 30.9435 141.44 30.9311C141.366 30.9311 141.13 31.0799 140.919 31.2536Z" fill="black"/>
<path d="M131.728 32.4839C131.567 32.67 131.666 33.3025 132.014 34.2079C132.125 34.5056 132.113 34.5924 131.915 34.7289C131.456 35.0637 130.947 34.9149 128.578 33.7242C126.37 32.608 125.825 32.3971 125.924 32.6576C125.961 32.7816 129.583 35.0017 130.501 35.473C131.468 35.9568 132.125 36.0808 132.584 35.8451C133.08 35.5847 133.08 35.2622 132.634 33.7366C132.212 32.2855 132.063 32.0746 131.728 32.4839Z" fill="black"/>
<path d="M133.291 35.0137C133.242 35.0882 133.304 35.3486 133.403 35.6091C133.775 36.4773 133.986 37.6804 134.073 39.4044C134.122 40.3346 134.209 41.1408 134.259 41.1904C134.432 41.3641 134.581 40.9052 134.581 40.1362C134.581 39.0447 134.842 39.1191 135.325 40.3594C135.871 41.7486 136.045 41.5253 135.648 39.9749C134.78 36.6509 133.688 34.3564 133.291 35.0137Z" fill="black"/>
<path d="M123.344 37.9389C123.245 38.187 123.381 38.5342 123.543 38.435C123.605 38.3978 123.667 38.4102 123.667 38.4846C123.667 38.5591 123.53 38.6459 123.356 38.6955C123.183 38.7327 123.046 38.8195 123.046 38.8691C123.046 38.9932 123.369 39.1172 123.654 39.1172C124.15 39.1172 124.498 38.2614 124.138 37.9017C123.927 37.6908 123.431 37.7156 123.344 37.9389Z" fill="black"/>
<path d="M127.946 41.9705C127.673 42.2805 127.772 42.417 128.12 42.2185C128.268 42.1441 128.442 42.1193 128.504 42.1565C128.665 42.2557 128.665 42.8015 128.504 42.9007C128.318 43.0247 128.355 43.4216 128.566 43.5084C128.839 43.6077 129.273 42.8759 129.186 42.4666C129.099 42.1069 128.69 41.7224 128.38 41.7224C128.268 41.7224 128.07 41.834 127.946 41.9705Z" fill="black"/>
<path d="M172.038 42.6181C170.91 42.6801 167.71 42.7049 164.907 42.6801C162.116 42.6553 159.747 42.6553 159.672 42.6801C159.362 42.7917 159.561 53.049 159.896 54.0785C159.958 54.3017 160.156 54.525 160.355 54.6118C160.925 54.8847 164.696 55.0211 168.689 54.9467C173.192 54.8474 175.449 54.6862 175.871 54.4133L176.168 54.2273L176.069 49.2289C176.02 46.4878 175.945 44.0444 175.896 43.8212L175.809 43.3995L175.561 43.7715C175.337 44.1188 175.325 44.3793 175.325 48.4847C175.325 50.8661 175.275 53.0366 175.226 53.2847C175.102 53.8056 175.151 53.7808 172.969 53.9916C169.558 54.3265 167.734 54.4133 165.031 54.3389C162.265 54.2645 160.814 54.1157 160.603 53.9048C160.454 53.756 160.28 50.742 160.181 46.7483L160.094 43.2754H165.353C170.786 43.263 172.212 43.1762 174.023 42.7297C175.102 42.4568 175.015 42.4568 172.038 42.6181Z" fill="black"/>
<path d="M120.641 43.6449C120.107 44.2899 119.152 45.9519 118.904 46.6589C118.768 47.0186 118.768 47.1922 118.867 47.2914C119.128 47.5519 119.301 47.4155 119.562 46.7085C119.698 46.3116 120.157 45.4806 120.566 44.8728C121.013 44.2031 121.311 43.6325 121.311 43.4217C121.311 42.9504 121.162 43 120.641 43.6449Z" fill="black"/>
<path d="M176.504 44.3895C176.417 44.4888 176.392 44.6748 176.442 44.7864C176.491 44.9105 176.578 46.8453 176.628 49.1027C176.69 51.3476 176.777 53.3321 176.826 53.4934C176.913 53.7786 176.926 53.791 177.012 53.5554C177.124 53.2577 177.136 44.9973 177.012 44.588C176.913 44.2159 176.715 44.1291 176.504 44.3895Z" fill="black"/>
<path d="M114.786 45.0094C114.662 45.1955 114.613 45.4311 114.662 45.6296C114.762 46.0265 115.27 46.3614 115.605 46.2497C115.89 46.1629 115.94 45.8156 115.667 45.8156C115.419 45.8156 115.431 45.6668 115.729 45.2823C116.089 44.8234 116.039 44.6994 115.481 44.6994C115.096 44.6994 114.948 44.7614 114.786 45.0094Z" fill="black"/>
<path d="M132.622 45.1593C132.473 45.4322 132.609 45.8043 132.944 46.1144C133.155 46.3004 133.18 46.3872 133.081 46.5857C133.006 46.7221 132.982 46.8586 133.006 46.8958C133.155 47.0446 133.577 46.7717 133.713 46.4493C134.036 45.6679 132.994 44.4524 132.622 45.1593Z" fill="black"/>
<path d="M171.542 47.5142C170.996 48.1344 169.942 49.7716 169.434 50.7638L169.037 51.5452L168.627 50.9499C168.392 50.615 168.107 50.2181 167.982 50.0817C167.747 49.7964 167.213 49.4863 167.127 49.5732C167.065 49.6228 168.528 51.9173 168.863 52.2894C169.148 52.5995 169.409 52.4382 169.769 51.7189C170.203 50.8631 171.058 49.5359 171.877 48.4569C172.584 47.5391 172.671 47.1422 172.212 47.0801C172.038 47.0553 171.815 47.2042 171.542 47.5142Z" fill="black"/>
<path d="M128.368 48.9055C127.921 49.3644 127.896 49.8854 128.293 50.2575C128.628 50.5799 128.913 50.6047 129.124 50.3443C129.261 50.183 129.236 50.0962 129.012 49.873C128.69 49.5133 128.69 49.3893 129 49.104C129.137 48.98 129.248 48.8063 129.248 48.7071C129.248 48.4218 128.752 48.5334 128.368 48.9055Z" fill="black"/>
<path d="M116.659 53.1843C116.386 53.3827 116.498 53.8169 116.783 53.7052C117.353 53.4944 117.539 54.1269 117.006 54.4246L116.659 54.6106L116.981 54.623C117.391 54.623 117.676 54.3998 117.775 53.9781C117.837 53.7176 117.787 53.5688 117.539 53.3331C117.192 52.9734 116.994 52.9362 116.659 53.1843Z" fill="black"/>
</g>
<defs>
<clipPath id="clip0_990_2705">
<rect width="322" height="110" fill="white"/>
</clipPath>
</defs>
</svg>
