<svg width="322" height="110" viewBox="0 0 322 110" fill="none" xmlns="http://www.w3.org/2000/svg">
<g clip-path="url(#clip0_990_2742)">
<rect width="322" height="110" fill="white"/>
<path d="M182.399 1.31396C182.218 1.69858 182.206 3.56156 182.387 4.16252C182.507 4.64329 182.879 4.79954 183.024 4.43896C183.18 4.03031 183.252 1.53031 183.108 1.27791C182.916 0.91733 182.567 0.941369 182.399 1.31396Z" fill="black"/>
<path d="M165.645 3.65703C164.274 3.89741 162.868 4.52241 161.858 5.33972C161.065 5.96472 159.935 7.63539 159.491 8.8253C159.01 10.1354 158.613 11.8662 158.397 13.669C157.796 18.657 157.712 18.9455 156.666 20.0152C155.921 20.7724 155.464 20.9647 154.407 20.9647C154.058 20.9647 153.77 21.0008 153.77 21.0368C153.77 21.0849 154.022 21.5537 154.346 22.0825C155.068 23.3325 156.678 24.9791 157.676 25.496C159.923 26.6739 162.796 26.8301 164.911 25.8926L165.44 25.6642L166.005 26.0969C168 27.6234 170.356 27.7436 172.363 26.4094C172.712 26.1811 173.133 25.8325 173.301 25.6282C173.589 25.2916 173.625 25.2796 173.818 25.4479C174.178 25.7724 175.548 26.3373 176.342 26.4936C177.219 26.6739 178.541 26.5897 179.455 26.3133C180.873 25.8806 182.459 24.4022 183 23.008C183.157 22.5993 183.265 22.0465 183.265 21.5296L183.289 20.7243H182.592C181.762 20.7243 181.233 20.52 180.789 20.0513C180.404 19.6306 180.212 19.1618 180.212 18.645C180.212 18.4287 180.464 17.2868 180.765 16.0969C181.27 14.1378 181.33 13.7652 181.378 12.1907C181.426 10.8565 181.39 10.2556 181.245 9.63059C180.801 7.75559 179.611 6.24116 177.88 5.3878C176.955 4.93107 176.87 4.91905 175.717 4.91905C174.383 4.91905 173.782 5.11135 172.892 5.80847L172.435 6.16905L171.967 5.68828C170.476 4.14982 167.748 3.27241 165.645 3.65703ZM168.685 4.57049C169.274 4.75078 170.476 5.29164 170.476 5.37578C170.476 5.39982 170.08 5.29164 169.611 5.12337C168.529 4.7628 166.87 4.72674 165.669 5.02722C163.866 5.48395 161.979 6.72193 160.981 8.09212C160.14 9.27001 160.116 9.29405 160.32 8.7652C160.885 7.34693 162.219 5.79645 163.457 5.13539C164.142 4.77482 165.116 4.4503 165.849 4.3301C166.462 4.24597 168 4.36616 168.685 4.57049ZM177.387 6.12097C178.373 6.60174 179.527 7.73155 179.959 8.63299C180.512 9.78684 180.524 10.0392 179.983 9.23395C178.733 7.37097 176.498 6.10895 174.635 6.2051C173.758 6.24116 173.721 6.14501 174.539 5.88059C175.38 5.61616 176.558 5.71232 177.387 6.12097ZM171.354 10.2195C171.726 10.7123 172.375 11.3614 172.796 11.6739C173.613 12.2748 175.08 13.032 175.452 13.032C175.669 13.032 175.681 13.1282 175.608 15.3998C175.512 18.9335 175.128 20.7965 174.058 23.008C173.577 24.0176 173.289 24.4263 172.652 25.0633C171.029 26.6739 169.298 26.9984 167.435 26.0729C164.875 24.7748 163.108 21.3734 162.94 17.419C162.868 15.8686 163.06 13.5489 163.277 13.1402C163.337 13.02 163.553 12.8878 163.77 12.8517C164.082 12.7796 164.19 12.8037 164.322 13.02C164.443 13.1883 164.623 13.2724 164.875 13.2724C165.428 13.2844 166.185 13.669 166.75 14.234C167.243 14.7267 167.832 15.7844 167.832 16.1931C167.832 16.5777 167.495 17.2147 167.195 17.419C166.919 17.5873 166.846 17.5993 166.558 17.4431C166.378 17.3469 166.065 16.9864 165.849 16.6258C165.596 16.1931 165.392 15.9767 165.236 15.9767C164.911 15.9767 164.971 16.5056 165.368 17.1907C165.969 18.2123 166.979 18.5008 167.724 17.8758L168.108 17.5392L168.036 18.2003C167.82 19.919 167.796 20.2436 167.916 20.2436C168.433 20.2436 168.758 16.9383 168.373 15.6041C167.988 14.27 166.919 12.996 165.873 12.6354C165.44 12.4912 165.404 12.4431 165.608 12.371C168.349 11.3373 169.635 10.6282 170.2 9.79885C170.392 9.53443 170.56 9.31809 170.596 9.31809C170.633 9.31809 170.969 9.72674 171.354 10.2195ZM177.676 14.8349C178.217 15.1234 178.277 16.0849 177.808 16.9984C177.58 17.4431 176.414 18.645 176.318 18.5489C176.282 18.5128 176.318 17.7075 176.39 16.77L176.534 15.0392L176.907 14.883C177.351 14.6907 177.411 14.6787 177.676 14.8349ZM161.943 15.8565C161.991 15.8806 162.063 16.5416 162.111 17.3229C162.159 18.1041 162.231 18.8734 162.267 19.0296L162.339 19.3181L161.822 19.0296C160.452 18.2604 159.731 16.2772 160.645 15.8205C160.897 15.7003 161.726 15.7243 161.943 15.8565Z" fill="black"/>
<path d="M169.827 12.2296C169.262 12.5421 168.853 13.0589 168.95 13.3233C169.07 13.6238 169.334 13.5517 169.779 13.119C170.32 12.5661 170.933 12.4579 171.57 12.7825C172.135 13.0829 172.351 13.095 172.447 12.8546C172.531 12.6382 172.159 12.2296 171.726 12.0733C171.197 11.869 170.332 11.9411 169.827 12.2296Z" fill="black"/>
<path d="M171.918 15.3396C171.858 15.4959 171.786 15.8204 171.737 16.0608C171.629 16.7339 171.136 17.2627 170.668 17.2146C170.355 17.1906 170.235 17.0824 169.971 16.5776C169.418 15.544 168.853 15.9406 169.394 16.9983C170.031 18.2483 171.401 18.2603 172.074 17.0223C172.447 16.3252 172.603 15.4959 172.398 15.2555C172.194 15.0031 172.05 15.0271 171.918 15.3396Z" fill="black"/>
<path d="M170.187 22.241C169.718 22.6978 169.646 22.7098 168.468 22.4574C168.12 22.3973 168.072 22.4093 168.072 22.6377C168.072 23.1304 169.045 23.479 169.839 23.2627C170.428 23.1064 170.992 22.5415 170.932 22.1569C170.872 21.7362 170.68 21.7603 170.187 22.241Z" fill="black"/>
<path d="M186.341 5.11144C185.043 5.55615 184.598 5.91672 185.079 6.10903C185.344 6.20519 187.315 5.84461 187.627 5.62826C188.036 5.36384 187.988 5.0273 187.531 4.93115C187.074 4.84701 187.147 4.83499 186.341 5.11144Z" fill="black"/>
<path d="M153.444 11.7106C146.846 12.3957 138.492 15.8212 132.194 20.4246C128.084 23.4294 123.396 28.201 120.451 32.3837C116.076 38.5976 113.276 45.6409 112.483 52.4558C112.218 54.7034 112.254 56.1337 112.591 56.0255C112.939 55.9053 113.156 55.1601 113.444 53.1048C114.237 47.564 115.271 44.0784 117.447 39.6673C118.636 37.2395 119.562 35.8092 121.1 34.0063L122.23 32.6842L123.023 32.5399C123.504 32.4678 124.37 32.1433 125.283 31.7226L126.749 31.0255L128.42 31.3621C130.523 31.7827 131.689 31.7587 132.531 31.2659C133.468 30.713 133.588 30.4726 133.757 28.8741C133.829 28.2491 133.901 28.1048 134.442 27.5159C135.439 26.4221 135.992 26.1697 138.961 25.4125C141.173 24.8476 141.906 24.5351 142.723 23.7659C144.093 22.4919 144.249 21.1697 143.156 20.1601C142.471 19.5231 141.822 19.3068 140.307 19.1866C139.117 19.0904 138.144 18.802 138.144 18.5496C138.144 18.5015 138.444 18.2371 138.817 17.9726C141.305 16.1938 148.06 13.6697 152.386 12.9005C153.18 12.7683 154.454 12.4438 155.211 12.1914C156.413 11.7947 156.533 11.7347 156.112 11.7226C155.848 11.7106 155.367 11.6866 155.031 11.6625C154.706 11.6265 153.985 11.6505 153.444 11.7106ZM142.951 22.2996C142.771 22.7322 141.918 23.5135 141.269 23.85C140.992 23.9943 139.79 24.3548 138.588 24.6433C136.088 25.2683 134.923 25.7731 134.057 26.6145C133.3 27.3476 133.084 27.8044 132.903 28.9943C132.735 30.1241 132.639 30.2923 131.954 30.5928C131.305 30.8933 130.235 30.8813 128.793 30.5688C126.858 30.1361 126.413 30.1842 124.73 30.9774C123.949 31.35 123.06 31.6866 122.759 31.7346C122.146 31.8308 122.122 31.9029 123.084 30.7371C123.54 30.1962 123.697 30.088 124.466 29.8596C126.148 29.3428 126.593 29.3188 127.591 29.6673C128.817 30.088 129.874 30.1842 130.704 29.9438C131.701 29.6433 132.17 29.0423 132.555 27.576C133.084 25.5327 133.709 25.1121 137.735 24.0784C140.115 23.4654 141.665 22.8765 142.218 22.3717C142.374 22.2274 142.615 21.8669 142.759 21.5664L143.011 21.0255L143.048 21.4943C143.072 21.7467 143.023 22.1072 142.951 22.2996Z" fill="black"/>
<path d="M183.757 16.1349C183.829 16.195 184.694 16.6878 185.68 17.2287C188.757 18.9354 191.329 20.7142 193.06 22.3489C194.057 23.2864 195.728 25.4739 195.644 25.7022C195.608 25.7864 195.464 25.9186 195.319 26.0027C194.947 26.195 193.901 26.4955 193.601 26.4955C192.795 26.4955 191.666 27.1085 191.317 27.7215C191.209 27.9138 191.161 27.9138 190.56 27.7335C189.538 27.433 188.156 27.5532 187.134 28.034C185.584 28.7551 184.286 30.4979 183.937 32.3248C183.865 32.7215 183.817 33.5147 183.841 34.0917L183.877 35.1493L183.216 35.2695C179.839 35.9306 178.829 36.5436 177.375 38.7792C176.004 40.8705 175.728 41.0989 173.841 41.5796C171.437 42.2046 170.391 42.9018 169.67 44.3681L169.214 45.2936V47.409C169.202 49.7647 169.286 49.5003 168.12 51.0748C167.158 52.3729 166.822 53.1061 166.822 53.9594C166.834 54.8008 167.026 55.2455 167.747 56.0388C168.841 57.2167 169.803 57.3128 172.266 56.4594C173.685 55.9667 174.033 55.8945 174.923 55.8945C176.245 55.8825 176.882 56.171 178.42 57.4691C181.305 59.909 183.084 60.6662 185.92 60.6542C187.579 60.6421 188.745 60.3897 189.959 59.7768C191.69 58.9114 192.831 57.9138 195.464 55.0051C198.396 51.7599 199.31 51.0748 200.728 51.0748C201.461 51.0748 201.485 51.0868 202.891 52.0484C204.538 53.1782 205.536 53.707 206.497 53.9594C207.266 54.1638 208.048 54.1998 208.144 54.0316C208.216 53.9234 208.18 53.9114 206.557 53.2864C205.896 53.046 204.971 52.5292 203.853 51.7599C202.916 51.1349 201.978 50.546 201.762 50.4498C201.545 50.3657 201.029 50.2936 200.608 50.2936C199.959 50.2936 199.694 50.3657 198.961 50.7263C198.012 51.207 197.146 52.0123 193.889 55.4859C190.968 58.5748 189.502 59.4883 186.882 59.8128C184.081 60.1493 181.882 59.332 178.949 56.8441C178.36 56.3393 177.519 55.7503 177.086 55.546C176.413 55.2094 176.161 55.1614 175.199 55.1253C174.226 55.0893 173.913 55.1253 172.735 55.4618C170.644 56.0628 169.454 55.9787 168.649 55.1614C168.468 54.9811 168.264 54.6445 168.192 54.4042C167.976 53.6229 168.216 53.0099 169.766 50.2335C170.175 49.5123 170.175 49.5003 170.151 48.07C170.115 46.0268 170.391 44.945 171.293 43.7792C171.822 43.082 172.303 42.8296 174.021 42.3849C174.754 42.1926 175.512 41.9522 175.704 41.8441C176.293 41.5436 177.122 40.582 178.096 39.0917C178.589 38.3224 179.214 37.5292 179.454 37.3128C179.995 36.8681 181.209 36.2671 182.591 35.7623C183.468 35.4498 183.577 35.4258 183.577 35.6181C183.577 35.9186 184.478 37.7215 185.079 38.6349C185.716 39.5965 187.23 41.0868 188.216 41.7239C188.865 42.1325 190.235 42.6013 190.379 42.457C190.404 42.421 190.007 42.0724 189.502 41.6758C186.954 39.6926 185.283 37.4691 184.73 35.3176C184.081 32.7816 185.211 30.0652 187.375 29.0075C188.877 28.2623 190.331 28.4066 191.738 29.4402C192.327 29.8729 192.531 30.1253 192.879 30.8465C193.456 32.0123 193.637 33.1782 193.432 34.4162C193.144 36.171 192.315 38.3224 191.029 40.558C190.379 41.6878 190.295 42.0003 190.644 42.0003C191.101 42.0003 191.762 41.1229 192.615 39.4162C194.839 34.9811 194.863 31.3633 192.675 29.0556C192.11 28.4546 192.086 28.4066 192.279 28.1902C192.495 27.9618 193.048 27.7695 193.913 27.6373C194.214 27.5892 194.562 27.4931 194.694 27.433C195.187 27.1806 196.221 26.3272 196.365 26.0388L196.521 25.7503L197.254 26.5676C199.081 28.6109 201.413 31.8561 202.711 34.1277C204.694 37.6133 206.557 42.2888 207.555 46.2431C208.324 49.284 208.637 51.4474 209.045 56.5917C209.105 57.3729 209.202 58.058 209.274 58.1301C209.442 58.2984 209.875 57.6974 209.971 57.1686C210.127 56.3633 209.923 52.8056 209.61 50.8945C208.685 45.1253 207.218 40.582 204.779 35.8945C202.483 31.4594 199.73 27.7575 195.896 23.9114C192.182 20.1854 187.723 17.2287 184.298 16.2311C183.937 16.1229 183.697 16.0868 183.757 16.1349Z" fill="black"/>
<path d="M188.517 30.4854C187.111 30.8821 186.077 32.4326 186.33 33.7667C186.606 35.233 187.748 36.1465 189.286 36.1585C190.019 36.1705 190.212 36.1225 190.789 35.7979C191.69 35.2811 192.147 34.56 192.207 33.5143C192.243 32.9614 192.195 32.5768 192.051 32.1802C191.774 31.471 191.089 30.7018 190.729 30.7018C190.584 30.7018 190.26 30.6177 190.031 30.5215C189.539 30.3172 189.118 30.3052 188.517 30.4854ZM190.164 31.0023C190.248 31.0744 189.755 32.0359 189.358 32.5648C189.01 33.0215 188.697 33.2619 188.036 33.5864C187.075 34.0431 186.943 34.0071 186.943 33.2499C186.943 32.3604 187.82 31.3268 188.866 31.0023C189.31 30.8701 190.007 30.858 190.164 31.0023ZM191.39 32.8292C191.726 34.1874 190.705 35.3893 189.226 35.3893C188.854 35.3893 188.433 35.2931 188.132 35.1369L187.652 34.8965L188.361 34.5479C189.142 34.1513 189.899 33.322 190.416 32.2883L190.729 31.6513L190.993 31.9758C191.137 32.1561 191.306 32.5407 191.39 32.8292Z" fill="black"/>
<path d="M126.641 32.132C126.221 32.3363 125.884 32.6729 125.884 32.9132C125.884 32.9493 126.064 32.8772 126.281 32.745C126.485 32.6128 126.725 32.5046 126.798 32.5046C126.966 32.5046 127.362 33.3099 127.278 33.4541C127.242 33.5142 126.834 33.5262 126.389 33.4902C125.548 33.4301 125.343 33.5142 125.475 33.8628C125.548 34.0671 125.956 34.1632 127.17 34.2714C128.516 34.3796 129.009 34.0911 129.009 33.1656C129.009 32.6368 128.624 32.2161 127.975 32.0358C127.35 31.8556 127.23 31.8676 126.641 32.132Z" fill="black"/>
<path d="M140.668 34.8739C137.206 35.2706 135.223 37.3018 135.055 40.6191C134.911 43.4436 135.92 45.4869 138.817 48.2393C140.331 49.6816 142.182 50.9797 142.471 50.8114C142.723 50.6432 145.5 45.5109 145.956 44.3571C146.653 42.5903 146.822 41.1239 146.485 39.5013C145.836 36.2922 143.625 34.5374 140.668 34.8739ZM141.726 38.5037C142.603 38.9605 142.951 39.5494 142.951 40.6071C142.951 41.3523 142.651 41.8932 141.99 42.3379C141.641 42.5783 141.461 42.6143 140.872 42.5783C140.319 42.5302 140.115 42.4581 139.814 42.1696C139.009 41.4124 138.805 40.547 139.214 39.6576C139.466 39.1047 139.694 38.8884 140.367 38.5398C140.968 38.2273 141.173 38.2153 141.726 38.5037ZM145.8 40.6311C145.932 42.2537 145.451 43.7321 143.841 46.6287C143.324 47.5542 142.735 48.696 142.531 49.1768L142.146 50.0422L141.774 49.6576L141.413 49.273L142.17 48.1311C144.466 44.6576 145.632 41.6648 145.415 39.7898C145.379 39.3932 145.319 38.8884 145.283 38.696C145.259 38.4917 145.343 38.66 145.488 39.0566C145.62 39.4533 145.764 40.1624 145.8 40.6311ZM142.11 50.2946C142.11 50.3547 142.086 50.4148 142.062 50.4148C142.026 50.4148 141.966 50.3547 141.93 50.2946C141.894 50.2225 141.918 50.1744 141.978 50.1744C142.05 50.1744 142.11 50.2225 142.11 50.2946Z" fill="black"/>
<path d="M190.548 43.2618C190.259 43.5622 189.959 43.8026 189.887 43.8026C189.814 43.8026 189.55 43.6343 189.31 43.43C188.901 43.0935 188.829 43.0694 188.673 43.2257C188.504 43.3819 188.552 43.4661 189.033 43.8868L189.574 44.3675L189.225 44.7041C188.829 45.0887 188.769 45.3411 189.057 45.4493C189.177 45.4853 189.406 45.3531 189.694 45.0767C190.103 44.68 190.199 44.644 190.824 44.644C191.401 44.644 191.509 44.6079 191.509 44.4276C191.509 44.0791 191.317 43.8747 191.076 43.9709C190.932 44.031 191.004 43.8868 191.269 43.6223C191.605 43.2738 191.653 43.1536 191.557 42.9853C191.329 42.6368 191.1 42.6968 190.548 43.2618Z" fill="black"/>
<path d="M143.625 52.278C143.517 52.5544 144.875 53.1434 146.101 53.3597C146.509 53.4198 146.557 53.3958 146.63 53.1193C146.75 52.6145 146.618 52.4583 146.053 52.4583C145.764 52.4583 145.163 52.3741 144.694 52.278C143.673 52.0616 143.709 52.0616 143.625 52.278Z" fill="black"/>
<path d="M151.041 53.5032C150.44 53.5873 150.548 53.8637 151.245 54.008C151.581 54.0801 151.93 54.1402 152.026 54.1402C152.122 54.1402 152.603 54.2724 153.096 54.4286L153.997 54.7051L154.13 54.3685C154.214 54.1883 154.238 53.9839 154.202 53.9238C154.033 53.6474 151.942 53.3709 151.041 53.5032Z" fill="black"/>
<path d="M119.093 55.3881C117.303 55.7967 115.692 56.7462 114.37 58.1645C113.913 58.6453 113.384 59.3664 113.192 59.7631L112.843 60.4722L112.062 60.6164C110.896 60.8328 110.079 61.2775 109.117 62.239C108.529 62.84 108.12 63.3929 107.759 64.09C106.245 66.9866 106.016 71.9025 107.158 76.4578C107.471 77.7318 107.771 78.1044 108.673 78.3809C110.079 78.8015 113.156 78.5491 114.202 77.9361C114.574 77.7078 114.622 77.7078 114.983 77.9001C115.199 78.0083 115.704 78.1164 116.149 78.1285C116.882 78.1645 116.93 78.1765 116.966 78.465C117.014 78.8736 116.81 79.2222 116.389 79.4386C116.077 79.6068 115.992 79.6068 115.692 79.4506C115.512 79.3544 115.259 79.1741 115.139 79.0299C114.839 78.7054 114.706 78.7054 114.706 79.0539C114.706 79.6068 115.367 80.0996 116.089 80.0996C117.399 80.0996 118.096 78.7414 117.483 77.3833C117.074 76.4818 116.137 76.0491 116.053 76.7222C116.016 76.9145 116.113 77.0948 116.353 77.2991L116.69 77.5876L116.089 77.5275C114.49 77.3352 113.348 75.3761 114.117 74.1381C114.43 73.6212 114.682 73.489 115.319 73.489C115.68 73.489 115.992 73.5972 116.401 73.8616C117.182 74.3544 117.411 74.2943 117.423 73.6092C117.435 73.3087 117.495 72.4193 117.567 71.6261C117.651 70.8328 117.711 69.691 117.711 69.09C117.711 68.3568 117.759 67.9482 117.867 67.864C117.94 67.8039 118.853 67.4073 119.875 67.0107C122.315 66.0371 122.315 66.0371 122.447 65.5684C122.555 65.1958 122.447 64.1621 122.206 63.2967C122.146 63.1044 122.182 63.0323 122.315 63.0323C122.543 63.0323 122.699 63.2967 122.819 63.8736C123.036 64.9313 123.264 65.5563 123.444 65.5563C123.589 65.5563 123.613 65.4722 123.565 65.2078C123.432 64.5587 123.324 63.6333 123.384 63.6333C123.42 63.6333 123.541 63.8857 123.661 64.1982C124.021 65.1597 124.129 65.2318 125.127 65.1597C126.605 65.0515 129.67 64.078 130.079 63.5972C130.476 63.1044 129.31 60.2559 128.12 58.8015C126.894 57.3232 125.163 56.1693 123.3 55.5804C122.23 55.2438 120.139 55.1477 119.093 55.3881ZM123.3 56.602C125.067 57.191 126.377 58.1285 127.591 59.6549C128.324 60.5684 129.178 62.1669 129.322 62.864C129.382 63.1765 129.346 63.2486 129.069 63.3688C128.901 63.453 128.733 63.5131 128.697 63.5131C128.673 63.5131 128.456 63.0924 128.228 62.5876C127.182 60.3039 125.5 58.4289 123.697 57.5275C122.327 56.8304 121.413 56.6261 119.791 56.614C119.057 56.602 118.48 56.578 118.504 56.5539C118.529 56.5179 118.865 56.4217 119.25 56.3376C120.331 56.0972 122.146 56.2054 123.3 56.602Z" fill="black"/>
<path d="M158.301 56.495C158.265 56.5431 158.433 56.8196 158.697 57.108C158.998 57.4446 159.202 57.8292 159.262 58.1417C159.358 58.5984 159.394 58.6465 159.719 58.6465C160.056 58.6465 160.08 58.6224 160.044 58.2258C159.983 57.6609 159.611 57.084 159.082 56.7234C158.637 56.4229 158.433 56.3628 158.301 56.495Z" fill="black"/>
<path d="M175.74 57.4568C176.269 57.9015 176.606 58.4184 176.606 58.7669C176.606 58.9232 176.534 58.9472 176.221 58.8871C175.728 58.779 175.62 58.6828 175.452 58.19C175.38 57.9737 175.211 57.7573 175.067 57.6852C174.935 57.6251 174.791 57.4809 174.767 57.3607C174.683 57.0722 174.406 57.0842 173.901 57.4088C173.336 57.7814 173.168 58.214 173.409 58.6828C173.685 59.2116 174.142 59.5241 174.779 59.6203C175.091 59.6684 175.488 59.7765 175.668 59.8607C176.161 60.1131 176.678 60.077 176.894 59.7645C177.135 59.428 177.147 58.7068 176.918 58.178C176.714 57.6852 175.921 57.0241 175.536 57.0241C175.26 57.0241 175.272 57.0602 175.74 57.4568Z" fill="black"/>
<path d="M207.495 61.349C206.161 61.5774 204.911 62.2985 204.129 63.2841C203.649 63.8971 203.168 64.9908 203.168 65.4956C203.168 65.8442 203.156 65.8442 202.374 65.6158C200.247 64.9908 197.278 65.1711 195.211 66.0485C192.447 67.2264 190.295 69.5581 190.307 71.373C190.319 72.6351 191.293 73.6327 193.12 74.2577C193.324 74.3298 193.324 74.3418 193.132 74.6543C192.387 75.7841 192.459 78.1279 193.252 78.5605C193.384 78.6447 193.3 78.7889 192.831 79.2336C192.314 79.7384 192.23 79.8827 192.23 80.2913C192.23 81.1807 193.36 82.1182 194.502 82.1663C195.403 82.2024 195.367 81.95 194.382 81.5053C193.889 81.2769 193.36 80.9524 193.204 80.7721C192.687 80.2192 192.735 80.1711 196.377 77.6351C197.014 77.1904 197.146 77.1423 197.483 77.2384L197.855 77.3346L197.795 78.2721C197.747 79.0894 197.771 79.2577 198.024 79.7384C198.42 80.4596 199.225 80.9644 200.103 81.0365C200.644 81.0846 200.884 81.0365 201.425 80.7721C202.11 80.4355 202.939 79.5942 203.264 78.9211C203.372 78.7168 203.516 78.5365 203.588 78.5365C203.721 78.5365 206.04 79.5822 206.161 79.6904C206.185 79.7144 206.124 79.8346 206.016 79.9548C205.536 80.4836 205.98 80.7 206.689 80.2913C207.675 79.7144 208.528 79.8105 208.709 80.4956C208.889 81.1928 208.204 82.611 207.411 83.1639C206.906 83.5125 206.076 83.5846 205.283 83.3322C204.874 83.212 204.514 83.1519 204.454 83.212C204.394 83.2721 204.406 83.3562 204.466 83.3923C204.538 83.4404 204.298 83.9932 203.853 84.7625C202.567 87.0221 200.824 88.5005 199.009 88.873C198.156 89.0533 197.519 88.9572 196.581 88.5125C194.887 87.7192 194.081 86.325 193.432 83.0798C193.3 82.4307 193.144 82.1543 192.987 82.3105C192.951 82.3466 192.927 82.8514 192.927 83.4283C192.951 85.9524 194.394 88.3803 196.413 89.3298C197.014 89.6182 197.242 89.6543 198.3 89.6543C199.249 89.6423 199.646 89.5822 200.175 89.3779C201.052 89.0293 201.858 88.4884 202.639 87.7312C203.24 87.1423 203.276 87.1182 203.336 87.3827C203.444 87.7913 204.189 87.9596 205.475 87.8755C206.665 87.8033 207.182 87.611 207.23 87.2264C207.254 87.0942 206.99 86.373 206.665 85.6399C206.329 84.9067 206.052 84.2577 206.052 84.1855C206.052 84.1255 206.257 84.0654 206.497 84.0654C207.11 84.0654 207.879 83.6687 208.408 83.0678C208.793 82.6471 210.283 81.5413 210.463 81.5413C210.584 81.5413 209.249 82.9355 208.721 83.3803C208.204 83.813 208.192 83.837 208.528 83.7529C210.115 83.3923 212.182 81.0005 212.987 78.5966C213.288 77.7312 213.312 77.4668 213.312 75.8923C213.324 73.8851 213.144 73.212 212.278 71.8538C212.014 71.4211 211.81 71.0605 211.834 71.0365C211.858 71.0245 212.134 70.8322 212.435 70.6279C213.096 70.1831 213.528 69.6423 213.961 68.7048C214.249 68.0918 214.286 67.8755 214.286 66.7456C214.286 65.5317 214.274 65.4476 213.841 64.5822C213.348 63.5966 212.411 62.599 211.449 62.0341C210.8 61.6495 209.213 61.2288 208.528 61.2408C208.252 61.2529 207.795 61.3009 207.495 61.349ZM209.117 62.1543L209.682 62.2264L208.829 62.4428C207.747 62.7192 207.014 63.1519 206.137 64.0053C205.475 64.6783 204.73 65.9404 204.73 66.4211C204.73 66.6976 204.67 66.6976 204.165 66.3851C203.685 66.0846 203.685 65.9524 204.237 64.7625C204.874 63.3923 205.896 62.575 207.411 62.2505C208.312 62.0581 208.396 62.0461 209.117 62.1543ZM197.735 66.3851C196.233 66.8658 194.177 68.212 193.288 69.3057C192.218 70.6158 191.713 71.8658 191.978 72.563C192.086 72.8514 192.086 72.8755 191.894 72.7553C191.533 72.5269 191.245 72.0461 191.185 71.5654C190.944 69.8346 194.165 66.986 197.062 66.349C198.156 66.1086 198.54 66.1327 197.735 66.3851ZM203.528 73.6687C203.528 74.2697 203.504 74.3298 203.324 74.2216C203.204 74.1615 202.795 74.0533 202.411 73.9572L201.713 73.813L202.29 73.5605C202.603 73.4163 202.975 73.236 203.108 73.1639C203.492 72.9235 203.528 72.9716 203.528 73.6687ZM200.211 74.5101C200.259 74.6303 200.451 74.6904 200.848 74.6904C201.497 74.6904 202.795 74.9788 203.24 75.2072C203.456 75.3154 203.661 75.6639 203.949 76.373C204.177 76.9259 204.514 77.611 204.706 77.8875L205.067 78.3923L204.394 78.0317C203.961 77.8154 203.673 77.563 203.576 77.3586C203.42 76.962 202.687 76.5533 201.076 75.9524C199.85 75.5077 199.562 75.4836 199.562 75.8682C199.562 76.2168 199.923 76.4692 200.992 76.8538C202.29 77.3346 202.687 77.5389 202.687 77.7673C202.687 78.3322 201.786 79.5822 201.137 79.9067C200.632 80.1711 199.935 80.2432 199.49 80.099C199.262 80.0269 199.081 79.9428 199.081 79.9307C199.081 79.9067 199.165 79.7144 199.274 79.498C199.562 78.9211 199.382 78.4764 198.865 78.4764C198.649 78.4764 198.48 78.4524 198.48 78.4163C198.48 78.3803 198.564 77.9716 198.673 77.5149C199.021 75.9644 199.045 75.7721 198.937 75.7721C198.781 75.7721 198.264 76.361 198.168 76.6375C198.12 76.7937 198.036 76.8418 197.903 76.7937C197.783 76.7456 197.603 76.6735 197.495 76.6495C197.23 76.5774 197.218 76.373 197.459 76.0605C197.759 75.6639 197.675 75.3274 197.194 74.9908L196.737 74.6904L197.218 74.6783C197.483 74.6783 198.132 74.6062 198.661 74.5221C199.983 74.3057 200.127 74.3057 200.211 74.5101ZM195.175 74.9428C195.932 75.1351 196.689 75.4235 196.894 75.5918C196.906 75.6038 196.822 75.8442 196.689 76.1206C196.485 76.5894 195.836 77.1783 195.067 77.599C194.874 77.7072 194.85 77.6952 194.911 77.5149C195.031 77.2144 194.79 76.8538 194.442 76.8538C194.129 76.8538 193.889 77.2505 193.889 77.7793C193.877 78.1639 193.709 78.1158 193.48 77.6711C193.336 77.3947 193.3 77.0942 193.348 76.5413C193.408 75.748 193.829 74.6904 194.081 74.6904C194.165 74.6904 194.658 74.7985 195.175 74.9428ZM206.185 85.9644C206.377 86.4572 206.533 86.8899 206.533 86.95C206.533 87.0702 205.86 87.2024 205.632 87.1182C205.307 86.986 205.199 86.2408 205.391 85.3274C205.487 84.8706 205.572 84.462 205.584 84.4259C205.584 84.3899 205.644 84.5221 205.716 84.7264C205.788 84.9187 205.992 85.4836 206.185 85.9644Z" fill="black"/>
<path d="M158.697 62.492C158.553 62.7204 158.168 63.1411 157.831 63.4416L157.23 63.9704L157.423 64.343C157.651 64.7757 157.807 64.7396 158.348 64.1507C158.841 63.6219 159.045 63.2372 159.166 62.6363C159.298 61.9392 159.081 61.867 158.697 62.492Z" fill="black"/>
<path d="M125.789 65.989C125.512 66.0971 125.092 66.3616 124.851 66.5779C124.491 66.9265 124.443 67.0226 124.563 67.2269C124.743 67.5635 124.935 67.5394 125.609 67.1188C126.029 66.8544 126.318 66.7582 126.738 66.7582C127.219 66.7582 127.327 66.7101 127.387 66.5058C127.568 65.9409 126.69 65.6644 125.789 65.989Z" fill="black"/>
<path d="M122.014 67.4453C121.233 67.7097 120.067 68.6592 120.019 69.0679C119.995 69.2962 120.055 69.4284 120.223 69.5126C120.427 69.6328 120.56 69.5727 121.064 69.1159C121.834 68.4309 122.062 68.2986 122.867 68.1424C123.6 67.9861 123.865 67.7337 123.613 67.4333C123.408 67.1929 122.759 67.1929 122.014 67.4453Z" fill="black"/>
<path d="M128.06 68.7195C127.963 68.8397 127.963 69.056 128.072 69.5488C128.144 69.9094 128.168 70.294 128.132 70.4142C128.06 70.5945 127.976 70.5705 127.495 70.1979C126.858 69.7051 126.545 69.657 126.365 70.0056C126.209 70.282 126.269 70.3421 127.663 71.4359C128.841 72.3493 130.055 73.6234 130.163 74.044C130.247 74.3926 130.031 74.6089 129.37 74.8133C127.819 75.306 127.471 75.5945 128.516 75.5104L129.105 75.4743L129.165 76.4719C129.286 78.383 128.925 79.9815 128.12 81.1474C127.819 81.5801 127.519 81.8325 126.906 82.145C126.113 82.5536 126.052 82.5657 124.754 82.5536C123.24 82.5536 122.591 82.3613 121.341 81.556C120.379 80.931 119.754 80.3541 118.757 79.1642C118.3 78.6113 117.891 78.1907 117.867 78.2267C117.831 78.2628 117.976 78.6594 118.192 79.1041C118.685 80.1137 120.283 81.7484 121.437 82.4214C122.699 83.1546 123.625 83.383 125.139 83.3229C126.269 83.2868 126.521 83.2387 127.206 82.9142C128.528 82.2892 129.25 81.3277 129.742 79.5609C130.019 78.5392 130.103 76.8084 129.935 75.7387C129.851 75.294 129.875 75.1738 130.007 75.1738C130.103 75.1738 130.319 75.0416 130.5 74.8734C131.173 74.2484 130.656 72.9142 129.238 71.6402C128.721 71.1714 128.649 71.0633 128.757 70.8589C129.021 70.3782 128.841 68.8878 128.504 68.6594C128.288 68.5272 128.216 68.5392 128.06 68.7195Z" fill="black"/>
<path d="M152.038 68.9358C151.461 69.3204 151.052 69.7891 150.716 70.4502L150.536 70.8228L151.028 71.0151C151.293 71.1233 151.521 71.2074 151.545 71.1834C151.557 71.1593 151.75 70.8228 151.966 70.4262C152.194 70.0295 152.507 69.5247 152.663 69.3204C152.927 68.9598 152.952 68.5632 152.711 68.5632C152.651 68.5632 152.351 68.7314 152.038 68.9358Z" fill="black"/>
<path d="M124.995 70.1859C124.863 70.3301 124.851 70.4623 124.935 70.7508C125.079 71.2797 125.079 72.133 124.923 72.4215C124.827 72.5897 124.67 72.6498 124.346 72.6498C123.841 72.6498 123.36 72.3494 122.831 71.7244C122.555 71.3998 122.459 71.3518 122.267 71.4479C121.918 71.6402 121.99 71.9768 122.531 72.5297C123.793 73.8277 125.331 73.7676 125.74 72.4095C125.872 71.9768 125.872 71.7123 125.764 71.0513C125.608 70.1619 125.331 69.8494 124.995 70.1859Z" fill="black"/>
<path d="M161.762 74.0181C159.887 74.6071 158.336 76.3739 157.843 78.4773C157.507 79.9316 157.711 81.8547 158.384 83.3571C159.274 85.3883 161.918 88.3811 163.444 89.1143C163.889 89.3186 164.274 89.4628 164.31 89.4388C164.346 89.4027 164.19 89.1503 163.985 88.8859C163.745 88.5974 163.625 88.333 163.661 88.2128C163.709 88.1167 164.286 87.095 164.971 85.9532C166.569 83.2489 167.05 82.2633 167.278 81.2176C167.663 79.4869 167.435 78.3691 166.521 77.4556C165.656 76.5902 164.057 75.9051 162.891 75.8931C162.17 75.8931 160.968 76.3378 160.283 76.8547L159.634 77.3474L159.863 76.9628C160.235 76.3258 161.113 75.4123 161.629 75.1359C162.05 74.9075 162.315 74.8715 163.504 74.8715C165.127 74.8715 165.644 75.0518 166.581 75.9893C168.084 77.4797 168.601 79.2705 168.12 81.3018C167.903 82.2513 167.038 84.0902 166.089 85.6287C164.839 87.672 164.346 88.5734 164.346 88.8378C164.346 89.0782 164.382 89.0902 164.706 88.97C165.512 88.6936 168.012 84.4989 168.793 82.1431C169.117 81.1335 169.238 79.5109 169.033 78.6455C168.54 76.5061 167.014 74.7513 165.091 74.1023C164.238 73.8138 162.543 73.7657 161.762 74.0181ZM163.961 77.6479C163.985 77.7801 164.153 77.9845 164.334 78.0926C165.283 78.6455 165.788 79.7032 165.536 80.6047C165.139 82.1071 163.757 82.72 162.483 81.9748C160.728 80.9412 160.98 78.5854 162.964 77.5998C163.565 77.2994 163.913 77.3114 163.961 77.6479Z" fill="black"/>
<path d="M149.838 74.8863C149.718 75.1988 149.887 76.3286 150.139 76.8814C150.367 77.3983 150.872 77.9752 151.269 78.1915C151.437 78.2877 151.521 78.2276 151.701 77.867L151.93 77.4223L151.401 76.9415C150.836 76.4247 150.403 75.7156 150.403 75.3069C150.403 74.754 150.007 74.4536 149.838 74.8863Z" fill="black"/>
<path d="M123.805 77.6626C123.481 77.9871 123.961 78.7684 124.719 79.153C125.608 79.6097 126.846 79.2852 126.846 78.6001C126.846 78.2155 126.533 78.1434 126.125 78.4318C125.872 78.6241 125.692 78.6722 125.44 78.6121C124.947 78.4799 124.562 78.2035 124.442 77.8669C124.334 77.5905 123.985 77.4823 123.805 77.6626Z" fill="black"/>
<path d="M118.577 83.2514C118.817 83.9364 120.392 86.9653 121.125 88.1312C124.959 94.285 130.873 99.6215 137.964 103.311C143.108 105.992 148.565 107.626 154.971 108.432C157.471 108.744 164.394 108.744 166.81 108.432C177.603 107.037 187.147 102.735 193.781 96.2802C195.091 94.9941 196.305 93.5158 196.149 93.3595C196.017 93.2273 195.055 93.9605 193.373 95.4989C192.447 96.3403 191.257 97.3739 190.728 97.8066C184.839 102.506 177.676 105.667 169.995 106.965C167.411 107.398 165.777 107.518 162.88 107.482L160.272 107.458L159.695 106.376C158.481 104.081 157.832 103.708 154.803 103.552C151.978 103.408 151.75 103.251 150.68 100.835C150.007 99.285 149.43 98.6239 148.265 98.047C147.219 97.5182 146.377 97.3739 144.815 97.434C143.252 97.5062 142.64 97.7105 139.587 99.1768C138.493 99.7057 137.243 100.259 136.81 100.403L136.005 100.667L134.647 100.018C132.652 99.0807 131.269 98.0951 128.661 95.7994C127.363 94.6576 124.238 91.3523 123.144 89.9821C122.339 88.9605 120.536 86.2562 119.394 84.3331C118.914 83.5278 118.505 82.8667 118.481 82.8667C118.457 82.8667 118.505 83.047 118.577 83.2514ZM146.57 98.2994C147.411 98.4797 148.313 98.8884 148.877 99.3571C149.082 99.5254 149.575 100.343 150.079 101.376C151.353 103.936 151.618 104.093 154.815 104.261C156.582 104.345 156.834 104.381 157.435 104.67C158.12 105.006 158.204 105.114 159.346 106.869L159.995 107.867H159.07C157.76 107.867 153.781 107.446 151.774 107.098C147.159 106.28 142.64 104.766 138.337 102.59L136.077 101.448L136.774 101.256C137.664 101.004 138.541 100.631 140.368 99.7177C142.255 98.7682 142.952 98.5038 143.974 98.3114C145.091 98.1071 145.62 98.1071 146.57 98.2994Z" fill="black"/>
<path d="M198.264 83.8159C197.772 84.4289 197.315 84.537 196.678 84.2005C196.125 83.912 195.836 83.9721 195.836 84.3808C195.836 85.0418 197.507 85.4024 198.3 84.9096C198.973 84.501 199.322 83.4673 198.829 83.3712C198.733 83.3591 198.481 83.5514 198.264 83.8159Z" fill="black"/>
<path d="M160.5 100.557C160.272 100.617 159.815 100.653 159.503 100.617C159.19 100.593 158.902 100.617 158.866 100.665C158.757 100.846 159.286 101.014 160.007 101.014C160.416 101.014 160.741 101.062 160.741 101.122C160.741 101.266 159.779 101.975 159.575 101.975C159.491 101.975 159.334 101.843 159.226 101.663C158.974 101.302 158.529 101.314 158.481 101.687C158.421 102.084 159.07 102.648 159.791 102.817C161.762 103.297 163.096 102.011 161.942 100.773C161.582 100.389 161.257 100.341 160.5 100.557Z" fill="black"/>
</g>
<defs>
<clipPath id="clip0_990_2742">
<rect width="322" height="110" fill="white"/>
</clipPath>
</defs>
</svg>
