<svg width="322" height="110" viewBox="0 0 322 110" fill="none" xmlns="http://www.w3.org/2000/svg">
<g clip-path="url(#clip0_990_3027)">
<rect width="322" height="110" fill="white"/>
<path d="M163.544 -0.616617C163.502 -0.490083 163.46 -0.237013 163.46 -0.0401817C163.46 0.297244 163.446 0.311303 163.221 0.114472C162.687 -0.335429 162.588 -0.335429 162.813 0.114472C163.108 0.690907 163.108 0.704967 162.659 0.704967C162.434 0.704967 162.166 0.775264 162.054 0.845561C161.899 0.943977 161.998 1.00021 162.434 1.07051L163.024 1.15487L162.813 1.57665C162.532 2.11091 162.616 2.19526 163.08 1.82972L163.446 1.54853L163.488 2.06873C163.544 2.72952 163.797 2.7717 163.854 2.13903C163.91 1.63289 163.924 1.61883 164.332 1.84378C164.683 2.04061 164.796 1.92814 164.599 1.57665C164.458 1.32358 164.486 1.2814 164.824 1.23922C165.4 1.16893 165.386 0.87368 164.796 0.761205C164.332 0.676848 164.304 0.648729 164.514 0.437838C164.739 0.184769 164.81 -0.279192 164.613 -0.279192C164.557 -0.279192 164.36 -0.180776 164.191 -0.0542411C163.896 0.15665 163.882 0.142591 163.882 -0.265132C163.882 -0.743152 163.671 -0.954043 163.544 -0.616617Z" fill="black"/>
<path d="M100.15 5.43094C100.094 5.48717 100.052 5.65589 100.052 5.79648C100.052 6.09173 99.8972 6.11985 99.6582 5.88084C99.4473 5.66995 99.4333 5.83866 99.6301 6.2042C99.7566 6.42915 99.7285 6.47133 99.4333 6.47133C98.9834 6.47133 98.8287 6.7244 99.2364 6.78064C99.4754 6.80876 99.5457 6.90717 99.5317 7.14618C99.4895 7.48361 99.6301 7.53985 99.8832 7.28678C100.01 7.16024 100.052 7.20242 100.052 7.49767C100.052 7.94757 100.277 8.00381 100.403 7.59608C100.46 7.42737 100.6 7.32896 100.727 7.34302C100.881 7.37113 100.952 7.30084 100.924 7.16024C100.909 7.01965 101.022 6.89311 101.205 6.83688C101.528 6.73846 101.514 6.7244 101.12 6.55569C100.867 6.44321 100.783 6.33074 100.881 6.2745C101.163 6.09173 101.064 5.74024 100.755 5.83866C100.544 5.90896 100.446 5.85272 100.361 5.62777C100.305 5.47311 100.207 5.3747 100.15 5.43094Z" fill="black"/>
<path d="M109.838 10.717C109.725 10.8997 109.43 11.5465 109.191 12.1651C108.952 12.7837 107.94 15.0894 106.942 17.2968C102.921 26.2245 102.33 27.7148 102.499 28.6005C102.555 28.8817 102.654 29.0786 102.738 29.0364C102.808 28.9801 102.864 29.0083 102.864 29.0926C102.864 29.1629 102.907 29.3316 102.963 29.4722C103.033 29.6691 102.991 29.6972 102.668 29.6128C102.161 29.4863 102.302 29.7112 103.005 30.1611C103.708 30.597 105.015 31.0188 106.548 31.2859C107.87 31.5108 108.151 31.4687 108.502 31.0328C108.699 30.7797 108.783 30.7657 109.135 30.9063C109.36 30.9906 110.738 31.3843 112.186 31.778C113.648 32.1576 117.444 33.2823 120.621 34.2524C123.813 35.2225 127.623 36.3613 129.085 36.7831C130.561 37.2049 132.797 37.8657 134.076 38.2594C137.38 39.2435 140.417 39.9324 141.809 40.0027L143.004 40.073L142.371 39.8621C142.02 39.7496 140.375 39.2716 138.716 38.8077C135.848 37.9922 133.458 37.2752 124.516 34.4914C117.388 32.2841 114.196 31.3281 111.876 30.7095C110.611 30.372 109.543 30.0627 109.5 30.0205C109.458 29.9784 110.133 28.5443 110.991 26.815C111.848 25.0997 113.311 22.1192 114.238 20.179C115.166 18.2528 116.08 16.4813 116.263 16.2423L116.615 15.8205L117.655 16.3407C121.437 18.2669 129.521 22.9627 131.574 24.4249C132.811 25.3106 133.134 25.8871 133.289 27.4336C133.444 29.0223 132.698 31.3281 131.335 33.4792C130.547 34.7164 130.435 35.0116 130.716 35.0116C130.983 35.0116 131.756 34.0978 132.459 32.9871C133.134 31.9045 134.076 29.4582 134.357 28.1085C134.554 27.1243 134.878 26.7869 135.51 26.9134C136.129 27.0259 137.816 27.8976 140.895 29.6691C142.287 30.4704 143.932 31.4124 144.536 31.7639C145.183 32.1295 145.746 32.5794 145.9 32.8184C146.041 33.0574 146.139 33.2542 146.125 33.2823C146.097 33.2964 145.76 33.1417 145.352 32.9449C144.761 32.6496 144.579 32.6215 144.41 32.7621C143.974 33.1277 144.269 33.8306 145.605 35.574C146.041 36.1504 146.519 36.8394 146.659 37.1065L146.898 37.5845L146.364 37.4861C146.055 37.4439 145.338 37.3596 144.747 37.3033C143.735 37.233 143.651 37.2471 143.51 37.5283C143.243 38.0203 143.566 38.3718 144.846 38.9623C145.507 39.2716 146.013 39.5669 145.971 39.6372C145.928 39.6934 145.507 39.7918 145.043 39.834C144.087 39.9184 143.777 40.1011 143.777 40.5651C143.777 40.9869 144.438 41.3946 145.9 41.8867C147.039 42.2522 147.039 42.2522 147.306 42.9411C147.7 43.9815 148.642 44.8532 149.401 44.8532C149.823 44.8532 149.753 44.6986 148.937 43.9253C148.347 43.377 148.136 43.0396 147.911 42.3928L147.644 41.5493L146.449 41.1275C145.591 40.8322 145.352 40.6916 145.605 40.6635C147.531 40.4245 147.573 39.4966 145.689 38.5546C145.169 38.3015 144.761 38.0485 144.804 38.0203C144.832 37.9782 145.45 38.0906 146.181 38.2453C147.7 38.5827 148.136 38.5405 148.136 38.0485C148.136 37.7251 147.376 36.5019 146.21 34.9413C145.633 34.1681 145.76 34.2384 147.222 35.5037C147.77 35.9677 148.417 36.5019 148.684 36.6847L149.148 37.0081L149.05 36.5441C148.923 35.9677 148.67 35.4615 147.728 33.9009C147.334 33.2542 147.011 32.6496 147.011 32.5653C147.011 32.3544 147.911 33.2542 148.853 34.4211C149.823 35.6302 150.582 37.1487 150.793 38.3015C150.877 38.7655 150.948 39.8762 150.948 40.776C150.948 41.9007 151.018 42.674 151.201 43.3067C151.341 43.8128 151.412 44.3752 151.369 44.558C151.313 44.7829 150.891 45.1485 149.963 45.7249C147.573 47.2293 145.928 48.8039 145.675 49.8021C145.493 50.5051 145.971 50.252 147.348 48.9445C149.289 47.1027 151.707 45.5702 152.424 45.753C152.761 45.8374 154.027 46.8918 156.782 49.3944C159.721 52.0657 161.605 53.078 164.684 53.6966C165.443 53.8512 166.694 54.0199 167.467 54.0621C169.689 54.2168 173.85 53.7809 175.102 53.2607C175.481 53.1061 175.467 53.1061 174.849 52.9796C174.132 52.839 172.866 52.8952 170.842 53.1483C168.381 53.4435 165.134 53.1201 162.996 52.3469C160.747 51.5455 159.946 50.9972 156.993 48.2978C155.911 47.3136 154.631 46.2029 154.153 45.8233C152.058 44.2065 151.861 43.7425 151.749 40.4245C151.679 38.6952 151.608 38.1047 151.313 37.1346C151.116 36.4879 150.976 35.9255 151.018 35.8833C151.088 35.813 152.325 36.7128 152.663 37.0784C152.874 37.3033 152.874 37.4298 152.691 38.3859C152.494 39.3841 152.466 41.6477 152.649 41.1978C152.874 40.6635 153.675 37.4298 153.661 37.1346C153.633 36.6566 152.747 35.813 151.229 34.8429C150.484 34.3649 149.317 33.4229 148.6 32.7199L147.292 31.4546L146.631 31.539C145.872 31.6233 147.194 32.3403 134.709 25.0013C124.263 18.8433 120.86 16.9172 117.88 15.455C116.404 14.7239 116.39 14.7098 116.46 14.274C116.516 13.8944 116.46 13.7679 115.968 13.3461C114.548 12.151 111.272 10.4077 110.428 10.4077C110.175 10.4077 109.964 10.5201 109.838 10.717ZM110.935 11.5746C111.174 11.7574 111.159 11.8136 110.611 12.5306C110.302 12.9524 109.81 13.7116 109.529 14.2318C109.261 14.7661 109.008 15.1879 108.98 15.1879C108.952 15.1879 109.135 14.7239 109.388 14.1615C109.641 13.6132 109.993 12.7556 110.175 12.2635C110.344 11.7855 110.541 11.3918 110.583 11.3918C110.639 11.3918 110.794 11.4762 110.935 11.5746ZM108.038 30.2595C107.827 30.5829 107.363 30.7797 107.363 30.5548C107.363 30.4704 107.996 30.0065 108.193 29.9643C108.221 29.9502 108.151 30.0908 108.038 30.2595Z" fill="black"/>
<path d="M164.656 22.3028C162.35 22.6824 159.932 23.8774 158.61 25.3256C156.726 27.3782 155.756 29.8667 155.911 32.2709C156.009 33.705 156.206 34.3517 156.712 34.9141C157.204 35.4624 157.373 35.3359 157.148 34.6048C156.923 33.8315 156.726 32.7208 156.838 32.8614C156.895 32.9176 157.232 33.3957 157.584 33.9018C157.949 34.4079 158.469 34.9703 158.751 35.1671C159.243 35.5046 159.257 35.5046 159.144 36.2075C159.088 36.5871 159.032 37.726 159.032 38.7382C159.032 40.2285 159.088 40.7487 159.341 41.5501C159.707 42.717 160.48 44.0246 161.394 45.065L162.055 45.8242L161.169 46.499C159.636 47.6519 158.793 48.8469 159.186 49.2547C159.243 49.3109 159.608 49.0157 160.002 48.6079C160.396 48.1862 161.07 47.6238 161.506 47.3285L162.294 46.8083L163.109 47.3145C165.176 48.5517 167.327 48.8751 169.323 48.2283C169.618 48.1299 170.532 47.7081 171.362 47.3004C173.232 46.3584 173.864 46.3022 174.933 46.977C176.086 47.7081 179.432 51.2089 181.386 53.7115C183.945 57.0155 184.268 57.3248 184.479 56.664C184.592 56.3266 184.536 56.2563 181.935 52.9945C180.824 51.6026 179.91 50.4497 179.91 50.4216C179.91 50.3935 180.669 50.3372 181.611 50.2951C184.662 50.1264 187.53 49.564 188.458 48.9594C188.655 48.8329 188.922 48.5376 189.063 48.2986L189.33 47.8768V48.4673C189.33 49.4234 189.147 49.7186 188.388 49.9717C187.305 50.3232 185.309 50.6184 184.001 50.6184C182.427 50.6184 180.88 50.7731 180.964 50.9137C181.119 51.1527 182.694 51.3495 184.381 51.3355C187.347 51.3214 189.808 50.6325 190.047 49.7749C190.483 48.2283 189.737 43.2654 188.36 38.457C185.998 30.2182 183.017 25.8458 179.066 24.8194C177.393 24.3836 175.2 24.8054 174.188 25.7614L173.864 26.0566L173.007 25.1147C171.376 23.3432 169.155 22.359 166.554 22.2887C165.738 22.2606 164.895 22.2747 164.656 22.3028ZM170.293 28.9388C171.84 29.9511 172.655 31.1743 173.639 34.0002C174.427 36.2778 174.638 36.559 175.552 36.559C175.889 36.559 176.114 36.4184 176.564 35.9263C177.281 35.139 177.871 35.0687 178.504 35.6873C179.769 36.9667 179.109 39.0194 177.239 39.5677C176.226 39.877 176.072 39.863 176.184 39.4974C176.311 39.1178 176.128 37.6135 175.973 37.7681C175.917 37.8384 175.706 38.4992 175.495 39.2303C174.216 43.7996 171.502 46.5412 168.016 46.7802C165.963 46.9208 164.149 46.3303 162.589 44.9947C161.675 44.2073 160.578 42.5062 160.199 41.297C159.763 39.9333 159.777 37.3182 160.213 35.6452C160.649 33.958 161.647 32.046 162.533 31.1743C163.77 29.9652 165.597 29.0232 167.453 28.6155C168.93 28.2921 169.365 28.3343 170.293 28.9388Z" fill="black"/>
<path d="M163.277 31.0441C162.701 31.6768 163.123 32.1126 164.163 31.972C164.796 31.8877 164.922 31.9158 165.217 32.197C165.639 32.5907 165.681 33.4342 165.358 34.5309C165.049 35.5712 164.022 36.4429 163.474 36.1336C163.052 35.9227 162.982 35.4728 163.249 34.7699C163.418 34.334 163.446 34.095 163.348 33.9966C162.898 33.5467 162.265 34.6714 162.377 35.6837C162.448 36.3867 162.771 36.7804 163.348 36.9069L163.769 37.0053L163.038 37.6802C162.63 38.0598 162.349 38.4253 162.391 38.5097C162.715 39.0299 165.077 36.9631 165.752 35.5712C167.003 33.0124 166.202 30.7911 164.05 30.7911C163.699 30.7911 163.418 30.8895 163.277 31.0441Z" fill="black"/>
<path d="M168.662 32.5198C168.24 32.6604 168.17 32.7588 168.17 33.1103C168.17 33.504 168.198 33.5321 168.662 33.504C168.929 33.4899 169.393 33.4337 169.674 33.3774C170.138 33.3071 170.237 33.3353 170.616 33.743C170.883 34.0382 171.108 34.1788 171.249 34.1226C171.825 33.8976 171.193 32.9838 170.18 32.562C169.562 32.2949 169.323 32.2949 168.662 32.5198Z" fill="black"/>
<path d="M166.117 35.8119C165.498 37.2319 166.103 38.4973 167.298 38.3426C168.282 38.2161 169.758 36.8804 169.547 36.3321C169.421 35.9806 169.055 36.1212 168.549 36.7117C168.268 37.0351 167.818 37.3866 167.551 37.4991C167.087 37.6959 167.045 37.6959 166.806 37.4006C166.496 37.021 166.496 36.8383 166.763 36.1775C167.059 35.4745 167.031 35.1511 166.693 35.1511C166.482 35.1511 166.328 35.3339 166.117 35.8119Z" fill="black"/>
<path d="M166.357 41.5762C165.808 42.0823 165.85 42.0823 164.655 41.8714C164.473 41.8433 164.36 41.9277 164.332 42.0964C164.135 43.0102 166.385 42.94 167.031 42.012C167.608 41.1966 167.116 40.8873 166.357 41.5762Z" fill="black"/>
<path d="M127.96 41.125C127.313 42.6012 126.357 45.2163 123.419 53.6379C120.396 62.2844 120.044 63.3107 115.025 78.1715C113.422 82.9236 110.442 91.7107 108.389 97.7001C103.932 110.789 103.792 111.267 104.41 110.93C104.832 110.705 105.535 109.088 106.716 105.658C112.157 89.7987 114.589 82.6143 117.696 73.321C119.679 67.3599 121.844 60.9769 122.505 59.121C125.007 52.0913 127.763 44.0353 128.03 43.023C128.339 41.828 128.536 40.3517 128.396 40.3517C128.353 40.3517 128.157 40.7032 127.96 41.125Z" fill="black"/>
<path d="M131.687 41.3802C131.687 41.8301 132.6 44.9091 134.428 50.5469C135.398 53.5557 137.029 58.6873 138.027 61.9351C139.04 65.1828 140.333 69.3303 140.895 71.144C143.665 80.0014 147.644 93.7093 150.526 104.324C152.255 110.693 152.452 111.213 152.691 110.342C152.972 109.245 152.635 107.825 148.614 93.639C145.788 83.685 143.018 74.4479 140.614 66.9965C139.968 64.986 138.871 61.4992 138.168 59.2638C136.776 54.7929 134.611 48.2974 133.599 45.584C132.825 43.5172 131.687 41.0287 131.687 41.3802Z" fill="black"/>
<path d="M130.238 42.8846C129.915 44.0796 129.83 48.7895 129.9 61.7945C129.985 78.5814 130.393 91.8957 131.208 104.324C131.503 108.922 131.714 110.131 132.08 109.428C132.389 108.851 132.403 107.614 132.122 102.989C131.278 89.1541 130.814 72.6765 130.786 56.0301C130.772 45.5418 130.744 43.8406 130.547 43.2361C130.35 42.6034 130.322 42.5753 130.238 42.8846Z" fill="black"/>
<path d="M118.019 43.671C117.949 43.7273 117.907 43.9522 117.907 44.1772C117.907 44.6271 117.823 44.6693 117.457 44.3318C117.106 44.0085 116.993 44.1912 117.274 44.6271L117.513 44.9786L116.937 45.077C116.304 45.1754 116.29 45.4144 116.937 45.4144C117.373 45.4144 117.429 45.5409 117.19 46.0049C116.993 46.3845 117.148 46.497 117.471 46.2017C117.724 45.9768 117.738 45.9908 117.823 46.4689C117.879 46.736 117.977 46.9609 118.033 46.9609C118.188 46.9609 118.329 46.6095 118.329 46.2158C118.329 45.9908 118.371 45.9627 118.497 46.0893C118.807 46.3986 119.074 46.2861 118.975 45.9065C118.891 45.5972 118.933 45.555 119.243 45.555C119.721 45.555 119.692 45.2879 119.172 45.1192C118.779 44.9786 118.765 44.9645 118.989 44.6271C119.257 44.2053 119.144 44.0506 118.694 44.2615C118.399 44.3881 118.357 44.374 118.244 43.9803C118.174 43.7554 118.076 43.6148 118.019 43.671Z" fill="black"/>
<path d="M145.984 51.1217C145.535 51.5716 146.575 53.1603 148.614 55.1849C151.046 57.6031 154.195 59.8104 156.852 60.9633C159.721 62.2146 163.615 63.4518 165.822 63.8314C167.734 64.1688 168.733 64.1829 169.267 63.9017C169.492 63.7892 169.928 63.6205 170.237 63.5502C170.546 63.4659 170.771 63.3534 170.729 63.3253C170.687 63.2831 169.661 63.1565 168.423 63.0441C162.631 62.4958 157.654 60.8789 153.816 58.2639C151.13 56.4502 148.951 54.4538 147.264 52.2746C146.378 51.1358 146.167 50.9389 145.984 51.1217Z" fill="black"/>
<path d="M185.885 58.3205C183.481 59.15 179.868 62.1446 177.393 65.3361C176.901 65.9829 176.395 66.5312 176.268 66.5593C175.833 66.6858 173.499 67.0514 172.486 67.1498C171.685 67.2201 171.263 67.192 170.617 66.9951C170.026 66.8124 169.703 66.7842 169.478 66.8827C169.211 66.9951 169.267 67.0514 170.11 67.3888C170.757 67.6559 171.305 67.7684 171.868 67.7684C172.964 67.7684 175.27 67.445 177.351 66.9951C178.307 66.7983 179.291 66.6437 179.53 66.6718C179.924 66.714 179.825 66.7702 178.855 67.1076C176.831 67.8106 176.859 67.8949 179.024 67.9512C181.26 68.0074 181.723 68.2605 179.825 68.387C176.971 68.5839 176.564 68.6682 176.718 69.09C176.789 69.2728 177.098 69.3149 178.673 69.329C180.5 69.3431 181.484 69.4696 181.035 69.6383C180.922 69.6805 180.036 69.7508 179.094 69.807C178.138 69.8492 177.267 69.9336 177.154 69.9757C176.831 70.0882 176.929 70.2991 177.309 70.2991C177.815 70.2991 179.137 70.8193 179.418 71.1427C179.755 71.5082 179.643 71.5082 177.702 71.0021C175.804 70.51 174.848 70.4678 173.836 70.8615C173.428 71.0161 172.824 71.1427 172.501 71.1427C171.98 71.1427 171.868 71.0864 171.685 70.7209C171.573 70.4959 171.474 69.9757 171.474 69.554C171.474 68.6963 171.348 67.909 171.207 67.909C171.151 67.909 170.94 68.6542 170.715 69.554C170.195 71.7191 169.534 73.5328 169.281 73.5328C168.873 73.5328 165.724 72.8017 163.812 72.2674C161.492 71.6207 160.255 71.1708 158.807 70.4397C155.503 68.7947 153.83 66.9389 153.45 64.4785C153.309 63.5787 153.323 63.2975 153.548 62.468C153.956 60.8652 153.97 60.7106 153.675 60.7668C152.972 60.8934 152.396 62.6789 152.55 64.2676C152.888 67.909 155.756 70.5803 161.422 72.4924L162.968 73.0126L163.207 74.4747C163.348 75.2621 163.657 76.5555 163.91 77.3147C164.177 78.088 164.36 78.6926 164.318 78.6645C164.29 78.6223 163.545 77.4132 162.687 75.965C161.52 74.0108 161.042 73.3219 160.845 73.3219C160.438 73.3219 160.438 73.9827 160.845 74.8684C161.239 75.726 166.075 83.8524 167.144 85.4411C167.973 86.6783 168.03 86.7064 171.123 86.9173C172.782 87.0298 175.003 87.0298 179.629 86.9033C193.168 86.5518 194.56 86.4955 195.347 86.2565C195.825 86.1159 196.303 86.0597 196.683 86.1159C197.4 86.2284 201.871 85.9753 203.038 85.7504C204.528 85.4833 205.02 84.9631 204.654 84.0773C204.261 83.1213 203.094 82.7417 200.085 82.587C198.018 82.4886 197.723 82.4043 197.568 81.8981C197.498 81.6591 197.737 81.4904 199.354 80.6749C201.421 79.6345 201.983 79.1987 201.983 78.6926C201.983 77.8631 199.944 72.5627 198.412 69.3852C195.417 63.185 192.451 59.5858 189.358 58.3627C188.43 57.9971 186.883 57.969 185.885 58.3205ZM188.641 78.313C190.258 82.8823 190.398 83.1916 190.876 83.3041C191.256 83.3884 192.296 83.3041 192.887 83.1353C193.098 83.0791 193.126 83.1775 193.126 83.8946C193.126 84.4147 193.21 84.8365 193.351 85.0334C193.562 85.3427 193.547 85.3427 193.013 85.3427C192.338 85.3427 192.001 85.0193 191.902 84.2179C191.832 83.6837 191.79 83.6415 191.453 83.7118C190.215 83.9367 190.061 83.9367 189.836 83.7258C189.639 83.5149 188.978 81.5747 187.783 77.61L187.333 76.1478L186.616 77.3147C184.521 80.689 182.609 82.8823 180.318 84.5272C178.602 85.7645 178.251 85.905 176.746 85.891H175.481L176.479 85.5676C178.363 84.9631 180.191 83.6696 182.258 81.5045C183.832 79.8595 186.11 76.7664 186.897 75.1918C187.249 74.4888 187.263 74.4747 187.403 74.7981C187.474 74.9949 188.036 76.5696 188.641 78.313ZM196.978 82.7276C197.09 83.2056 197.611 83.3462 199.663 83.4446C200.676 83.4868 201.857 83.5993 202.321 83.6837C203.164 83.8383 203.937 84.3304 203.769 84.5975C203.516 85.0052 200.633 85.3427 197.287 85.3427C195.122 85.3427 194.869 85.3146 194.447 85.0474C194.166 84.8787 193.941 84.5975 193.885 84.3866C193.843 84.1757 193.744 83.7961 193.66 83.5431C193.59 83.29 193.547 83.051 193.576 83.0229C193.702 82.8963 195.895 82.4043 196.373 82.4043C196.809 82.3902 196.908 82.4464 196.978 82.7276ZM169.168 84.6397C169.618 84.9068 170.49 85.3146 171.123 85.5254L172.247 85.9191L171.052 85.8207C169.97 85.7504 168.508 85.5395 168.451 85.4411C168.437 85.427 168.03 84.7944 167.552 84.0211L166.68 82.6292L167.523 83.3884C167.973 83.8102 168.719 84.3726 169.168 84.6397Z" fill="black"/>
<path d="M204.302 74.1954C203.923 74.2094 203.15 74.3078 202.601 74.3922L201.603 74.5469L201.997 75.2779C202.475 76.1637 203.037 77.6259 203.164 78.3429C203.248 78.7928 203.192 78.9193 202.812 79.3552C202.376 79.8613 200.366 80.972 199.297 81.2813C199.002 81.3797 198.749 81.5203 198.749 81.6187C198.749 81.9983 199.115 82.1108 200.366 82.1108C201.8 82.1249 203.557 82.392 204.176 82.7154C204.64 82.9544 205.779 84.1213 205.779 84.3603C205.779 84.4447 205.68 84.5431 205.568 84.5853C205.413 84.6556 205.399 84.7399 205.498 84.9368C205.779 85.4429 206.622 85.5273 210.348 85.4288C214.945 85.3023 215.719 85.218 216.098 84.768C216.394 84.4306 216.45 84.4166 217.898 84.4728C219.698 84.5431 221.469 84.3322 222.186 83.9526C223.508 83.2637 224.492 80.5783 224.52 77.6118C224.534 75.3201 223.958 74.35 222.805 74.7437C222.355 74.9124 221.961 75.6154 221.371 77.2603C220.822 78.835 220.358 79.6785 219.937 79.8051C219.768 79.8613 219.009 79.9035 218.263 79.9176C216.745 79.9316 216.351 80.1003 216.787 80.5362C216.998 80.733 217.307 80.7752 218.615 80.7752C220.035 80.7752 220.232 80.7471 220.654 80.4518C221.146 80.0863 221.638 79.2146 222.369 77.3306C222.622 76.6698 222.917 76.0372 223.016 75.9247C223.859 75.0249 223.789 79.5239 222.931 81.7031C222.284 83.3199 221.68 83.6292 218.77 83.7558C217.153 83.8261 216.914 83.812 216.843 83.6152C216.801 83.4886 216.689 82.7013 216.604 81.8718C216.253 78.2867 215.606 75.4185 215.002 74.7015C214.678 74.3219 214.65 74.3219 212.232 74.2235C209.856 74.1251 205.722 74.111 204.302 74.1954Z" fill="black"/>
<path d="M173.344 88.5069C173.245 88.7318 172.964 89.6879 172.739 90.6158C172.289 92.3592 171.137 96.099 169.196 102.074C167.087 108.612 166.511 110.932 167.003 110.932C167.383 110.932 167.65 110.454 168.029 109.104C168.226 108.373 169.056 105.744 169.871 103.269C172.191 96.1693 173.653 90.3908 173.555 88.76L173.513 88.0851L173.344 88.5069Z" fill="black"/>
<path d="M185.604 89.237C185.73 90.1368 187.165 95.5075 188.289 99.3317C190.89 108.119 191.537 110.115 191.945 110.762C192.127 111.029 192.198 111.057 192.381 110.917C192.648 110.678 192.563 110.073 191.931 108.049C191.678 107.191 191.073 105.138 190.595 103.479C190.117 101.82 189.386 99.3739 188.978 98.0663C188.556 96.7448 188.022 94.9452 187.783 94.0594C187.15 91.7115 186.377 89.4058 186.068 88.9558C185.66 88.3794 185.491 88.4778 185.604 89.237Z" fill="black"/>
</g>
<defs>
<clipPath id="clip0_990_3027">
<rect width="322" height="110" fill="white"/>
</clipPath>
</defs>
</svg>
